# Blender 5.0.1
# www.blender.org
mtllib sphere.mtl
o Sphere
v 0.000000 500.000000 0.000000
v 0.000000 490.392639 97.545158
v 0.000000 353.553375 353.553375
v 0.000000 191.341721 461.939758
v 0.000000 97.545158 490.392639
v 0.000000 -97.545158 490.392639
v 0.000000 -277.785126 415.734802
v 0.000000 -415.734802 277.785126
v 0.000000 -461.939758 191.341721
v 0.000000 -490.392639 97.545158
v 0.000000 -500.000000 0.000000
v 37.328918 490.392639 90.119972
v 73.223312 461.939758 176.776688
v 106.303772 415.734802 256.639984
v 135.299026 353.553375 326.640717
v 159.094833 277.785126 384.088867
v 176.776703 191.341721 426.776672
v 187.665146 97.545158 453.063721
v 191.341721 0.000000 461.939758
v 187.665146 -97.545158 453.063721
v 176.776703 -191.341721 426.776672
v 159.094833 -277.785126 384.088867
v 135.299026 -353.553375 326.640717
v 106.303772 -415.734802 256.639984
v 73.223312 -461.939758 176.776688
v 37.328918 -490.392639 90.119972
v 68.974846 490.392639 68.974838
v 135.299042 461.939758 135.299011
v 196.423752 415.734802 196.423721
v 250.000000 353.553375 249.999969
v 293.968903 277.785126 293.968872
v 326.640747 191.341721 326.640686
v 346.759949 97.545158 346.759949
v 353.553406 0.000000 353.553345
v 346.759949 -97.545158 346.759949
v 326.640747 -191.341721 326.640686
v 293.968903 -277.785126 293.968872
v 250.000000 -353.553375 249.999969
v 196.423752 -415.734802 196.423721
v 135.299042 -461.939758 135.299011
v 68.974846 -490.392639 68.974838
v 90.119972 490.392639 37.328903
v 176.776703 461.939758 73.223282
v 256.639984 415.734802 106.303726
v 326.640747 353.553375 135.298981
v 384.088867 277.785126 159.094788
v 426.776672 191.341721 176.776642
v 453.063721 97.545158 187.665115
v 461.939758 0.000000 191.341644
v 453.063721 -97.545158 187.665115
v 426.776672 -191.341721 176.776642
v 384.088867 -277.785126 159.094788
v 326.640747 -353.553375 135.298981
v 256.639984 -415.734802 106.303726
v 176.776703 -461.939758 73.223282
v 90.119972 -490.392639 37.328903
v 97.545151 490.392639 -0.000015
v 191.341705 461.939758 -0.000031
v 277.785095 415.734802 -0.000046
v 353.553375 353.553375 -0.000053
v 415.734772 277.785126 -0.000031
v 461.939728 191.341721 -0.000061
v 490.392639 97.545158 -0.000031
v 499.999939 0.000000 -0.000076
v 490.392639 -97.545158 -0.000031
v 461.939728 -191.341721 -0.000061
v 415.734772 -277.785126 -0.000031
v 353.553375 -353.553375 -0.000053
v 277.785095 -415.734802 -0.000046
v 191.341705 -461.939758 -0.000031
v 97.545151 -490.392639 -0.000015
v 90.119957 490.392639 -37.328930
v 176.776657 461.939758 -73.223335
v 256.639923 415.734802 -106.303802
v 326.640686 353.553375 -135.299072
v 384.088837 277.785126 -159.094849
v 426.776611 191.341721 -176.776749
v 453.063721 97.545158 -187.665176
v 461.939667 0.000000 -191.341782
v 453.063721 -97.545158 -187.665176
v 426.776611 -191.341721 -176.776749
v 384.088837 -277.785126 -159.094849
v 326.640686 -353.553375 -135.299072
v 256.639923 -415.734802 -106.303802
v 176.776657 -461.939758 -73.223335
v 90.119957 -490.392639 -37.328930
v 68.974815 490.392639 -68.974854
v 135.298965 461.939758 -135.299042
v 196.423660 415.734802 -196.423767
v 249.999924 353.553375 -250.000031
v 293.968842 277.785126 -293.968903
v 326.640625 191.341721 -326.640747
v 346.759949 97.545158 -346.760010
v 353.553253 0.000000 -353.553406
v 346.759949 -97.545158 -346.760010
v 326.640625 -191.341721 -326.640747
v 293.968842 -277.785126 -293.968903
v 249.999924 -353.553375 -250.000031
v 196.423660 -415.734802 -196.423767
v 135.298965 -461.939758 -135.299042
v 68.974815 -490.392639 -68.974854
v 37.328884 490.392639 -90.119972
v 73.223236 461.939758 -176.776688
v 106.303658 415.734802 -256.639984
v 135.298920 353.553375 -326.640747
v 159.094757 277.785126 -384.088867
v 176.776581 191.341721 -426.776672
v 187.665085 97.545158 -453.063782
v 191.341553 0.000000 -461.939728
v 187.665085 -97.545158 -453.063782
v 176.776581 -191.341721 -426.776672
v 159.094757 -277.785126 -384.088867
v 135.298920 -353.553375 -326.640747
v 106.303658 -415.734802 -256.639984
v 73.223236 -461.939758 -176.776688
v 37.328884 -490.392639 -90.119972
v -0.000031 490.392639 -97.545143
v -0.000069 461.939758 -191.341675
v -0.000107 415.734802 -277.785065
v -0.000107 353.553375 -353.553345
v -0.000061 277.785126 -415.734772
v -0.000107 191.341721 -461.939697
v -0.000092 97.545158 -490.392670
v -0.000153 0.000000 -499.999878
v -0.000092 -97.545158 -490.392670
v -0.000107 -191.341721 -461.939697
v -0.000061 -277.785126 -415.734772
v -0.000107 -353.553375 -353.553345
v -0.000107 -415.734802 -277.785065
v -0.000069 -461.939758 -191.341675
v -0.000031 -490.392639 -97.545143
v -37.328938 490.392639 -90.119942
v -73.223358 461.939758 -176.776627
v -106.303848 415.734802 -256.639893
v -135.299103 353.553375 -326.640656
v -159.094879 277.785126 -384.088806
v -176.776764 191.341721 -426.776581
v -187.665253 97.545158 -453.063721
v -191.341812 0.000000 -461.939575
v -187.665253 -97.545158 -453.063721
v -176.776764 -191.341721 -426.776581
v -159.094879 -277.785126 -384.088806
v -135.299103 -353.553375 -326.640656
v -106.303848 -415.734802 -256.639893
v -73.223358 -461.939758 -176.776627
v -37.328938 -490.392639 -90.119942
v -68.974854 490.392639 -68.974800
v -135.299042 461.939758 -135.298935
v -196.423782 415.734802 -196.423615
v -250.000046 353.553375 -249.999878
v -293.968933 277.785126 -293.968811
v -326.640778 191.341721 -326.640594
v -346.760071 97.545158 -346.759888
v -353.553406 0.000000 -353.553162
v -346.760071 -97.545158 -346.759888
v -326.640778 -191.341721 -326.640594
v -293.968933 -277.785126 -293.968811
v -250.000046 -353.553375 -249.999878
v -196.423782 -415.734802 -196.423615
v -135.299042 -461.939758 -135.298935
v -68.974854 -490.392639 -68.974800
v -90.119965 490.392639 -37.328869
v -176.776672 461.939758 -73.223206
v -256.639984 415.734802 -106.303627
v -326.640747 353.553375 -135.298874
v -384.088867 277.785126 -159.094727
v -426.776672 191.341721 -176.776520
v -453.063812 97.545158 -187.665009
v -461.939697 0.000000 -191.341492
v -453.063812 -97.545158 -187.665009
v -426.776672 -191.341721 -176.776520
v -384.088867 -277.785126 -159.094727
v -326.640747 -353.553375 -135.298874
v -256.639984 -415.734802 -106.303627
v -176.776672 -461.939758 -73.223206
v -90.119965 -490.392639 -37.328869
v -97.545128 490.392639 0.000042
v -191.341644 461.939758 0.000084
v -277.785065 415.734802 0.000137
v -353.553345 353.553375 0.000153
v -415.734741 277.785126 0.000092
v -461.939667 191.341721 0.000168
v -490.392670 97.545158 0.000168
v -499.999817 0.000000 0.000183
v -490.392670 -97.545158 0.000168
v -461.939667 -191.341721 0.000168
v -415.734741 -277.785126 0.000092
v -353.553345 -353.553375 0.000153
v -277.785065 -415.734802 0.000137
v -191.341644 -461.939758 0.000084
v -97.545128 -490.392639 0.000042
v -90.119926 490.392639 37.328945
v -176.776596 461.939758 73.223358
v -256.639862 415.734802 106.303879
v -326.640625 353.553375 135.299149
v -384.088776 277.785126 159.094894
v -426.776520 191.341721 176.776825
v -453.063690 97.545158 187.665314
v -461.939514 0.000000 191.341827
v -453.063690 -97.545158 187.665314
v -426.776520 -191.341721 176.776825
v -384.088776 -277.785126 159.094894
v -326.640625 -353.553375 135.299149
v -256.639862 -415.734802 106.303879
v -176.776596 -461.939758 73.223358
v -90.119926 -490.392639 37.328945
v -68.974785 490.392639 68.974854
v -135.298904 461.939758 135.299042
v -196.423569 415.734802 196.423798
v -249.999832 353.553375 250.000061
v -293.968750 277.785126 293.968933
v -326.640503 191.341721 326.640808
v -346.759857 97.545158 346.760132
v -353.553101 0.000000 353.553406
v -346.759857 -97.545158 346.760132
v -326.640503 -191.341721 326.640808
v -293.968750 -277.785126 293.968933
v -249.999832 -353.553375 250.000061
v -196.423569 -415.734802 196.423798
v -135.298904 -461.939758 135.299042
v -68.974785 -490.392639 68.974854
v -37.328857 490.392639 90.119965
v -73.223175 461.939758 176.776672
v -106.303574 415.734802 256.639984
v -135.298828 353.553375 326.640717
v -159.094666 277.785126 384.088837
v -176.776428 191.341721 426.776642
v -187.664948 97.545158 453.063843
v -191.341431 0.000000 461.939667
v -187.664948 -97.545158 453.063843
v -176.776428 -191.341721 426.776642
v -159.094666 -277.785126 384.088837
v -135.298828 -353.553375 326.640717
v -106.303574 -415.734802 256.639984
v -73.223175 -461.939758 176.776672
v -37.328857 -490.392639 90.119965
v 0.000114 461.939758 191.341644
v 0.000183 415.734802 277.785034
v 0.000137 277.785126 415.734711
v 0.000244 0.000000 499.999786
v 0.000244 -191.341721 461.939606
v 0.000183 -353.553375 353.553284
vn -0.0000 -1.0000 -0.0000
vn -0.0000 -0.9784 -0.2068
vn -0.0000 -0.7011 -0.7131
vn -0.0000 -0.3784 -0.9256
vn -0.0000 -0.1928 -0.9812
vn -0.0000 0.1928 -0.9812
vn -0.0000 0.5500 -0.8352
vn -0.0000 0.8258 -0.5639
vn -0.0000 0.9195 -0.3930
vn -0.0000 0.9784 -0.2068
vn -0.0000 1.0000 -0.0000
vn -0.0791 -0.9784 -0.1911
vn -0.1504 -0.9195 -0.3631
vn -0.2158 -0.8258 -0.5210
vn -0.2729 -0.7011 -0.6588
vn -0.3196 -0.5500 -0.7716
vn -0.3542 -0.3784 -0.8552
vn -0.3755 -0.1928 -0.9065
vn -0.3827 -0.0000 -0.9239
vn -0.3755 0.1928 -0.9065
vn -0.3542 0.3784 -0.8552
vn -0.3196 0.5500 -0.7716
vn -0.2729 0.7011 -0.6588
vn -0.2158 0.8258 -0.5210
vn -0.1504 0.9195 -0.3631
vn -0.0791 0.9784 -0.1911
vn -0.1462 -0.9784 -0.1462
vn -0.2779 -0.9195 -0.2779
vn -0.3987 -0.8258 -0.3987
vn -0.5042 -0.7011 -0.5042
vn -0.5905 -0.5500 -0.5905
vn -0.6545 -0.3784 -0.6545
vn -0.6938 -0.1928 -0.6938
vn -0.7071 -0.0000 -0.7071
vn -0.6938 0.1928 -0.6938
vn -0.6545 0.3784 -0.6545
vn -0.5905 0.5500 -0.5905
vn -0.5042 0.7011 -0.5042
vn -0.3987 0.8258 -0.3987
vn -0.2779 0.9195 -0.2779
vn -0.1462 0.9784 -0.1462
vn -0.1911 -0.9784 -0.0791
vn -0.3631 -0.9195 -0.1504
vn -0.5210 -0.8258 -0.2158
vn -0.6588 -0.7011 -0.2729
vn -0.7716 -0.5500 -0.3196
vn -0.8552 -0.3784 -0.3542
vn -0.9065 -0.1928 -0.3755
vn -0.9239 -0.0000 -0.3827
vn -0.9065 0.1928 -0.3755
vn -0.8552 0.3784 -0.3542
vn -0.7716 0.5500 -0.3196
vn -0.6588 0.7011 -0.2729
vn -0.5210 0.8258 -0.2158
vn -0.3631 0.9195 -0.1504
vn -0.1911 0.9784 -0.0791
vn -0.2068 -0.9784 -0.0000
vn -0.3930 -0.9195 -0.0000
vn -0.5639 -0.8258 -0.0000
vn -0.7131 -0.7011 -0.0000
vn -0.8352 -0.5500 -0.0000
vn -0.9256 -0.3784 -0.0000
vn -0.9812 -0.1928 -0.0000
vn -1.0000 -0.0000 -0.0000
vn -0.9812 0.1928 -0.0000
vn -0.9256 0.3784 -0.0000
vn -0.8352 0.5500 -0.0000
vn -0.7131 0.7011 -0.0000
vn -0.5639 0.8258 -0.0000
vn -0.3930 0.9195 -0.0000
vn -0.2068 0.9784 -0.0000
vn -0.1911 -0.9784 0.0791
vn -0.3631 -0.9195 0.1504
vn -0.5210 -0.8258 0.2158
vn -0.6588 -0.7011 0.2729
vn -0.7716 -0.5500 0.3196
vn -0.8552 -0.3784 0.3542
vn -0.9065 -0.1928 0.3755
vn -0.9239 -0.0000 0.3827
vn -0.9065 0.1928 0.3755
vn -0.8552 0.3784 0.3542
vn -0.7716 0.5500 0.3196
vn -0.6588 0.7011 0.2729
vn -0.5210 0.8258 0.2158
vn -0.3631 0.9195 0.1504
vn -0.1911 0.9784 0.0791
vn -0.1462 -0.9784 0.1462
vn -0.2779 -0.9195 0.2779
vn -0.3987 -0.8258 0.3987
vn -0.5042 -0.7011 0.5042
vn -0.5905 -0.5500 0.5905
vn -0.6545 -0.3784 0.6545
vn -0.6938 -0.1928 0.6938
vn -0.7071 -0.0000 0.7071
vn -0.6938 0.1928 0.6938
vn -0.6545 0.3784 0.6545
vn -0.5905 0.5500 0.5905
vn -0.5042 0.7011 0.5042
vn -0.3987 0.8258 0.3987
vn -0.2779 0.9195 0.2779
vn -0.1462 0.9784 0.1462
vn -0.0791 -0.9784 0.1911
vn -0.1504 -0.9195 0.3631
vn -0.2158 -0.8258 0.5210
vn -0.2729 -0.7011 0.6588
vn -0.3196 -0.5500 0.7716
vn -0.3542 -0.3784 0.8552
vn -0.3755 -0.1928 0.9065
vn -0.3827 -0.0000 0.9239
vn -0.3755 0.1928 0.9065
vn -0.3542 0.3784 0.8552
vn -0.3196 0.5500 0.7716
vn -0.2729 0.7011 0.6588
vn -0.2158 0.8258 0.5210
vn -0.1504 0.9195 0.3631
vn -0.0791 0.9784 0.1911
vn -0.0000 -0.9784 0.2068
vn -0.0000 -0.9195 0.3930
vn -0.0000 -0.8258 0.5639
vn -0.0000 -0.7011 0.7131
vn -0.0000 -0.5500 0.8352
vn -0.0000 -0.3784 0.9256
vn -0.0000 -0.1928 0.9812
vn -0.0000 -0.0000 1.0000
vn -0.0000 0.1928 0.9812
vn -0.0000 0.3784 0.9256
vn -0.0000 0.5500 0.8352
vn -0.0000 0.7011 0.7131
vn -0.0000 0.8258 0.5639
vn -0.0000 0.9195 0.3930
vn -0.0000 0.9784 0.2068
vn 0.0791 -0.9784 0.1911
vn 0.1504 -0.9195 0.3631
vn 0.2158 -0.8258 0.5210
vn 0.2729 -0.7011 0.6588
vn 0.3196 -0.5500 0.7716
vn 0.3542 -0.3784 0.8552
vn 0.3755 -0.1928 0.9065
vn 0.3827 -0.0000 0.9239
vn 0.3755 0.1928 0.9065
vn 0.3542 0.3784 0.8552
vn 0.3196 0.5500 0.7716
vn 0.2729 0.7011 0.6588
vn 0.2158 0.8258 0.5210
vn 0.1504 0.9195 0.3631
vn 0.0791 0.9784 0.1911
vn 0.1462 -0.9784 0.1462
vn 0.2779 -0.9195 0.2779
vn 0.3987 -0.8258 0.3987
vn 0.5042 -0.7011 0.5042
vn 0.5905 -0.5500 0.5905
vn 0.6545 -0.3784 0.6545
vn 0.6938 -0.1928 0.6938
vn 0.7071 -0.0000 0.7071
vn 0.6938 0.1928 0.6938
vn 0.6545 0.3784 0.6545
vn 0.5905 0.5500 0.5905
vn 0.5042 0.7011 0.5042
vn 0.3987 0.8258 0.3987
vn 0.2779 0.9195 0.2779
vn 0.1462 0.9784 0.1462
vn 0.1911 -0.9784 0.0791
vn 0.3631 -0.9195 0.1504
vn 0.5210 -0.8258 0.2158
vn 0.6588 -0.7011 0.2729
vn 0.7716 -0.5500 0.3196
vn 0.8552 -0.3784 0.3542
vn 0.9065 -0.1928 0.3755
vn 0.9239 -0.0000 0.3827
vn 0.9065 0.1928 0.3755
vn 0.8552 0.3784 0.3542
vn 0.7716 0.5500 0.3196
vn 0.6588 0.7011 0.2729
vn 0.5210 0.8258 0.2158
vn 0.3631 0.9195 0.1504
vn 0.1911 0.9784 0.0791
vn 0.2068 -0.9784 -0.0000
vn 0.3930 -0.9195 -0.0000
vn 0.5639 -0.8258 -0.0000
vn 0.7131 -0.7011 -0.0000
vn 0.8352 -0.5500 -0.0000
vn 0.9256 -0.3784 -0.0000
vn 0.9812 -0.1928 -0.0000
vn 1.0000 -0.0000 -0.0000
vn 0.9812 0.1928 -0.0000
vn 0.9256 0.3784 -0.0000
vn 0.8352 0.5500 -0.0000
vn 0.7131 0.7011 -0.0000
vn 0.5639 0.8258 -0.0000
vn 0.3930 0.9195 -0.0000
vn 0.2068 0.9784 -0.0000
vn 0.1911 -0.9784 -0.0791
vn 0.3631 -0.9195 -0.1504
vn 0.5210 -0.8258 -0.2158
vn 0.6588 -0.7011 -0.2729
vn 0.7716 -0.5500 -0.3196
vn 0.8552 -0.3784 -0.3542
vn 0.9065 -0.1928 -0.3755
vn 0.9239 -0.0000 -0.3827
vn 0.9065 0.1928 -0.3755
vn 0.8552 0.3784 -0.3542
vn 0.7716 0.5500 -0.3196
vn 0.6588 0.7011 -0.2729
vn 0.5210 0.8258 -0.2158
vn 0.3631 0.9195 -0.1504
vn 0.1911 0.9784 -0.0791
vn 0.1462 -0.9784 -0.1462
vn 0.2779 -0.9195 -0.2779
vn 0.3987 -0.8258 -0.3987
vn 0.5042 -0.7011 -0.5042
vn 0.5905 -0.5500 -0.5905
vn 0.6545 -0.3784 -0.6545
vn 0.6938 -0.1928 -0.6938
vn 0.7071 -0.0000 -0.7071
vn 0.6938 0.1928 -0.6938
vn 0.6545 0.3784 -0.6545
vn 0.5905 0.5500 -0.5905
vn 0.5042 0.7011 -0.5042
vn 0.3987 0.8258 -0.3987
vn 0.2779 0.9195 -0.2779
vn 0.1462 0.9784 -0.1462
vn 0.0791 -0.9784 -0.1911
vn 0.1504 -0.9195 -0.3631
vn 0.2158 -0.8258 -0.5210
vn 0.2729 -0.7011 -0.6588
vn 0.3196 -0.5500 -0.7716
vn 0.3542 -0.3784 -0.8552
vn 0.3755 -0.1928 -0.9065
vn 0.3827 -0.0000 -0.9239
vn 0.3755 0.1928 -0.9065
vn 0.3542 0.3784 -0.8552
vn 0.3196 0.5500 -0.7716
vn 0.2729 0.7011 -0.6588
vn 0.2158 0.8258 -0.5210
vn 0.1504 0.9195 -0.3631
vn 0.0791 0.9784 -0.1911
vn -0.0000 -0.9195 -0.3930
vn -0.0000 -0.8258 -0.5639
vn -0.0000 -0.5500 -0.8352
vn -0.0000 -0.0000 -1.0000
vn -0.0000 0.3784 -0.9256
vn -0.0000 0.7011 -0.7131
vt 0.750000 0.875000
vt 0.687500 0.875000
vt 0.687500 0.937500
vt 0.750000 0.937500
vt 0.750000 0.375000
vt 0.687500 0.375000
vt 0.687500 0.437500
vt 0.750000 0.437500
vt 0.750000 0.812500
vt 0.687500 0.812500
vt 0.750000 0.312500
vt 0.687500 0.312500
vt 0.750000 0.750000
vt 0.687500 0.750000
vt 0.750000 0.250000
vt 0.687500 0.250000
vt 0.750000 0.687500
vt 0.687500 0.687500
vt 0.750000 0.187500
vt 0.687500 0.187500
vt 0.750000 0.625000
vt 0.687500 0.625000
vt 0.750000 0.125000
vt 0.687500 0.125000
vt 0.750000 0.562500
vt 0.687500 0.562500
vt 0.750000 0.062500
vt 0.687500 0.062500
vt 0.750000 0.500000
vt 0.687500 0.500000
vt 0.718750 1.000000
vt 0.718750 0.000000
vt 0.625000 0.500000
vt 0.625000 0.562500
vt 0.625000 0.937500
vt 0.656250 1.000000
vt 0.656250 0.000000
vt 0.625000 0.062500
vt 0.625000 0.437500
vt 0.625000 0.875000
vt 0.625000 0.375000
vt 0.625000 0.812500
vt 0.625000 0.312500
vt 0.625000 0.750000
vt 0.625000 0.250000
vt 0.625000 0.687500
vt 0.625000 0.187500
vt 0.625000 0.625000
vt 0.625000 0.125000
vt 0.562500 0.250000
vt 0.562500 0.312500
vt 0.562500 0.687500
vt 0.562500 0.750000
vt 0.562500 0.187500
vt 0.562500 0.625000
vt 0.562500 0.125000
vt 0.562500 0.562500
vt 0.562500 0.062500
vt 0.562500 0.500000
vt 0.562500 0.937500
vt 0.593750 1.000000
vt 0.593750 0.000000
vt 0.562500 0.437500
vt 0.562500 0.875000
vt 0.562500 0.375000
vt 0.562500 0.812500
vt 0.531250 0.000000
vt 0.500000 0.062500
vt 0.500000 0.437500
vt 0.500000 0.500000
vt 0.500000 0.875000
vt 0.500000 0.937500
vt 0.500000 0.375000
vt 0.500000 0.812500
vt 0.500000 0.312500
vt 0.500000 0.750000
vt 0.500000 0.250000
vt 0.500000 0.687500
vt 0.500000 0.187500
vt 0.500000 0.625000
vt 0.500000 0.125000
vt 0.500000 0.562500
vt 0.531250 1.000000
vt 0.437500 0.187500
vt 0.437500 0.250000
vt 0.437500 0.625000
vt 0.437500 0.687500
vt 0.437500 0.125000
vt 0.437500 0.562500
vt 0.437500 0.062500
vt 0.437500 0.500000
vt 0.437500 0.937500
vt 0.468750 1.000000
vt 0.468750 0.000000
vt 0.437500 0.437500
vt 0.437500 0.875000
vt 0.437500 0.375000
vt 0.437500 0.812500
vt 0.437500 0.312500
vt 0.437500 0.750000
vt 0.375000 0.875000
vt 0.375000 0.937500
vt 0.375000 0.375000
vt 0.375000 0.437500
vt 0.375000 0.812500
vt 0.375000 0.312500
vt 0.375000 0.750000
vt 0.375000 0.250000
vt 0.375000 0.687500
vt 0.375000 0.187500
vt 0.375000 0.625000
vt 0.375000 0.125000
vt 0.375000 0.562500
vt 0.375000 0.062500
vt 0.375000 0.500000
vt 0.406250 1.000000
vt 0.406250 0.000000
vt 0.312500 0.625000
vt 0.312500 0.687500
vt 0.312500 0.125000
vt 0.312500 0.187500
vt 0.312500 0.562500
vt 0.312500 0.062500
vt 0.312500 0.500000
vt 0.312500 0.937500
vt 0.343750 1.000000
vt 0.343750 0.000000
vt 0.312500 0.437500
vt 0.312500 0.875000
vt 0.312500 0.375000
vt 0.312500 0.812500
vt 0.312500 0.312500
vt 0.312500 0.750000
vt 0.312500 0.250000
vt 0.250000 0.375000
vt 0.250000 0.437500
vt 0.250000 0.812500
vt 0.250000 0.875000
vt 0.250000 0.312500
vt 0.250000 0.750000
vt 0.250000 0.250000
vt 0.250000 0.687500
vt 0.250000 0.187500
vt 0.250000 0.625000
vt 0.250000 0.125000
vt 0.250000 0.562500
vt 0.250000 0.062500
vt 0.250000 0.500000
vt 0.250000 0.937500
vt 0.281250 1.000000
vt 0.281250 0.000000
vt 0.187500 0.125000
vt 0.187500 0.187500
vt 0.187500 0.562500
vt 0.187500 0.625000
vt 0.187500 0.062500
vt 0.187500 0.500000
vt 0.187500 0.937500
vt 0.218750 1.000000
vt 0.218750 0.000000
vt 0.187500 0.437500
vt 0.187500 0.875000
vt 0.187500 0.375000
vt 0.187500 0.812500
vt 0.187500 0.312500
vt 0.187500 0.750000
vt 0.187500 0.250000
vt 0.187500 0.687500
vt 0.125000 0.812500
vt 0.125000 0.875000
vt 0.125000 0.312500
vt 0.125000 0.375000
vt 0.125000 0.750000
vt 0.125000 0.250000
vt 0.125000 0.687500
vt 0.125000 0.187500
vt 0.125000 0.625000
vt 0.125000 0.125000
vt 0.125000 0.562500
vt 0.125000 0.062500
vt 0.125000 0.500000
vt 0.125000 0.937500
vt 0.156250 1.000000
vt 0.156250 0.000000
vt 0.125000 0.437500
vt 0.062500 0.562500
vt 0.062500 0.625000
vt 0.062500 0.062500
vt 0.062500 0.125000
vt 0.062500 0.500000
vt 0.062500 0.937500
vt 0.093750 1.000000
vt 0.093750 0.000000
vt 0.062500 0.437500
vt 0.062500 0.875000
vt 0.062500 0.375000
vt 0.062500 0.812500
vt 0.062500 0.312500
vt 0.062500 0.750000
vt 0.062500 0.250000
vt 0.062500 0.687500
vt 0.062500 0.187500
vt 0.000000 0.312500
vt 0.000000 0.375000
vt 0.000000 0.750000
vt 0.000000 0.812500
vt 0.000000 0.250000
vt 0.000000 0.687500
vt 0.000000 0.187500
vt 0.000000 0.625000
vt 0.000000 0.125000
vt 0.000000 0.562500
vt 0.000000 0.062500
vt 0.000000 0.500000
vt 0.000000 0.937500
vt 0.031250 1.000000
vt 0.031250 0.000000
vt 0.000000 0.437500
vt 0.000000 0.875000
vt 1.000000 0.062500
vt 0.937500 0.062500
vt 0.937500 0.125000
vt 1.000000 0.125000
vt 1.000000 0.500000
vt 0.937500 0.500000
vt 0.937500 0.562500
vt 1.000000 0.562500
vt 1.000000 0.937500
vt 0.937500 0.937500
vt 0.968750 1.000000
vt 0.968750 0.000000
vt 1.000000 0.437500
vt 0.937500 0.437500
vt 1.000000 0.875000
vt 0.937500 0.875000
vt 1.000000 0.375000
vt 0.937500 0.375000
vt 1.000000 0.812500
vt 0.937500 0.812500
vt 1.000000 0.312500
vt 0.937500 0.312500
vt 1.000000 0.750000
vt 0.937500 0.750000
vt 1.000000 0.250000
vt 0.937500 0.250000
vt 1.000000 0.687500
vt 0.937500 0.687500
vt 1.000000 0.187500
vt 0.937500 0.187500
vt 1.000000 0.625000
vt 0.937500 0.625000
vt 0.875000 0.250000
vt 0.875000 0.312500
vt 0.875000 0.687500
vt 0.875000 0.750000
vt 0.875000 0.187500
vt 0.875000 0.625000
vt 0.875000 0.125000
vt 0.875000 0.562500
vt 0.875000 0.062500
vt 0.875000 0.500000
vt 0.875000 0.937500
vt 0.906250 1.000000
vt 0.906250 0.000000
vt 0.875000 0.437500
vt 0.875000 0.875000
vt 0.875000 0.375000
vt 0.875000 0.812500
vt 0.812500 0.937500
vt 0.843750 1.000000
vt 0.843750 0.000000
vt 0.812500 0.062500
vt 0.812500 0.437500
vt 0.812500 0.500000
vt 0.812500 0.875000
vt 0.812500 0.375000
vt 0.812500 0.812500
vt 0.812500 0.312500
vt 0.812500 0.750000
vt 0.812500 0.250000
vt 0.812500 0.687500
vt 0.812500 0.187500
vt 0.812500 0.625000
vt 0.812500 0.125000
vt 0.812500 0.562500
vt 0.781250 1.000000
vt 0.781250 0.000000
s 1
usemtl Material
f 237/1/237 2/4/2 12/3/12 13/2/13
f 241/5/241 6/8/6 20/7/20 21/6/21
f 238/9/238 237/1/237 13/2/13 14/10/14
f 7/11/7 241/5/241 21/6/21 22/12/22
f 3/13/3 238/9/238 14/10/14 15/14/15
f 242/15/242 7/11/7 22/12/22 23/16/23
f 239/17/239 3/13/3 15/14/15 16/18/16
f 8/19/8 242/15/242 23/16/23 24/20/24
f 4/21/4 239/17/239 16/18/16 17/22/17
f 9/23/9 8/19/8 24/20/24 25/24/25
f 5/25/5 4/21/4 17/22/17 18/26/18
f 10/27/10 9/23/9 25/24/25 26/28/26
f 240/29/240 5/25/5 18/26/18 19/30/19
f 2/4/2 1/31/1 12/3/12
f 11/32/11 10/27/10 26/28/26
f 6/8/6 240/29/240 19/30/19 20/7/20
f 19/30/19 18/26/18 33/34/33 34/33/34
f 12/3/12 1/36/1 27/35/27
f 11/37/11 26/28/26 41/38/41
f 20/7/20 19/30/19 34/33/34 35/39/35
f 13/2/13 12/3/12 27/35/27 28/40/28
f 21/6/21 20/7/20 35/39/35 36/41/36
f 14/10/14 13/2/13 28/40/28 29/42/29
f 22/12/22 21/6/21 36/41/36 37/43/37
f 15/14/15 14/10/14 29/42/29 30/44/30
f 23/16/23 22/12/22 37/43/37 38/45/38
f 16/18/16 15/14/15 30/44/30 31/46/31
f 24/20/24 23/16/23 38/45/38 39/47/39
f 17/22/17 16/18/16 31/46/31 32/48/32
f 25/24/25 24/20/24 39/47/39 40/49/40
f 18/26/18 17/22/17 32/48/32 33/34/33
f 26/28/26 25/24/25 40/49/40 41/38/41
f 38/45/38 37/43/37 52/51/52 53/50/53
f 31/46/31 30/44/30 45/53/45 46/52/46
f 39/47/39 38/45/38 53/50/53 54/54/54
f 32/48/32 31/46/31 46/52/46 47/55/47
f 40/49/40 39/47/39 54/54/54 55/56/55
f 33/34/33 32/48/32 47/55/47 48/57/48
f 41/38/41 40/49/40 55/56/55 56/58/56
f 34/33/34 33/34/33 48/57/48 49/59/49
f 27/35/27 1/61/1 42/60/42
f 11/62/11 41/38/41 56/58/56
f 35/39/35 34/33/34 49/59/49 50/63/50
f 28/40/28 27/35/27 42/60/42 43/64/43
f 36/41/36 35/39/35 50/63/50 51/65/51
f 29/42/29 28/40/28 43/64/43 44/66/44
f 37/43/37 36/41/36 51/65/51 52/51/52
f 30/44/30 29/42/29 44/66/44 45/53/45
f 11/67/11 56/58/56 71/68/71
f 50/63/50 49/59/49 64/70/64 65/69/65
f 43/64/43 42/60/42 57/72/57 58/71/58
f 51/65/51 50/63/50 65/69/65 66/73/66
f 44/66/44 43/64/43 58/71/58 59/74/59
f 52/51/52 51/65/51 66/73/66 67/75/67
f 45/53/45 44/66/44 59/74/59 60/76/60
f 53/50/53 52/51/52 67/75/67 68/77/68
f 46/52/46 45/53/45 60/76/60 61/78/61
f 54/54/54 53/50/53 68/77/68 69/79/69
f 47/55/47 46/52/46 61/78/61 62/80/62
f 55/56/55 54/54/54 69/79/69 70/81/70
f 48/57/48 47/55/47 62/80/62 63/82/63
f 56/58/56 55/56/55 70/81/70 71/68/71
f 49/59/49 48/57/48 63/82/63 64/70/64
f 42/60/42 1/83/1 57/72/57
f 69/79/69 68/77/68 83/85/83 84/84/84
f 62/80/62 61/78/61 76/87/76 77/86/77
f 70/81/70 69/79/69 84/84/84 85/88/85
f 63/82/63 62/80/62 77/86/77 78/89/78
f 71/68/71 70/81/70 85/88/85 86/90/86
f 64/70/64 63/82/63 78/89/78 79/91/79
f 57/72/57 1/93/1 72/92/72
f 11/94/11 71/68/71 86/90/86
f 65/69/65 64/70/64 79/91/79 80/95/80
f 58/71/58 57/72/57 72/92/72 73/96/73
f 66/73/66 65/69/65 80/95/80 81/97/81
f 59/74/59 58/71/58 73/96/73 74/98/74
f 67/75/67 66/73/66 81/97/81 82/99/82
f 60/76/60 59/74/59 74/98/74 75/100/75
f 68/77/68 67/75/67 82/99/82 83/85/83
f 61/78/61 60/76/60 75/100/75 76/87/76
f 73/96/73 72/92/72 87/102/87 88/101/88
f 81/97/81 80/95/80 95/104/95 96/103/96
f 74/98/74 73/96/73 88/101/88 89/105/89
f 82/99/82 81/97/81 96/103/96 97/106/97
f 75/100/75 74/98/74 89/105/89 90/107/90
f 83/85/83 82/99/82 97/106/97 98/108/98
f 76/87/76 75/100/75 90/107/90 91/109/91
f 84/84/84 83/85/83 98/108/98 99/110/99
f 77/86/77 76/87/76 91/109/91 92/111/92
f 85/88/85 84/84/84 99/110/99 100/112/100
f 78/89/78 77/86/77 92/111/92 93/113/93
f 86/90/86 85/88/85 100/112/100 101/114/101
f 79/91/79 78/89/78 93/113/93 94/115/94
f 72/92/72 1/116/1 87/102/87
f 11/117/11 86/90/86 101/114/101
f 80/95/80 79/91/79 94/115/94 95/104/95
f 92/111/92 91/109/91 106/119/106 107/118/107
f 100/112/100 99/110/99 114/121/114 115/120/115
f 93/113/93 92/111/92 107/118/107 108/122/108
f 101/114/101 100/112/100 115/120/115 116/123/116
f 94/115/94 93/113/93 108/122/108 109/124/109
f 87/102/87 1/126/1 102/125/102
f 11/127/11 101/114/101 116/123/116
f 95/104/95 94/115/94 109/124/109 110/128/110
f 88/101/88 87/102/87 102/125/102 103/129/103
f 96/103/96 95/104/95 110/128/110 111/130/111
f 89/105/89 88/101/88 103/129/103 104/131/104
f 97/106/97 96/103/96 111/130/111 112/132/112
f 90/107/90 89/105/89 104/131/104 105/133/105
f 98/108/98 97/106/97 112/132/112 113/134/113
f 91/109/91 90/107/90 105/133/105 106/119/106
f 99/110/99 98/108/98 113/134/113 114/121/114
f 111/130/111 110/128/110 125/136/125 126/135/126
f 104/131/104 103/129/103 118/138/118 119/137/119
f 112/132/112 111/130/111 126/135/126 127/139/127
f 105/133/105 104/131/104 119/137/119 120/140/120
f 113/134/113 112/132/112 127/139/127 128/141/128
f 106/119/106 105/133/105 120/140/120 121/142/121
f 114/121/114 113/134/113 128/141/128 129/143/129
f 107/118/107 106/119/106 121/142/121 122/144/122
f 115/120/115 114/121/114 129/143/129 130/145/130
f 108/122/108 107/118/107 122/144/122 123/146/123
f 116/123/116 115/120/115 130/145/130 131/147/131
f 109/124/109 108/122/108 123/146/123 124/148/124
f 102/125/102 1/150/1 117/149/117
f 11/151/11 116/123/116 131/147/131
f 110/128/110 109/124/109 124/148/124 125/136/125
f 103/129/103 102/125/102 117/149/117 118/138/118
f 130/145/130 129/143/129 144/153/144 145/152/145
f 123/146/123 122/144/122 137/155/137 138/154/138
f 131/147/131 130/145/130 145/152/145 146/156/146
f 124/148/124 123/146/123 138/154/138 139/157/139
f 117/149/117 1/159/1 132/158/132
f 11/160/11 131/147/131 146/156/146
f 125/136/125 124/148/124 139/157/139 140/161/140
f 118/138/118 117/149/117 132/158/132 133/162/133
f 126/135/126 125/136/125 140/161/140 141/163/141
f 119/137/119 118/138/118 133/162/133 134/164/134
f 127/139/127 126/135/126 141/163/141 142/165/142
f 120/140/120 119/137/119 134/164/134 135/166/135
f 128/141/128 127/139/127 142/165/142 143/167/143
f 121/142/121 120/140/120 135/166/135 136/168/136
f 129/143/129 128/141/128 143/167/143 144/153/144
f 122/144/122 121/142/121 136/168/136 137/155/137
f 134/164/134 133/162/133 148/170/148 149/169/149
f 142/165/142 141/163/141 156/172/156 157/171/157
f 135/166/135 134/164/134 149/169/149 150/173/150
f 143/167/143 142/165/142 157/171/157 158/174/158
f 136/168/136 135/166/135 150/173/150 151/175/151
f 144/153/144 143/167/143 158/174/158 159/176/159
f 137/155/137 136/168/136 151/175/151 152/177/152
f 145/152/145 144/153/144 159/176/159 160/178/160
f 138/154/138 137/155/137 152/177/152 153/179/153
f 146/156/146 145/152/145 160/178/160 161/180/161
f 139/157/139 138/154/138 153/179/153 154/181/154
f 132/158/132 1/183/1 147/182/147
f 11/184/11 146/156/146 161/180/161
f 140/161/140 139/157/139 154/181/154 155/185/155
f 133/162/133 132/158/132 147/182/147 148/170/148
f 141/163/141 140/161/140 155/185/155 156/172/156
f 153/179/153 152/177/152 167/187/167 168/186/168
f 161/180/161 160/178/160 175/189/175 176/188/176
f 154/181/154 153/179/153 168/186/168 169/190/169
f 147/182/147 1/192/1 162/191/162
f 11/193/11 161/180/161 176/188/176
f 155/185/155 154/181/154 169/190/169 170/194/170
f 148/170/148 147/182/147 162/191/162 163/195/163
f 156/172/156 155/185/155 170/194/170 171/196/171
f 149/169/149 148/170/148 163/195/163 164/197/164
f 157/171/157 156/172/156 171/196/171 172/198/172
f 150/173/150 149/169/149 164/197/164 165/199/165
f 158/174/158 157/171/157 172/198/172 173/200/173
f 151/175/151 150/173/150 165/199/165 166/201/166
f 159/176/159 158/174/158 173/200/173 174/202/174
f 152/177/152 151/175/151 166/201/166 167/187/167
f 160/178/160 159/176/159 174/202/174 175/189/175
f 172/198/172 171/196/171 186/204/186 187/203/187
f 165/199/165 164/197/164 179/206/179 180/205/180
f 173/200/173 172/198/172 187/203/187 188/207/188
f 166/201/166 165/199/165 180/205/180 181/208/181
f 174/202/174 173/200/173 188/207/188 189/209/189
f 167/187/167 166/201/166 181/208/181 182/210/182
f 175/189/175 174/202/174 189/209/189 190/211/190
f 168/186/168 167/187/167 182/210/182 183/212/183
f 176/188/176 175/189/175 190/211/190 191/213/191
f 169/190/169 168/186/168 183/212/183 184/214/184
f 162/191/162 1/216/1 177/215/177
f 11/217/11 176/188/176 191/213/191
f 170/194/170 169/190/169 184/214/184 185/218/185
f 163/195/163 162/191/162 177/215/177 178/219/178
f 171/196/171 170/194/170 185/218/185 186/204/186
f 164/197/164 163/195/163 178/219/178 179/206/179
f 191/220/191 190/223/190 205/222/205 206/221/206
f 184/224/184 183/227/183 198/226/198 199/225/199
f 177/228/177 1/230/1 192/229/192
f 11/231/11 191/220/191 206/221/206
f 185/232/185 184/224/184 199/225/199 200/233/200
f 178/234/178 177/228/177 192/229/192 193/235/193
f 186/236/186 185/232/185 200/233/200 201/237/201
f 179/238/179 178/234/178 193/235/193 194/239/194
f 187/240/187 186/236/186 201/237/201 202/241/202
f 180/242/180 179/238/179 194/239/194 195/243/195
f 188/244/188 187/240/187 202/241/202 203/245/203
f 181/246/181 180/242/180 195/243/195 196/247/196
f 189/248/189 188/244/188 203/245/203 204/249/204
f 182/250/182 181/246/181 196/247/196 197/251/197
f 190/223/190 189/248/189 204/249/204 205/222/205
f 183/227/183 182/250/182 197/251/197 198/226/198
f 203/245/203 202/241/202 217/253/217 218/252/218
f 196/247/196 195/243/195 210/255/210 211/254/211
f 204/249/204 203/245/203 218/252/218 219/256/219
f 197/251/197 196/247/196 211/254/211 212/257/212
f 205/222/205 204/249/204 219/256/219 220/258/220
f 198/226/198 197/251/197 212/257/212 213/259/213
f 206/221/206 205/222/205 220/258/220 221/260/221
f 199/225/199 198/226/198 213/259/213 214/261/214
f 192/229/192 1/263/1 207/262/207
f 11/264/11 206/221/206 221/260/221
f 200/233/200 199/225/199 214/261/214 215/265/215
f 193/235/193 192/229/192 207/262/207 208/266/208
f 201/237/201 200/233/200 215/265/215 216/267/216
f 194/239/194 193/235/193 208/266/208 209/268/209
f 202/241/202 201/237/201 216/267/216 217/253/217
f 195/243/195 194/239/194 209/268/209 210/255/210
f 207/262/207 1/270/1 222/269/222
f 11/271/11 221/260/221 236/272/236
f 215/265/215 214/261/214 229/274/229 230/273/230
f 208/266/208 207/262/207 222/269/222 223/275/223
f 216/267/216 215/265/215 230/273/230 231/276/231
f 209/268/209 208/266/208 223/275/223 224/277/224
f 217/253/217 216/267/216 231/276/231 232/278/232
f 210/255/210 209/268/209 224/277/224 225/279/225
f 218/252/218 217/253/217 232/278/232 233/280/233
f 211/254/211 210/255/210 225/279/225 226/281/226
f 219/256/219 218/252/218 233/280/233 234/282/234
f 212/257/212 211/254/211 226/281/226 227/283/227
f 220/258/220 219/256/219 234/282/234 235/284/235
f 213/259/213 212/257/212 227/283/227 228/285/228
f 221/260/221 220/258/220 235/284/235 236/272/236
f 214/261/214 213/259/213 228/285/228 229/274/229
f 226/281/226 225/279/225 3/13/3 239/17/239
f 234/282/234 233/280/233 242/15/242 8/19/8
f 227/283/227 226/281/226 239/17/239 4/21/4
f 235/284/235 234/282/234 8/19/8 9/23/9
f 228/285/228 227/283/227 4/21/4 5/25/5
f 236/272/236 235/284/235 9/23/9 10/27/10
f 229/274/229 228/285/228 5/25/5 240/29/240
f 222/269/222 1/286/1 2/4/2
f 11/287/11 236/272/236 10/27/10
f 230/273/230 229/274/229 240/29/240 6/8/6
f 223/275/223 222/269/222 2/4/2 237/1/237
f 231/276/231 230/273/230 6/8/6 241/5/241
f 224/277/224 223/275/223 237/1/237 238/9/238
f 232/278/232 231/276/231 241/5/241 7/11/7
f 225/279/225 224/277/224 238/9/238 3/13/3
f 233/280/233 232/278/232 7/11/7 242/15/242
