# Blender 5.2.0 LTS
# www.blender.org
mtllib katana.mtl
o Katana
v 0.000000 0.016233 0.073635
v 0.000000 0.002681 0.401480
v 0.010787 -0.104895 0.068628
v 0.010787 -0.118446 0.396473
v 0.027313 -0.077437 0.069763
v 0.027313 -0.090989 0.397608
v 0.031059 -0.035370 0.071502
v 0.031059 -0.048922 0.399347
v -0.010787 -0.104895 0.068628
v -0.010787 -0.118446 0.396473
v -0.027313 -0.077437 0.069763
v -0.027313 -0.090989 0.397608
v -0.031059 -0.035370 0.071502
v -0.031059 -0.048922 0.399347
v -0.020272 0.001623 0.073031
v -0.020272 -0.011929 0.400876
v 0.000000 -0.104895 0.068628
v 0.000000 -0.118446 0.396473
v 0.020272 0.001623 0.073031
v 0.020272 -0.011929 0.400876
v 0.000000 0.052665 0.402495
v 0.000000 0.050949 0.444011
v -0.040174 0.026372 0.401408
v -0.061550 -0.040206 0.398656
v -0.040174 0.024656 0.442925
v -0.061550 -0.041922 0.440173
v -0.054126 -0.117632 0.437043
v -0.021376 -0.167048 0.435001
v -0.054126 -0.115916 0.395527
v -0.021376 -0.165332 0.393484
v 0.040174 0.026372 0.401408
v 0.061550 -0.040206 0.398656
v 0.040174 0.024656 0.442925
v 0.061550 -0.041922 0.440173
v 0.054126 -0.117632 0.437043
v 0.021376 -0.167048 0.435001
v 0.000000 -0.165332 0.393484
v 0.000000 -0.167048 0.435001
v 0.054126 -0.115916 0.395527
v 0.021376 -0.165332 0.393484
v 0.000000 -0.105545 0.418261
v -0.013479 -0.056797 0.420276
v 0.000000 -0.108384 0.522233
v 0.013479 -0.056797 0.420276
v 0.013479 -0.013369 0.422071
v 0.013479 -0.059635 0.524248
v 0.013479 -0.061898 0.628244
v 0.013479 -0.016208 0.526043
v 0.013479 -0.018470 0.630040
v -0.013479 -0.016208 0.526043
v -0.013479 -0.013369 0.422071
v -0.013479 -0.018470 0.630040
v -0.013479 -0.059635 0.524248
v -0.013479 -0.061898 0.628244
v -0.013479 -0.063584 0.732264
v 0.000000 -0.110646 0.626229
v 0.000000 -0.112333 0.730249
v 0.013479 -0.063584 0.732264
v 0.000000 -0.113443 0.834293
v 0.000000 -0.113977 0.938360
v 0.013479 -0.064695 0.836308
v -0.013479 -0.064695 0.836308
v -0.013479 -0.065229 0.940375
v -0.013479 -0.021267 0.838103
v -0.013479 -0.021802 0.942170
v 0.013479 -0.021267 0.838103
v -0.013479 -0.020157 0.734059
v 0.013479 -0.020157 0.734059
v 0.013479 -0.021802 0.942170
v 0.013479 -0.021760 1.046262
v 0.013479 -0.065229 0.940375
v 0.013479 -0.065188 1.044467
v 0.013479 -0.064570 1.148582
v 0.000000 -0.113936 1.042452
v -0.013479 -0.065188 1.044467
v 0.000000 -0.113318 1.146567
v 0.000000 -0.112125 1.250706
v -0.013479 -0.064570 1.148582
v -0.013479 -0.063376 1.252721
v -0.013479 -0.021143 1.150377
v -0.013479 -0.021760 1.046262
v -0.013479 -0.019949 1.254516
v 0.013479 -0.021143 1.150377
v 0.013479 -0.019949 1.254516
v 0.013479 -0.018179 1.358678
v 0.013479 -0.063376 1.252721
v 0.013479 -0.061607 1.356883
v 0.013479 -0.059261 1.461070
v 0.000000 -0.110355 1.354868
v -0.013479 -0.061607 1.356883
v 0.000000 -0.108009 1.459055
v 0.000000 -0.105087 1.563265
v -0.013479 -0.059261 1.461070
v -0.013479 -0.056339 1.565280
v -0.013479 -0.015833 1.462865
v -0.013479 -0.012912 1.567075
v 0.013479 -0.015833 1.462865
v -0.013479 -0.018179 1.358678
v 0.013479 -0.012912 1.567075
v 0.013479 -0.009414 1.671309
v 0.013479 -0.056339 1.565280
v 0.013479 -0.052841 1.669514
v 0.013479 -0.048767 1.773772
v 0.000000 -0.101589 1.667499
v -0.013479 -0.052841 1.669514
v 0.000000 -0.097516 1.771757
v 0.000000 -0.092866 1.876039
v -0.013479 -0.048767 1.773772
v -0.013479 -0.044117 1.878054
v -0.013479 -0.005340 1.775567
v -0.013479 -0.009414 1.671309
v -0.013479 -0.000690 1.879849
v 0.013479 -0.005340 1.775567
v 0.013479 -0.000690 1.879849
v 0.013479 0.004536 1.984154
v 0.013479 -0.044117 1.878054
v 0.013479 -0.038892 1.982359
v 0.013479 -0.036063 2.034521
v 0.000000 -0.087640 1.980344
v -0.013479 -0.038892 1.982359
v 0.000000 -0.084811 2.032506
v 0.000000 0.011310 2.106158
v -0.013479 -0.036063 2.034521
v -0.013479 0.007365 2.036316
v -0.013479 0.004536 1.984154
v 0.013479 0.007365 2.036316
v -0.030460 -0.123324 0.423215
v -0.030460 0.001569 0.428377
v -0.030460 -0.124893 0.461167
v 0.000000 -0.123324 0.423215
v 0.030460 -0.123324 0.423215
v 0.000000 0.001569 0.428377
v 0.000000 -0.124893 0.461167
v 0.030460 -0.124893 0.461167
v 0.000000 0.000001 0.466329
v 0.030460 0.000001 0.466329
v -0.030460 0.000001 0.466329
v 0.030460 0.001569 0.428377
vn -0.0000 -0.9991 -0.0413
vn 0.8570 -0.5149 -0.0213
vn 0.9961 -0.0886 -0.0037
vn 0.5850 0.8103 0.0335
vn -0.8570 -0.5149 -0.0213
vn -0.9961 -0.0886 -0.0037
vn -0.0000 -0.0413 0.9991
vn -0.9601 0.2795 0.0116
vn -0.5850 0.8103 0.0335
vn 0.9601 0.2795 0.0116
vn -0.0000 0.0413 -0.9991
vn 0.8338 -0.5516 -0.0228
vn -0.5480 0.8358 0.0345
vn -0.9522 0.3052 0.0126
vn -0.9952 -0.0974 -0.0040
vn -0.8338 -0.5516 -0.0228
vn 0.9522 0.3052 0.0126
vn 0.5480 0.8358 0.0345
vn 0.9952 -0.0974 -0.0040
vn -0.9639 -0.2662 -0.0073
vn 0.9639 -0.2662 -0.0073
vn 1.0000 -0.0000 -0.0000
vn 0.9639 -0.2663 -0.0058
vn -0.0000 0.9996 0.0273
vn -0.0000 0.9998 0.0218
vn -1.0000 -0.0000 -0.0000
vn -0.9639 -0.2663 -0.0058
vn -0.9639 -0.2663 -0.0043
vn 0.9639 -0.2663 -0.0043
vn 0.9639 -0.2664 -0.0028
vn -0.9639 -0.2664 -0.0028
vn -0.9638 -0.2664 -0.0014
vn 0.9638 -0.2664 -0.0014
vn -0.0000 1.0000 0.0051
vn -0.0000 0.9999 0.0107
vn -0.0000 0.9999 0.0162
vn -0.0000 1.0000 -0.0004
vn 0.9638 -0.2665 0.0001
vn 0.9638 -0.2666 0.0016
vn -0.9638 -0.2666 0.0016
vn -0.9638 -0.2665 0.0001
vn -0.9638 -0.2666 0.0031
vn 0.9638 -0.2666 0.0031
vn -0.0000 1.0000 -0.0059
vn -0.0000 0.9999 -0.0115
vn -0.0000 0.9999 -0.0170
vn 0.9638 -0.2667 0.0045
vn 0.9638 -0.2667 0.0060
vn -0.9638 -0.2667 0.0045
vn -0.9638 -0.2667 0.0060
vn 0.9637 -0.2668 0.0075
vn -0.9637 -0.2668 0.0075
vn -0.0000 0.9996 -0.0280
vn -0.0000 0.9997 -0.0225
vn -0.0000 0.9994 -0.0335
vn 0.9637 -0.2668 0.0090
vn 0.9637 -0.2669 0.0104
vn -0.9637 -0.2668 0.0090
vn -0.9637 -0.2669 0.0104
vn -0.9636 -0.2669 0.0119
vn 0.9636 -0.2669 0.0119
vn -0.0000 0.9992 -0.0390
vn -0.0000 0.9990 -0.0445
vn -0.0000 0.9987 -0.0500
vn 0.9636 -0.2670 0.0134
vn 0.9636 -0.2670 0.0145
vn -0.9636 -0.2670 0.0134
vn -0.9636 -0.2670 0.0145
vn 0.9013 -0.2634 0.3438
vn -0.9013 -0.2634 0.3438
vn -0.9818 -0.0079 0.1899
vn -0.0000 0.9985 -0.0542
vn -0.0000 0.9984 -0.0564
vn 0.9818 -0.0079 0.1899
vn -0.0000 0.9991 0.0413
vt 0.111196 0.015530
vt 0.099218 0.260669
vt 0.099218 0.015530
vt 0.130901 0.015246
vt 0.112254 0.260599
vt 0.112254 0.015492
vt 0.154852 0.015253
vt 0.130901 0.260353
vt 0.201213 0.015512
vt 0.178703 0.260257
vt 0.178703 0.015246
vt 0.305106 0.260669
vt 0.293129 0.015530
vt 0.305106 0.015530
vt 0.291655 0.260212
vt 0.273008 0.014858
vt 0.291655 0.015105
vt 0.273008 0.259965
vt 0.249057 0.014866
vt 0.891133 0.980304
vt 0.882940 0.957793
vt 0.887036 0.946538
vt 0.249057 0.259973
vt 0.231010 0.015124
vt 0.223723 0.260257
vt 0.223723 0.015246
vt 0.935469 0.927465
vt 0.950867 0.945816
vt 0.172899 0.015512
vt 0.154852 0.260360
vt 0.926694 0.375834
vt 0.911296 0.357484
vt 0.911296 0.345506
vt 0.949714 0.306700
vt 0.910725 0.341188
vt 0.926123 0.310860
vt 0.713837 0.528248
vt 0.774349 0.555053
vt 0.760058 0.635072
vt 0.060797 0.642306
vt 0.029754 0.605940
vt 0.060797 0.605940
vt 0.060404 0.425991
vt 0.029855 0.381382
vt 0.029377 0.425991
vt 0.028613 0.464122
vt 0.059365 0.432267
vt 0.059651 0.464328
vt 0.654504 0.638088
vt 0.639012 0.558293
vt 0.699113 0.530581
vt 0.028327 0.507371
vt 0.059365 0.507578
vt 0.030186 0.551669
vt 0.061229 0.515303
vt 0.061229 0.551669
vt 0.030186 0.575405
vt 0.061229 0.575405
vt 0.030141 0.653270
vt 0.060892 0.685125
vt 0.029854 0.685332
vt 0.029754 0.582204
vt 0.060797 0.582204
vt 0.828007 0.469582
vt 0.907802 0.454090
vt 0.935514 0.514192
vt 0.060404 0.336772
vt 0.029377 0.336772
vt 0.061179 0.728375
vt 0.030141 0.728581
vt 0.827378 0.562944
vt 0.935984 0.521080
vt 0.906754 0.580459
vt 0.078217 0.804601
vt 0.046205 0.881222
vt 0.024599 0.860828
vt 0.991089 0.962708
vt 0.961155 0.962708
vt 0.976122 0.935371
vt 0.108202 0.965864
vt 0.185256 0.934907
vt 0.128298 0.987749
vt 0.092188 0.948127
vt 0.165160 0.913023
vt 0.961155 0.987062
vt 0.991089 0.987062
vt 0.242001 0.881830
vt 0.149146 0.895285
vt 0.221905 0.859946
vt 0.124117 0.858988
vt 0.089911 0.934888
vt 0.068868 0.913598
vt 0.179373 0.804370
vt 0.145160 0.880277
vt 0.099824 0.824995
vt 0.063721 0.897478
vt 0.153675 0.768983
vt 0.117340 0.841251
vt 0.132068 0.748589
vt 0.186151 0.692793
vt 0.207758 0.713187
vt 0.171190 0.785239
vt 0.298534 0.828518
vt 0.278438 0.806633
vt 0.354854 0.774970
vt 0.240467 0.637213
vt 0.295014 0.581849
vt 0.262073 0.657607
vt 0.334758 0.753086
vt 0.410962 0.721187
vt 0.316621 0.602243
vt 0.279589 0.673863
vt 0.225274 0.729444
vt 0.345188 0.640472
vt 0.310952 0.716401
vt 0.289909 0.695112
vt 0.255680 0.771034
vt 0.234637 0.749745
vt 0.200417 0.825659
vt 0.205891 0.842208
vt 0.262424 0.788896
vt 0.318744 0.735348
vt 0.390867 0.699303
vt 0.400474 0.585825
vt 0.366231 0.661761
vt 0.374852 0.681566
vt 0.446762 0.645285
vt 0.466858 0.667169
vt 0.430748 0.627548
vt 0.502445 0.591032
vt 0.522541 0.612916
vt 0.404807 0.471766
vt 0.371401 0.547094
vt 0.349795 0.526700
vt 0.460052 0.417049
vt 0.426414 0.492160
vt 0.578012 0.558427
vt 0.388917 0.563350
vt 0.481659 0.437443
vt 0.443930 0.508417
vt 0.455768 0.531170
vt 0.421517 0.607114
vt 0.511069 0.476508
vt 0.476811 0.552459
vt 0.486431 0.573294
vt 0.557916 0.536543
vt 0.541902 0.518806
vt 0.613174 0.481819
vt 0.566377 0.421838
vt 0.532112 0.497797
vt 0.633270 0.503703
vt 0.597160 0.464082
vt 0.668220 0.426860
vt 0.688316 0.448744
vt 0.515529 0.362547
vt 0.571239 0.308260
vt 0.537136 0.382941
vt 0.743149 0.393550
vt 0.627180 0.254189
vt 0.592845 0.328654
vt 0.648787 0.274584
vt 0.610361 0.344911
vt 0.554652 0.399197
vt 0.677017 0.312477
vt 0.642737 0.388451
vt 0.621694 0.367162
vt 0.587421 0.443128
vt 0.499174 0.453699
vt 0.652206 0.409122
vt 0.723054 0.371665
vt 0.707039 0.353928
vt 0.777675 0.316236
vt 0.732348 0.257786
vt 0.698061 0.333767
vt 0.797770 0.338120
vt 0.761660 0.298498
vt 0.832083 0.260571
vt 0.852179 0.282455
vt 0.683355 0.200334
vt 0.739761 0.146695
vt 0.704961 0.220728
vt 0.796400 0.093271
vt 0.761368 0.167089
vt 0.906375 0.226555
vt 0.722477 0.236985
vt 0.818007 0.113665
vt 0.778884 0.183345
vt 0.787687 0.203087
vt 0.753392 0.279075
vt 0.843033 0.148381
vt 0.808730 0.224376
vt 0.816069 0.242833
vt 0.886280 0.204670
vt 0.870265 0.186933
vt 0.940264 0.148535
vt 0.898386 0.093667
vt 0.864076 0.169670
vt 0.960359 0.170419
vt 0.987271 0.142263
vt 0.924249 0.130797
vt 0.967176 0.120379
vt 0.853271 0.040063
vt 0.881794 0.013539
vt 0.874878 0.060457
vt 0.989253 0.066855
vt 0.957222 0.012593
vt 0.903401 0.033933
vt 0.920917 0.050190
vt 0.892394 0.076713
vt 0.926066 0.066307
vt 0.919429 0.114956
vt 0.973647 0.040321
vt 0.947109 0.087597
vt 0.951162 0.102641
vt 0.835523 0.129921
vt 0.666303 0.290840
vt 0.334137 0.618499
vt 0.842980 0.992153
vt 0.876803 0.922113
vt 0.876803 0.992153
vt 0.213278 0.363337
vt 0.144644 0.334964
vt 0.213369 0.334964
vt 0.247437 0.363273
vt 0.213614 0.334895
vt 0.247437 0.334895
vt 0.281260 0.363273
vt 0.281260 0.334895
vt 0.809157 0.992153
vt 0.842980 0.922113
vt 0.395523 0.275926
vt 0.429346 0.205886
vt 0.429346 0.275926
vt 0.430987 0.275884
vt 0.464810 0.205844
vt 0.464810 0.275884
vt 0.386261 0.363648
vt 0.352438 0.335285
vt 0.386261 0.335285
vt 0.420084 0.363648
vt 0.420084 0.335285
vt 0.351541 0.363820
vt 0.282723 0.335446
vt 0.351449 0.335446
vt 0.111196 0.260669
vt 0.201213 0.260522
vt 0.293129 0.260669
vt 0.950867 0.969771
vt 0.935469 0.988121
vt 0.911878 0.992281
vt 0.231010 0.260231
vt 0.891133 0.935283
vt 0.911878 0.923305
vt 0.172899 0.260619
vt 0.979224 0.345506
vt 0.971031 0.368017
vt 0.950285 0.379994
vt 0.970460 0.318678
vt 0.978653 0.341188
vt 0.910725 0.329211
vt 0.715675 0.650486
vt 0.737571 0.527891
vt 0.783230 0.597382
vt 0.029754 0.642306
vt 0.060882 0.381382
vt 0.028327 0.432060
vt 0.699113 0.652833
vt 0.630768 0.600751
vt 0.675377 0.530581
vt 0.030186 0.515303
vt 0.061179 0.653063
vt 0.813262 0.514192
vt 0.865344 0.445846
vt 0.935514 0.490456
vt 0.864100 0.587621
vt 0.813771 0.517974
vt 0.935381 0.544809
vt 0.144552 0.363337
vt 0.213614 0.363273
vt 0.809157 0.922113
vt 0.395523 0.205886
vt 0.430987 0.205844
vt 0.352438 0.363648
vt 0.282815 0.363820
s 0
usemtl マテリアル
f 3/1/1 18/2/1 17/3/1
f 5/4/2 4/5/2 3/6/2
f 7/7/3 6/8/3 5/4/3
f 1/9/4 20/10/4 19/11/4
f 18/12/1 9/13/1 17/14/1
f 10/15/5 11/16/5 9/17/5
f 12/18/6 13/19/6 11/16/6
f 12/20/7 10/21/7 18/22/7
f 14/23/8 15/24/8 13/19/8
f 16/25/9 1/9/9 15/26/9
f 8/27/7 20/28/7 18/22/7
f 19/29/10 8/30/10 7/7/10
f 5/31/11 3/32/11 17/33/11
f 13/34/11 17/35/11 11/36/11
f 38/37/7 35/38/7 33/39/7
f 39/40/12 36/41/12 40/42/12
f 25/43/13 21/44/13 23/45/13
f 26/46/14 23/47/14 24/48/14
f 25/49/7 27/50/7 38/51/7
f 27/52/15 24/48/15 29/53/15
f 28/54/16 29/55/16 30/56/16
f 38/57/1 30/56/1 37/58/1
f 31/59/17 34/60/17 32/61/17
f 40/42/1 38/62/1 37/63/1
f 31/64/11 39/65/11 37/66/11
f 21/44/18 33/67/18 31/68/18
f 32/61/19 35/69/19 39/70/19
f 23/71/11 37/72/11 29/73/11
f 43/74/20 42/75/20 41/76/20
f 42/77/11 44/78/11 41/79/11
f 44/80/21 43/81/21 41/82/21
f 45/83/22 46/84/22 44/80/22
f 45/85/11 42/77/11 51/86/11
f 46/84/23 56/87/23 43/81/23
f 48/88/22 47/89/22 46/84/22
f 50/90/24 45/91/24 51/92/24
f 52/93/25 48/94/25 50/90/25
f 53/95/26 51/96/26 42/75/26
f 54/97/26 50/98/26 53/95/26
f 56/99/27 53/95/27 43/74/27
f 57/100/28 54/97/28 56/99/28
f 55/101/26 52/102/26 54/97/26
f 47/89/29 57/103/29 56/87/29
f 58/104/30 59/105/30 57/103/30
f 59/106/31 55/101/31 57/100/31
f 60/107/32 62/108/32 59/106/32
f 61/109/33 60/110/33 59/105/33
f 63/111/26 64/112/26 62/108/26
f 62/108/26 67/113/26 55/101/26
f 65/114/34 66/115/34 64/116/34
f 64/116/35 68/117/35 67/118/35
f 67/118/36 49/119/36 52/93/36
f 49/120/22 58/104/22 47/89/22
f 68/121/22 61/109/22 58/104/22
f 66/122/22 71/123/22 61/109/22
f 81/124/37 69/125/37 65/114/37
f 69/126/22 72/127/22 71/123/22
f 71/123/38 74/128/38 60/110/38
f 70/129/22 73/130/22 72/127/22
f 72/127/39 76/131/39 74/128/39
f 76/132/40 75/133/40 74/134/40
f 74/134/41 63/111/41 60/107/41
f 77/135/42 78/136/42 76/132/42
f 73/130/43 77/137/43 76/131/43
f 78/136/26 81/138/26 75/133/26
f 79/139/26 80/140/26 78/136/26
f 80/141/44 70/142/44 81/124/44
f 82/143/45 83/144/45 80/141/45
f 83/145/22 86/146/22 73/130/22
f 84/147/22 87/148/22 86/146/22
f 98/149/46 84/150/46 82/143/46
f 86/146/47 89/151/47 77/137/47
f 85/152/22 88/153/22 87/148/22
f 87/148/48 91/154/48 89/151/48
f 89/155/49 79/139/49 77/135/49
f 91/156/50 90/157/50 89/155/50
f 88/153/51 92/158/51 91/154/51
f 92/159/52 93/160/52 91/156/52
f 94/161/26 95/162/26 93/160/26
f 93/160/26 98/163/26 90/157/26
f 96/164/53 97/165/53 95/166/53
f 95/166/54 85/167/54 98/149/54
f 90/157/26 82/168/26 79/139/26
f 97/169/22 101/170/22 88/153/22
f 99/171/22 102/172/22 101/170/22
f 111/173/55 99/174/55 96/164/55
f 101/170/56 104/175/56 92/158/56
f 100/176/22 103/177/22 102/172/22
f 102/172/57 106/178/57 104/175/57
f 104/179/58 94/161/58 92/159/58
f 106/180/59 105/181/59 104/179/59
f 107/182/60 108/183/60 106/180/60
f 103/177/61 107/184/61 106/178/61
f 108/183/26 111/185/26 105/181/26
f 109/186/26 110/187/26 108/183/26
f 110/188/62 100/189/62 111/173/62
f 112/190/63 113/191/63 110/188/63
f 113/192/22 116/193/22 103/177/22
f 114/194/22 117/195/22 116/193/22
f 125/196/64 114/197/64 112/190/64
f 116/193/65 119/198/65 107/184/65
f 117/195/66 121/199/66 119/198/66
f 115/200/22 118/201/22 117/195/22
f 119/202/67 109/186/67 107/182/67
f 121/203/68 120/204/68 119/202/68
f 118/201/69 122/205/69 121/199/69
f 121/203/70 122/206/70 123/207/70
f 123/207/71 122/206/71 124/208/71
f 123/207/26 125/209/26 120/204/26
f 124/210/72 115/211/72 125/196/72
f 124/210/73 122/212/73 126/213/73
f 126/214/74 122/205/74 118/201/74
f 120/204/26 112/215/26 109/186/26
f 105/181/26 96/216/26 94/161/26
f 75/133/26 65/217/26 63/111/26
f 132/218/11 127/219/11 128/220/11
f 129/221/26 128/222/26 127/223/26
f 133/224/1 127/225/1 130/226/1
f 134/227/1 130/226/1 131/228/1
f 138/229/11 130/230/11 132/218/11
f 137/231/7 133/232/7 135/233/7
f 135/234/7 134/235/7 136/236/7
f 135/237/75 138/238/75 132/239/75
f 137/240/75 132/239/75 128/241/75
f 136/242/22 131/243/22 138/244/22
f 3/1/1 4/245/1 18/2/1
f 5/4/2 6/8/2 4/5/2
f 7/7/3 8/30/3 6/8/3
f 1/9/4 2/246/4 20/10/4
f 18/12/1 10/247/1 9/13/1
f 10/15/5 12/18/5 11/16/5
f 12/18/6 14/23/6 13/19/6
f 18/22/7 2/248/7 16/249/7
f 16/249/7 14/250/7 18/22/7
f 14/250/7 12/20/7 18/22/7
f 14/23/8 16/251/8 15/24/8
f 16/25/9 2/246/9 1/9/9
f 20/28/7 2/248/7 18/22/7
f 18/22/7 4/252/7 6/253/7
f 6/253/7 8/27/7 18/22/7
f 19/29/10 20/254/10 8/30/10
f 1/255/11 19/256/11 17/33/11
f 19/256/11 7/257/11 17/33/11
f 7/257/11 5/31/11 17/33/11
f 13/34/11 15/258/11 17/35/11
f 15/258/11 1/259/11 17/35/11
f 17/35/11 9/260/11 11/36/11
f 33/39/7 22/261/7 38/37/7
f 38/37/7 36/262/7 35/38/7
f 35/38/7 34/263/7 33/39/7
f 39/40/12 35/264/12 36/41/12
f 25/43/13 22/265/13 21/44/13
f 26/46/14 25/266/14 23/47/14
f 38/51/7 22/267/7 25/49/7
f 25/49/7 26/268/7 27/50/7
f 27/50/7 28/269/7 38/51/7
f 27/52/15 26/46/15 24/48/15
f 28/54/16 27/270/16 29/55/16
f 38/57/1 28/54/1 30/56/1
f 31/59/17 33/271/17 34/60/17
f 40/42/1 36/41/1 38/62/1
f 21/272/11 31/64/11 37/66/11
f 31/64/11 32/273/11 39/65/11
f 37/66/11 39/65/11 40/274/11
f 21/44/18 22/265/18 33/67/18
f 32/61/19 34/60/19 35/69/19
f 24/275/11 23/71/11 29/73/11
f 23/71/11 21/276/11 37/72/11
f 29/73/11 37/72/11 30/277/11
f 43/74/20 53/95/20 42/75/20
f 44/80/21 46/84/21 43/81/21
f 45/83/22 48/88/22 46/84/22
f 45/85/11 44/78/11 42/77/11
f 46/84/23 47/89/23 56/87/23
f 48/88/22 49/120/22 47/89/22
f 50/90/24 48/94/24 45/91/24
f 52/93/25 49/119/25 48/94/25
f 53/95/26 50/98/26 51/96/26
f 54/97/26 52/102/26 50/98/26
f 56/99/27 54/97/27 53/95/27
f 57/100/28 55/101/28 54/97/28
f 55/101/26 67/113/26 52/102/26
f 47/89/29 58/104/29 57/103/29
f 58/104/30 61/109/30 59/105/30
f 59/106/31 62/108/31 55/101/31
f 60/107/32 63/111/32 62/108/32
f 61/109/33 71/123/33 60/110/33
f 63/111/26 65/217/26 64/112/26
f 62/108/26 64/112/26 67/113/26
f 65/114/34 69/125/34 66/115/34
f 64/116/35 66/115/35 68/117/35
f 67/118/36 68/117/36 49/119/36
f 49/120/22 68/121/22 58/104/22
f 68/121/22 66/122/22 61/109/22
f 66/122/22 69/126/22 71/123/22
f 81/124/37 70/142/37 69/125/37
f 69/126/22 70/129/22 72/127/22
f 71/123/38 72/127/38 74/128/38
f 70/129/22 83/145/22 73/130/22
f 72/127/39 73/130/39 76/131/39
f 76/132/40 78/136/40 75/133/40
f 74/134/41 75/133/41 63/111/41
f 77/135/42 79/139/42 78/136/42
f 73/130/43 86/146/43 77/137/43
f 78/136/26 80/140/26 81/138/26
f 79/139/26 82/168/26 80/140/26
f 80/141/44 83/144/44 70/142/44
f 82/143/45 84/150/45 83/144/45
f 83/145/22 84/147/22 86/146/22
f 84/147/22 85/152/22 87/148/22
f 98/149/46 85/167/46 84/150/46
f 86/146/47 87/148/47 89/151/47
f 85/152/22 97/169/22 88/153/22
f 87/148/48 88/153/48 91/154/48
f 89/155/49 90/157/49 79/139/49
f 91/156/50 93/160/50 90/157/50
f 88/153/51 101/170/51 92/158/51
f 92/159/52 94/161/52 93/160/52
f 94/161/26 96/216/26 95/162/26
f 93/160/26 95/162/26 98/163/26
f 96/164/53 99/174/53 97/165/53
f 95/166/54 97/165/54 85/167/54
f 90/157/26 98/163/26 82/168/26
f 97/169/22 99/171/22 101/170/22
f 99/171/22 100/176/22 102/172/22
f 111/173/55 100/189/55 99/174/55
f 101/170/56 102/172/56 104/175/56
f 100/176/22 113/192/22 103/177/22
f 102/172/57 103/177/57 106/178/57
f 104/179/58 105/181/58 94/161/58
f 106/180/59 108/183/59 105/181/59
f 107/182/60 109/186/60 108/183/60
f 103/177/61 116/193/61 107/184/61
f 108/183/26 110/187/26 111/185/26
f 109/186/26 112/215/26 110/187/26
f 110/188/62 113/191/62 100/189/62
f 112/190/63 114/197/63 113/191/63
f 113/192/22 114/194/22 116/193/22
f 114/194/22 115/200/22 117/195/22
f 125/196/64 115/211/64 114/197/64
f 116/193/65 117/195/65 119/198/65
f 117/195/66 118/201/66 121/199/66
f 115/200/22 126/214/22 118/201/22
f 119/202/67 120/204/67 109/186/67
f 121/203/68 123/207/68 120/204/68
f 123/207/26 124/208/26 125/209/26
f 124/210/72 126/213/72 115/211/72
f 120/204/26 125/209/26 112/215/26
f 105/181/26 111/185/26 96/216/26
f 75/133/26 81/138/26 65/217/26
f 132/218/11 130/230/11 127/219/11
f 129/221/26 137/278/26 128/222/26
f 133/224/1 129/279/1 127/225/1
f 134/227/1 133/224/1 130/226/1
f 138/229/11 131/280/11 130/230/11
f 137/231/7 129/281/7 133/232/7
f 135/234/7 133/282/7 134/235/7
f 135/237/75 136/283/75 138/238/75
f 137/240/75 135/237/75 132/239/75
f 136/242/22 134/284/22 131/243/22
