# Blender 5.2.2 LTS
# www.blender.org
mtllib explosionRing.mtl
o ベジエ円
v -0.395349 0.000000 0.000000
v -0.500000 -0.000000 -0.025000
v -0.500000 0.000000 0.025000
v -0.391731 0.053747 -0.000000
v -0.495438 0.067773 -0.025000
v -0.495438 0.067773 0.025000
v -0.381220 0.105144 -0.000000
v -0.482135 0.132859 -0.025000
v -0.482135 0.132859 0.025000
v -0.364289 0.153857 -0.000000
v -0.460687 0.194591 -0.025000
v -0.460687 0.194591 0.025000
v -0.341390 0.199471 -0.000000
v -0.431702 0.252345 -0.025000
v -0.431702 0.252345 0.025000
v -0.312978 0.241524 -0.000000
v -0.395783 0.305518 -0.025000
v -0.395782 0.305518 0.025000
v -0.279526 0.279526 -0.000000
v -0.353526 0.353526 -0.025000
v -0.353526 0.353525 0.025000
v -0.241524 0.312978 -0.000000
v -0.305518 0.395782 -0.025000
v -0.305518 0.395782 0.025000
v -0.199471 0.341390 -0.000000
v -0.252345 0.431702 -0.025000
v -0.252345 0.431702 0.025000
v -0.153857 0.364289 -0.000000
v -0.194591 0.460687 -0.025000
v -0.194591 0.460687 0.025000
v -0.105144 0.381220 -0.000000
v -0.132859 0.482135 -0.025000
v -0.132859 0.482135 0.025000
v -0.053747 0.391731 -0.000000
v -0.067773 0.495438 -0.025000
v -0.067773 0.495438 0.025000
v 0.000000 0.395349 -0.000000
v 0.000000 0.500000 -0.025000
v 0.000000 0.500000 0.025000
v 0.053747 0.391731 -0.000000
v 0.067773 0.495438 -0.025000
v 0.067773 0.495438 0.025000
v 0.105144 0.381220 -0.000000
v 0.132859 0.482135 -0.025000
v 0.132859 0.482135 0.025000
v 0.153857 0.364289 -0.000000
v 0.194591 0.460687 -0.025000
v 0.194591 0.460687 0.025000
v 0.199471 0.341390 -0.000000
v 0.252345 0.431702 -0.025000
v 0.252345 0.431702 0.025000
v 0.241524 0.312978 -0.000000
v 0.305518 0.395783 -0.025000
v 0.305518 0.395782 0.025000
v 0.279526 0.279526 -0.000000
v 0.353526 0.353526 -0.025000
v 0.353525 0.353526 0.025000
v 0.312978 0.241524 -0.000000
v 0.395782 0.305518 -0.025000
v 0.395782 0.305518 0.025000
v 0.341390 0.199471 -0.000000
v 0.431702 0.252345 -0.025000
v 0.431702 0.252344 0.025000
v 0.364289 0.153857 -0.000000
v 0.460687 0.194591 -0.025000
v 0.460687 0.194591 0.025000
v 0.381220 0.105144 -0.000000
v 0.482135 0.132859 -0.025000
v 0.482135 0.132859 0.025000
v 0.391731 0.053747 -0.000000
v 0.495438 0.067773 -0.025000
v 0.495438 0.067773 0.025000
v 0.395349 0.000000 0.000000
v 0.500000 -0.000000 -0.025000
v 0.500000 0.000000 0.025000
v 0.391731 -0.053747 0.000000
v 0.495438 -0.067773 -0.025000
v 0.495438 -0.067773 0.025000
v 0.381220 -0.105144 0.000000
v 0.482135 -0.132859 -0.025000
v 0.482135 -0.132859 0.025000
v 0.364289 -0.153857 0.000000
v 0.460687 -0.194591 -0.025000
v 0.460687 -0.194591 0.025000
v 0.341390 -0.199471 0.000000
v 0.431702 -0.252345 -0.025000
v 0.431702 -0.252345 0.025000
v 0.312978 -0.241524 0.000000
v 0.395783 -0.305518 -0.025000
v 0.395782 -0.305518 0.025000
v 0.279526 -0.279526 0.000000
v 0.353526 -0.353526 -0.025000
v 0.353526 -0.353525 0.025000
v 0.241524 -0.312978 0.000000
v 0.305518 -0.395782 -0.025000
v 0.305518 -0.395782 0.025000
v 0.199471 -0.341390 0.000000
v 0.252345 -0.431702 -0.025000
v 0.252344 -0.431702 0.025000
v 0.153857 -0.364289 0.000000
v 0.194591 -0.460687 -0.025000
v 0.194591 -0.460687 0.025000
v 0.105144 -0.381220 0.000000
v 0.132859 -0.482135 -0.025000
v 0.132859 -0.482135 0.025000
v 0.053747 -0.391731 0.000000
v 0.067773 -0.495438 -0.025000
v 0.067773 -0.495438 0.025000
v 0.000000 -0.395349 0.000000
v 0.000000 -0.500000 -0.025000
v 0.000000 -0.500000 0.025000
v -0.053747 -0.391731 0.000000
v -0.067773 -0.495438 -0.025000
v -0.067773 -0.495438 0.025000
v -0.105144 -0.381220 0.000000
v -0.132859 -0.482135 -0.025000
v -0.132859 -0.482135 0.025000
v -0.153857 -0.364289 0.000000
v -0.194591 -0.460687 -0.025000
v -0.194591 -0.460687 0.025000
v -0.199471 -0.341390 0.000000
v -0.252345 -0.431702 -0.025000
v -0.252345 -0.431702 0.025000
v -0.241524 -0.312978 0.000000
v -0.305518 -0.395783 -0.025000
v -0.305518 -0.395782 0.025000
v -0.279526 -0.279526 0.000000
v -0.353526 -0.353526 -0.025000
v -0.353525 -0.353526 0.025000
v -0.312978 -0.241524 0.000000
v -0.395782 -0.305518 -0.025000
v -0.395782 -0.305518 0.025000
v -0.341390 -0.199471 0.000000
v -0.431702 -0.252345 -0.025000
v -0.431702 -0.252344 0.025000
v -0.364289 -0.153857 0.000000
v -0.460687 -0.194591 -0.025000
v -0.460687 -0.194591 0.025000
v -0.381220 -0.105144 0.000000
v -0.482135 -0.132859 -0.025000
v -0.482135 -0.132859 0.025000
v -0.391731 -0.053747 0.000000
v -0.495438 -0.067773 -0.025000
v -0.495438 -0.067773 0.025000
vn 0.2324 -0.0000 -0.9726
vn 0.2302 -0.0311 -0.9726
vn -1.0000 -0.0000 -0.0000
vn -0.9910 0.1340 -0.0000
vn 0.2324 -0.0000 0.9726
vn 0.2302 -0.0311 0.9726
vn 0.2303 -0.0311 0.9726
vn 0.2241 -0.0615 -0.9726
vn 0.2240 -0.0615 -0.9726
vn -0.9643 0.2648 -0.0000
vn 0.2241 -0.0615 0.9726
vn 0.2140 -0.0904 -0.9726
vn 0.2140 -0.0905 -0.9726
vn -0.9212 0.3892 -0.0000
vn 0.2240 -0.0615 0.9726
vn 0.2140 -0.0904 0.9726
vn 0.2005 -0.1174 -0.9726
vn -0.8630 0.5052 -0.0000
vn 0.2140 -0.0905 0.9726
vn 0.2005 -0.1174 0.9726
vn 0.1838 -0.1421 -0.9726
vn -0.7913 0.6115 -0.0000
vn 0.1838 -0.1421 0.9726
vn 0.1643 -0.1643 -0.9726
vn -0.7071 0.7071 -0.0000
vn 0.1643 -0.1643 0.9726
vn 0.1421 -0.1838 -0.9726
vn -0.6115 0.7913 -0.0000
vn 0.1421 -0.1838 0.9726
vn 0.1421 -0.1839 -0.9726
vn 0.1174 -0.2005 -0.9726
vn -0.5052 0.8630 -0.0000
vn 0.1174 -0.2005 0.9726
vn 0.0905 -0.2140 -0.9726
vn -0.3892 0.9212 -0.0000
vn 0.0905 -0.2140 0.9726
vn 0.0904 -0.2140 0.9726
vn 0.0904 -0.2140 -0.9726
vn 0.0615 -0.2240 -0.9726
vn -0.2648 0.9643 -0.0000
vn 0.0615 -0.2240 0.9726
vn 0.0615 -0.2241 0.9726
vn 0.0615 -0.2241 -0.9726
vn 0.0311 -0.2302 -0.9726
vn -0.1340 0.9910 -0.0000
vn 0.0311 -0.2302 0.9726
vn 0.0311 -0.2303 0.9726
vn 0.0311 -0.2303 -0.9726
vn -0.0000 -0.2324 -0.9726
vn -0.0000 1.0000 -0.0000
vn -0.0000 -0.2324 0.9726
vn -0.0311 -0.2302 -0.9726
vn 0.1340 0.9910 -0.0000
vn -0.0311 -0.2302 0.9726
vn -0.0311 -0.2303 0.9726
vn -0.0615 -0.2241 -0.9726
vn -0.0615 -0.2240 -0.9726
vn 0.2648 0.9643 -0.0000
vn -0.0615 -0.2241 0.9726
vn -0.0904 -0.2140 -0.9726
vn -0.0905 -0.2140 -0.9726
vn 0.3892 0.9212 -0.0000
vn -0.0615 -0.2240 0.9726
vn -0.0904 -0.2140 0.9726
vn -0.1174 -0.2005 -0.9726
vn 0.5052 0.8630 -0.0000
vn -0.0905 -0.2140 0.9726
vn -0.1174 -0.2005 0.9726
vn -0.1421 -0.1838 -0.9726
vn 0.6115 0.7913 -0.0000
vn -0.1421 -0.1838 0.9726
vn -0.1643 -0.1643 -0.9726
vn 0.7071 0.7071 -0.0000
vn -0.1643 -0.1643 0.9726
vn -0.1838 -0.1421 -0.9726
vn 0.7913 0.6115 -0.0000
vn -0.1838 -0.1421 0.9726
vn -0.1839 -0.1421 0.9726
vn -0.1839 -0.1421 -0.9726
vn -0.2005 -0.1174 -0.9726
vn 0.8630 0.5052 -0.0000
vn -0.2005 -0.1174 0.9726
vn -0.2140 -0.0905 -0.9726
vn 0.9212 0.3892 -0.0000
vn -0.2140 -0.0905 0.9726
vn -0.2140 -0.0904 0.9726
vn -0.2140 -0.0904 -0.9726
vn -0.2240 -0.0615 -0.9726
vn 0.9643 0.2648 -0.0000
vn -0.2240 -0.0615 0.9726
vn -0.2241 -0.0615 0.9726
vn -0.2241 -0.0615 -0.9726
vn -0.2302 -0.0311 -0.9726
vn 0.9910 0.1340 -0.0000
vn -0.2302 -0.0311 0.9726
vn -0.2303 -0.0311 0.9726
vn -0.2303 -0.0311 -0.9726
vn -0.2324 -0.0000 -0.9726
vn 1.0000 -0.0000 -0.0000
vn -0.2324 -0.0000 0.9726
vn -0.2302 0.0311 -0.9726
vn 0.9910 -0.1340 -0.0000
vn -0.2302 0.0311 0.9726
vn -0.2303 0.0311 0.9726
vn -0.2241 0.0615 -0.9726
vn -0.2240 0.0615 -0.9726
vn 0.9643 -0.2648 -0.0000
vn -0.2241 0.0615 0.9726
vn -0.2140 0.0904 -0.9726
vn -0.2140 0.0905 -0.9726
vn 0.9212 -0.3892 -0.0000
vn -0.2240 0.0615 0.9726
vn -0.2140 0.0904 0.9726
vn -0.2005 0.1174 -0.9726
vn 0.8630 -0.5052 -0.0000
vn -0.2140 0.0905 0.9726
vn -0.2005 0.1174 0.9726
vn -0.1838 0.1421 -0.9726
vn 0.7913 -0.6115 -0.0000
vn -0.1838 0.1421 0.9726
vn -0.1643 0.1643 -0.9726
vn 0.7071 -0.7071 -0.0000
vn -0.1643 0.1643 0.9726
vn -0.1421 0.1838 -0.9726
vn 0.6115 -0.7913 -0.0000
vn -0.1421 0.1838 0.9726
vn -0.1421 0.1839 0.9726
vn -0.1421 0.1839 -0.9726
vn -0.1174 0.2005 -0.9726
vn 0.5052 -0.8630 -0.0000
vn -0.1174 0.2005 0.9726
vn -0.0905 0.2140 -0.9726
vn 0.3892 -0.9212 -0.0000
vn -0.0905 0.2140 0.9726
vn -0.0904 0.2140 0.9726
vn -0.0904 0.2140 -0.9726
vn -0.0615 0.2240 -0.9726
vn 0.2648 -0.9643 -0.0000
vn -0.0615 0.2240 0.9726
vn -0.0615 0.2241 0.9726
vn -0.0615 0.2241 -0.9726
vn -0.0311 0.2302 -0.9726
vn 0.1340 -0.9910 -0.0000
vn -0.0311 0.2302 0.9726
vn -0.0311 0.2303 0.9726
vn -0.0311 0.2303 -0.9726
vn -0.0000 0.2324 -0.9726
vn -0.0000 -1.0000 -0.0000
vn -0.0000 0.2324 0.9726
vn 0.0311 0.2302 -0.9726
vn -0.1340 -0.9910 -0.0000
vn 0.0311 0.2302 0.9726
vn 0.0311 0.2303 0.9726
vn 0.0615 0.2241 -0.9726
vn 0.0615 0.2240 -0.9726
vn -0.2648 -0.9643 -0.0000
vn 0.0615 0.2241 0.9726
vn 0.0904 0.2140 -0.9726
vn 0.0905 0.2140 -0.9726
vn -0.3892 -0.9212 -0.0000
vn 0.0615 0.2240 0.9726
vn 0.0904 0.2140 0.9726
vn 0.1174 0.2005 -0.9726
vn -0.5052 -0.8630 -0.0000
vn 0.0905 0.2140 0.9726
vn 0.1174 0.2005 0.9726
vn 0.1421 0.1838 -0.9726
vn -0.6115 -0.7913 -0.0000
vn 0.1421 0.1838 0.9726
vn 0.1643 0.1643 -0.9726
vn -0.7071 -0.7071 -0.0000
vn 0.1643 0.1643 0.9726
vn 0.1838 0.1421 -0.9726
vn -0.7913 -0.6115 -0.0000
vn 0.1838 0.1421 0.9726
vn 0.1839 0.1421 0.9726
vn 0.1839 0.1421 -0.9726
vn 0.2005 0.1174 -0.9726
vn -0.8630 -0.5052 -0.0000
vn 0.2005 0.1174 0.9726
vn 0.2140 0.0905 -0.9726
vn -0.9212 -0.3892 -0.0000
vn 0.2140 0.0905 0.9726
vn 0.2140 0.0904 0.9726
vn 0.2140 0.0904 -0.9726
vn 0.2240 0.0615 -0.9726
vn -0.9643 -0.2648 -0.0000
vn 0.2240 0.0615 0.9726
vn 0.2241 0.0615 0.9726
vn 0.2241 0.0615 -0.9726
vn 0.2302 0.0311 -0.9726
vn -0.9910 -0.1340 -0.0000
vn 0.2302 0.0311 0.9726
vn 0.2303 0.0311 0.9726
vn 0.2303 -0.0311 -0.9726
vn -0.0311 -0.2303 -0.9726
vn -0.2303 0.0311 -0.9726
vn 0.0311 0.2303 -0.9726
vn 0.2303 0.0311 -0.9726
vt 0.101833 0.047261
vt 0.158568 0.083458
vt 0.136046 0.096344
vt 0.558000 0.633483
vt 0.498349 0.667013
vt 0.498349 0.633483
vt 0.725822 0.001035
vt 0.702105 0.067051
vt 0.690028 0.006194
vt 0.163237 0.014992
vt 0.183441 0.073528
vt 0.558000 0.667013
vt 0.498349 0.699806
vt 0.656713 0.016032
vt 0.196581 0.005687
vt 0.209153 0.066755
vt 0.558000 0.699806
vt 0.498349 0.732065
vt 0.676675 0.073534
vt 0.626316 0.029907
vt 0.230572 0.001119
vt 0.235303 0.063180
vt 0.558000 0.732065
vt 0.498349 0.763964
vt 0.653760 0.082991
vt 0.598974 0.047296
vt 0.264358 0.001175
vt 0.261137 0.062833
vt 0.558000 0.763964
vt 0.498349 0.795639
vt 0.633241 0.095236
vt 0.574713 0.067800
vt 0.297276 0.005606
vt 0.285856 0.065688
vt 0.558000 0.795639
vt 0.498349 0.827210
vt 0.615103 0.110121
vt 0.553557 0.091128
vt 0.309770 0.071681
vt 0.558000 0.858780
vt 0.498349 0.858780
vt 0.585546 0.147198
vt 0.535646 0.116926
vt 0.328905 0.014251
vt 0.332566 0.080750
vt 0.498349 0.890456
vt 0.574411 0.168492
vt 0.521109 0.144801
vt 0.358915 0.026821
vt 0.354013 0.092794
vt 0.557541 0.890456
vt 0.617192 0.858558
vt 0.617192 0.890456
vt 0.565998 0.191197
vt 0.510126 0.174445
vt 0.387016 0.043140
vt 0.373820 0.107693
vt 0.557541 0.858558
vt 0.617192 0.826299
vt 0.560464 0.215085
vt 0.502891 0.205562
vt 0.412889 0.063073
vt 0.391722 0.125365
vt 0.557541 0.826299
vt 0.617192 0.793506
vt 0.557968 0.239965
vt 0.499607 0.237859
vt 0.436184 0.086499
vt 0.407471 0.145780
vt 0.557541 0.793506
vt 0.617192 0.759975
vt 0.500483 0.271039
vt 0.456531 0.113285
vt 0.420331 0.168083
vt 0.557541 0.759975
vt 0.617192 0.726445
vt 0.562678 0.291182
vt 0.505557 0.303852
vt 0.485386 0.172770
vt 0.429762 0.191291
vt 0.557541 0.726445
vt 0.617192 0.693652
vt 0.514552 0.335110
vt 0.493484 0.203921
vt 0.435955 0.215111
vt 0.557541 0.661393
vt 0.617192 0.661393
vt 0.569782 0.315315
vt 0.527218 0.364608
vt 0.497478 0.235474
vt 0.438985 0.239283
vt 0.617192 0.629495
vt 0.579685 0.338019
vt 0.543310 0.392083
vt 0.497478 0.267038
vt 0.438912 0.263526
vt 0.557541 0.629495
vt 0.617192 0.597819
vt 0.592188 0.359134
vt 0.562589 0.417269
vt 0.493604 0.298248
vt 0.435897 0.287546
vt 0.557541 0.597819
vt 0.617192 0.566248
vt 0.607091 0.378462
vt 0.584829 0.439875
vt 0.430080 0.311037
vt 0.557541 0.534678
vt 0.617192 0.534678
vt 0.643261 0.410855
vt 0.609773 0.459548
vt 0.485952 0.328707
vt 0.421445 0.333692
vt 0.617192 0.503002
vt 0.664151 0.423414
vt 0.637116 0.475985
vt 0.474636 0.358033
vt 0.410062 0.355216
vt 0.676384 0.503002
vt 0.616733 0.534900
vt 0.616733 0.503002
vt 0.686610 0.433243
vt 0.666568 0.488888
vt 0.459743 0.385886
vt 0.395984 0.375335
vt 0.676384 0.534900
vt 0.616733 0.567160
vt 0.710412 0.440137
vt 0.697822 0.497962
vt 0.441341 0.411920
vt 0.379233 0.393787
vt 0.676384 0.567160
vt 0.616733 0.599952
vt 0.735354 0.443885
vt 0.730555 0.502912
vt 0.419488 0.435777
vt 0.359706 0.410249
vt 0.676384 0.599952
vt 0.616733 0.633483
vt 0.764459 0.503458
vt 0.394193 0.457119
vt 0.338311 0.424068
vt 0.676384 0.633483
vt 0.616733 0.667013
vt 0.787005 0.441046
vt 0.798152 0.499320
vt 0.337083 0.488500
vt 0.315915 0.434597
vt 0.676384 0.667013
vt 0.616733 0.699806
vt 0.830270 0.490902
vt 0.306857 0.498141
vt 0.292798 0.441989
vt 0.676384 0.732065
vt 0.616733 0.732065
vt 0.811421 0.434572
vt 0.860533 0.478478
vt 0.275976 0.503806
vt 0.269205 0.446285
vt 0.616733 0.763963
vt 0.834377 0.425068
vt 0.888627 0.462348
vt 0.244784 0.505519
vt 0.245408 0.447503
vt 0.676384 0.763963
vt 0.616733 0.795639
vt 0.855678 0.412755
vt 0.914246 0.442816
vt 0.213626 0.503286
vt 0.221705 0.445651
vt 0.676384 0.795639
vt 0.616733 0.827210
vt 0.875104 0.397859
vt 0.937090 0.420185
vt 0.198399 0.440814
vt 0.676384 0.858780
vt 0.616733 0.858780
vt 0.907439 0.361333
vt 0.956819 0.394773
vt 0.182898 0.497069
vt 0.175824 0.432928
vt 0.616733 0.890456
vt 0.919884 0.340217
vt 0.973147 0.366958
vt 0.153000 0.486897
vt 0.154306 0.421999
vt 0.735575 0.503002
vt 0.675925 0.534900
vt 0.675925 0.503002
vt 0.929539 0.317536
vt 0.985799 0.337070
vt 0.124310 0.472746
vt 0.134164 0.408012
vt 0.735575 0.534900
vt 0.675925 0.567160
vt 0.936203 0.293535
vt 0.994497 0.305451
vt 0.097233 0.454566
vt 0.115709 0.390912
vt 0.735575 0.567160
vt 0.675925 0.599952
vt 0.939678 0.268432
vt 0.998971 0.272462
vt 0.072218 0.432292
vt 0.099312 0.370518
vt 0.735575 0.599952
vt 0.675925 0.633483
vt 0.998971 0.238490
vt 0.049727 0.405876
vt 0.085679 0.347656
vt 0.735575 0.633483
vt 0.675925 0.667013
vt 0.936357 0.216602
vt 0.994433 0.204902
vt 0.016508 0.344120
vt 0.075553 0.323247
vt 0.735575 0.667013
vt 0.675925 0.699806
vt 0.985685 0.172987
vt 0.006751 0.310542
vt 0.068734 0.297436
vt 0.735575 0.732065
vt 0.675925 0.732065
vt 0.929639 0.192182
vt 0.973069 0.143017
vt 0.001683 0.276059
vt 0.065015 0.270221
vt 0.675925 0.763964
vt 0.919936 0.169265
vt 0.956950 0.115246
vt 0.001101 0.241695
vt 0.063752 0.241385
vt 0.735575 0.763964
vt 0.675925 0.795639
vt 0.907493 0.148101
vt 0.937647 0.089847
vt 0.004311 0.208931
vt 0.064577 0.217052
vt 0.735575 0.795639
vt 0.675925 0.827210
vt 0.892828 0.129925
vt 0.914995 0.066706
vt 0.068669 0.193519
vt 0.735575 0.858780
vt 0.675925 0.858780
vt 0.854907 0.096978
vt 0.889297 0.046271
vt 0.011396 0.177784
vt 0.075955 0.171043
vt 0.675925 0.890456
vt 0.832897 0.084084
vt 0.860816 0.029030
vt 0.022051 0.148162
vt 0.086342 0.149797
vt 0.558000 0.503002
vt 0.498349 0.534900
vt 0.498349 0.503002
vt 0.809244 0.074023
vt 0.829859 0.015450
vt 0.036265 0.120083
vt 0.099773 0.130048
vt 0.558000 0.534900
vt 0.498349 0.567160
vt 0.784180 0.067064
vt 0.796781 0.005975
vt 0.054160 0.093697
vt 0.116276 0.112077
vt 0.558000 0.567160
vt 0.498349 0.599952
vt 0.757941 0.063476
vt 0.761971 0.001035
vt 0.558000 0.599952
vt 0.730458 0.063542
vt 0.131400 0.028930
vt 0.558000 0.827210
vt 0.599174 0.127655
vt 0.558000 0.890456
vt 0.558686 0.265697
vt 0.473097 0.142429
vt 0.557541 0.693652
vt 0.557541 0.566248
vt 0.624178 0.395777
vt 0.557541 0.503002
vt 0.761260 0.444173
vt 0.366305 0.474849
vt 0.676384 0.699806
vt 0.676384 0.827210
vt 0.892416 0.380619
vt 0.676384 0.890456
vt 0.939756 0.242404
vt 0.030887 0.376052
vt 0.735575 0.699806
vt 0.735575 0.827210
vt 0.874931 0.112366
vt 0.735575 0.890456
vt 0.075939 0.069299
s 1
usemtl マテリアル
f 2/1/1 4/2/2 1/3/1
f 3/4/3 5/5/4 2/6/3
f 3/7/5 4/8/6 6/9/7
f 4/2/2 8/10/8 7/11/9
f 6/12/4 8/13/10 5/5/4
f 4/8/6 9/14/11 6/9/7
f 7/11/9 11/15/12 10/16/13
f 9/17/10 11/18/14 8/13/10
f 7/19/15 12/20/16 9/14/11
f 10/16/13 14/21/17 13/22/17
f 12/23/14 14/24/18 11/18/14
f 10/25/19 15/26/20 12/20/16
f 13/22/17 17/27/21 16/28/21
f 15/29/18 17/30/22 14/24/18
f 13/31/20 18/32/23 15/26/20
f 16/28/21 20/33/24 19/34/24
f 18/35/22 20/36/25 17/30/22
f 16/37/23 21/38/26 18/32/23
f 20/33/24 22/39/27 19/34/24
f 20/36/25 24/40/28 23/41/28
f 21/38/26 22/42/29 24/43/29
f 23/44/30 25/45/31 22/39/27
f 24/40/28 26/46/32 23/41/28
f 24/43/29 25/47/33 27/48/33
f 26/49/31 28/50/34 25/45/31
f 27/51/32 29/52/35 26/53/32
f 27/48/33 28/54/36 30/55/37
f 29/56/38 31/57/39 28/50/34
f 30/58/35 32/59/40 29/52/35
f 30/55/37 31/60/41 33/61/42
f 32/62/43 34/63/44 31/57/39
f 33/64/40 35/65/45 32/59/40
f 33/61/42 34/66/46 36/67/47
f 35/68/48 37/69/49 34/63/44
f 36/70/45 38/71/50 35/65/45
f 34/66/46 39/72/51 36/67/47
f 38/73/49 40/74/52 37/69/49
f 39/75/50 41/76/53 38/71/50
f 39/72/51 40/77/54 42/78/55
f 40/74/52 44/79/56 43/80/57
f 42/81/53 44/82/58 41/76/53
f 40/77/54 45/83/59 42/78/55
f 43/80/57 47/84/60 46/85/61
f 44/82/58 48/86/62 47/87/62
f 43/88/63 48/89/64 45/83/59
f 46/85/61 50/90/65 49/91/65
f 48/86/62 50/92/66 47/87/62
f 46/93/67 51/94/68 48/89/64
f 49/91/65 53/95/69 52/96/69
f 51/97/66 53/98/70 50/92/66
f 49/99/68 54/100/71 51/94/68
f 52/96/69 56/101/72 55/102/72
f 54/103/70 56/104/73 53/98/70
f 52/105/71 57/106/74 54/100/71
f 56/101/72 58/107/75 55/102/72
f 56/104/73 60/108/76 59/109/76
f 57/106/74 58/110/77 60/111/78
f 59/112/79 61/113/80 58/107/75
f 60/108/76 62/114/81 59/109/76
f 60/111/78 61/115/82 63/116/82
f 62/117/80 64/118/83 61/113/80
f 63/119/81 65/120/84 62/121/81
f 63/116/82 64/122/85 66/123/86
f 65/124/87 67/125/88 64/118/83
f 66/126/84 68/127/89 65/120/84
f 66/123/86 67/128/90 69/129/91
f 68/130/92 70/131/93 67/125/88
f 69/132/89 71/133/94 68/127/89
f 69/129/91 70/134/95 72/135/96
f 71/136/97 73/137/98 70/131/93
f 72/138/94 74/139/99 71/133/94
f 70/134/95 75/140/100 72/135/96
f 74/141/98 76/142/101 73/137/98
f 75/143/99 77/144/102 74/139/99
f 75/140/100 76/145/103 78/146/104
f 76/142/101 80/147/105 79/148/106
f 78/149/102 80/150/107 77/144/102
f 76/145/103 81/151/108 78/146/104
f 79/148/106 83/152/109 82/153/110
f 80/150/107 84/154/111 83/155/111
f 79/156/112 84/157/113 81/151/108
f 82/153/110 86/158/114 85/159/114
f 84/154/111 86/160/115 83/155/111
f 82/161/116 87/162/117 84/157/113
f 85/159/114 89/163/118 88/164/118
f 87/165/115 89/166/119 86/160/115
f 85/167/117 90/168/120 87/162/117
f 88/164/118 92/169/121 91/170/121
f 90/171/119 92/172/122 89/166/119
f 88/173/120 93/174/123 90/168/120
f 92/169/121 94/175/124 91/170/121
f 92/172/122 96/176/125 95/177/125
f 93/174/123 94/178/126 96/179/127
f 95/180/128 97/181/129 94/175/124
f 96/176/125 98/182/130 95/177/125
f 96/179/127 97/183/131 99/184/131
f 98/185/129 100/186/132 97/181/129
f 99/187/130 101/188/133 98/189/130
f 99/184/131 100/190/134 102/191/135
f 101/192/136 103/193/137 100/186/132
f 102/194/133 104/195/138 101/188/133
f 102/191/135 103/196/139 105/197/140
f 104/198/141 106/199/142 103/193/137
f 105/200/138 107/201/143 104/195/138
f 105/197/140 106/202/144 108/203/145
f 107/204/146 109/205/147 106/199/142
f 108/206/143 110/207/148 107/201/143
f 106/202/144 111/208/149 108/203/145
f 110/209/147 112/210/150 109/205/147
f 111/211/148 113/212/151 110/207/148
f 111/208/149 112/213/152 114/214/153
f 112/210/150 116/215/154 115/216/155
f 114/217/151 116/218/156 113/212/151
f 112/213/152 117/219/157 114/214/153
f 115/216/155 119/220/158 118/221/159
f 116/218/156 120/222/160 119/223/160
f 115/224/161 120/225/162 117/219/157
f 118/221/159 122/226/163 121/227/163
f 120/222/160 122/228/164 119/223/160
f 118/229/165 123/230/166 120/225/162
f 121/227/163 125/231/167 124/232/167
f 123/233/164 125/234/168 122/228/164
f 121/235/166 126/236/169 123/230/166
f 124/232/167 128/237/170 127/238/170
f 126/239/168 128/240/171 125/234/168
f 124/241/169 129/242/172 126/236/169
f 128/237/170 130/243/173 127/238/170
f 128/240/171 132/244/174 131/245/174
f 129/242/172 130/246/175 132/247/176
f 131/248/177 133/249/178 130/243/173
f 132/244/174 134/250/179 131/245/174
f 132/247/176 133/251/180 135/252/180
f 134/253/178 136/254/181 133/249/178
f 135/255/179 137/256/182 134/257/179
f 135/252/180 136/258/183 138/259/184
f 137/260/185 139/261/186 136/254/181
f 138/262/182 140/263/187 137/256/182
f 138/259/184 139/264/188 141/265/189
f 140/266/190 142/267/191 139/261/186
f 141/268/187 143/269/192 140/263/187
f 141/265/189 142/270/193 144/271/194
f 142/267/191 2/1/1 1/3/1
f 144/272/192 2/6/3 143/269/192
f 144/271/194 1/273/5 3/7/5
f 2/1/1 5/274/195 4/2/2
f 3/4/3 6/12/4 5/5/4
f 3/7/5 1/273/5 4/8/6
f 4/2/2 5/274/195 8/10/8
f 6/12/4 9/17/10 8/13/10
f 4/8/6 7/19/15 9/14/11
f 7/11/9 8/10/8 11/15/12
f 9/17/10 12/23/14 11/18/14
f 7/19/15 10/25/19 12/20/16
f 10/16/13 11/15/12 14/21/17
f 12/23/14 15/29/18 14/24/18
f 10/25/19 13/31/20 15/26/20
f 13/22/17 14/21/17 17/27/21
f 15/29/18 18/35/22 17/30/22
f 13/31/20 16/37/23 18/32/23
f 16/28/21 17/27/21 20/33/24
f 18/35/22 21/275/25 20/36/25
f 16/37/23 19/276/26 21/38/26
f 20/33/24 23/44/30 22/39/27
f 20/36/25 21/275/25 24/40/28
f 21/38/26 19/276/26 22/42/29
f 23/44/30 26/49/31 25/45/31
f 24/40/28 27/277/32 26/46/32
f 24/43/29 22/42/29 25/47/33
f 26/49/31 29/56/38 28/50/34
f 27/51/32 30/58/35 29/52/35
f 27/48/33 25/47/33 28/54/36
f 29/56/38 32/62/43 31/57/39
f 30/58/35 33/64/40 32/59/40
f 30/55/37 28/54/36 31/60/41
f 32/62/43 35/68/48 34/63/44
f 33/64/40 36/70/45 35/65/45
f 33/61/42 31/60/41 34/66/46
f 35/68/48 38/73/49 37/69/49
f 36/70/45 39/75/50 38/71/50
f 34/66/46 37/278/51 39/72/51
f 38/73/49 41/279/196 40/74/52
f 39/75/50 42/81/53 41/76/53
f 39/72/51 37/278/51 40/77/54
f 40/74/52 41/279/196 44/79/56
f 42/81/53 45/280/58 44/82/58
f 40/77/54 43/88/63 45/83/59
f 43/80/57 44/79/56 47/84/60
f 44/82/58 45/280/58 48/86/62
f 43/88/63 46/93/67 48/89/64
f 46/85/61 47/84/60 50/90/65
f 48/86/62 51/97/66 50/92/66
f 46/93/67 49/99/68 51/94/68
f 49/91/65 50/90/65 53/95/69
f 51/97/66 54/103/70 53/98/70
f 49/99/68 52/105/71 54/100/71
f 52/96/69 53/95/69 56/101/72
f 54/103/70 57/281/73 56/104/73
f 52/105/71 55/282/74 57/106/74
f 56/101/72 59/112/79 58/107/75
f 56/104/73 57/281/73 60/108/76
f 57/106/74 55/282/74 58/110/77
f 59/112/79 62/117/80 61/113/80
f 60/108/76 63/283/81 62/114/81
f 60/111/78 58/110/77 61/115/82
f 62/117/80 65/124/87 64/118/83
f 63/119/81 66/126/84 65/120/84
f 63/116/82 61/115/82 64/122/85
f 65/124/87 68/130/92 67/125/88
f 66/126/84 69/132/89 68/127/89
f 66/123/86 64/122/85 67/128/90
f 68/130/92 71/136/97 70/131/93
f 69/132/89 72/138/94 71/133/94
f 69/129/91 67/128/90 70/134/95
f 71/136/97 74/141/98 73/137/98
f 72/138/94 75/143/99 74/139/99
f 70/134/95 73/284/100 75/140/100
f 74/141/98 77/285/197 76/142/101
f 75/143/99 78/149/102 77/144/102
f 75/140/100 73/284/100 76/145/103
f 76/142/101 77/285/197 80/147/105
f 78/149/102 81/286/107 80/150/107
f 76/145/103 79/156/112 81/151/108
f 79/148/106 80/147/105 83/152/109
f 80/150/107 81/286/107 84/154/111
f 79/156/112 82/161/116 84/157/113
f 82/153/110 83/152/109 86/158/114
f 84/154/111 87/165/115 86/160/115
f 82/161/116 85/167/117 87/162/117
f 85/159/114 86/158/114 89/163/118
f 87/165/115 90/171/119 89/166/119
f 85/167/117 88/173/120 90/168/120
f 88/164/118 89/163/118 92/169/121
f 90/171/119 93/287/122 92/172/122
f 88/173/120 91/288/123 93/174/123
f 92/169/121 95/180/128 94/175/124
f 92/172/122 93/287/122 96/176/125
f 93/174/123 91/288/123 94/178/126
f 95/180/128 98/185/129 97/181/129
f 96/176/125 99/289/130 98/182/130
f 96/179/127 94/178/126 97/183/131
f 98/185/129 101/192/136 100/186/132
f 99/187/130 102/194/133 101/188/133
f 99/184/131 97/183/131 100/190/134
f 101/192/136 104/198/141 103/193/137
f 102/194/133 105/200/138 104/195/138
f 102/191/135 100/190/134 103/196/139
f 104/198/141 107/204/146 106/199/142
f 105/200/138 108/206/143 107/201/143
f 105/197/140 103/196/139 106/202/144
f 107/204/146 110/209/147 109/205/147
f 108/206/143 111/211/148 110/207/148
f 106/202/144 109/290/149 111/208/149
f 110/209/147 113/291/198 112/210/150
f 111/211/148 114/217/151 113/212/151
f 111/208/149 109/290/149 112/213/152
f 112/210/150 113/291/198 116/215/154
f 114/217/151 117/292/156 116/218/156
f 112/213/152 115/224/161 117/219/157
f 115/216/155 116/215/154 119/220/158
f 116/218/156 117/292/156 120/222/160
f 115/224/161 118/229/165 120/225/162
f 118/221/159 119/220/158 122/226/163
f 120/222/160 123/233/164 122/228/164
f 118/229/165 121/235/166 123/230/166
f 121/227/163 122/226/163 125/231/167
f 123/233/164 126/239/168 125/234/168
f 121/235/166 124/241/169 126/236/169
f 124/232/167 125/231/167 128/237/170
f 126/239/168 129/293/171 128/240/171
f 124/241/169 127/294/172 129/242/172
f 128/237/170 131/248/177 130/243/173
f 128/240/171 129/293/171 132/244/174
f 129/242/172 127/294/172 130/246/175
f 131/248/177 134/253/178 133/249/178
f 132/244/174 135/295/179 134/250/179
f 132/247/176 130/246/175 133/251/180
f 134/253/178 137/260/185 136/254/181
f 135/255/179 138/262/182 137/256/182
f 135/252/180 133/251/180 136/258/183
f 137/260/185 140/266/190 139/261/186
f 138/262/182 141/268/187 140/263/187
f 138/259/184 136/258/183 139/264/188
f 140/266/190 143/296/199 142/267/191
f 141/268/187 144/272/192 143/269/192
f 141/265/189 139/264/188 142/270/193
f 142/267/191 143/296/199 2/1/1
f 144/272/192 3/4/3 2/6/3
f 144/271/194 142/270/193 1/273/5
