# Blender 5.2.0 LTS
# www.blender.org
mtllib blockRounded.mtl
o Cube
v 0.375000 0.375000 -0.500000
v 0.375000 0.500000 -0.375000
v 0.500000 0.375000 -0.375000
v 0.375000 0.437418 -0.483301
v 0.437418 0.375000 -0.483301
v 0.434776 0.434776 -0.467079
v 0.437418 0.483301 -0.375000
v 0.375000 0.483301 -0.437418
v 0.434776 0.467079 -0.434776
v 0.483301 0.375000 -0.437418
v 0.483301 0.437418 -0.375000
v 0.467079 0.434776 -0.434776
v 0.375000 -0.500000 -0.375000
v 0.375000 -0.375000 -0.500000
v 0.500000 -0.375000 -0.375000
v 0.375000 -0.483301 -0.437418
v 0.437418 -0.483301 -0.375000
v 0.434776 -0.467079 -0.434776
v 0.437418 -0.375000 -0.483301
v 0.375000 -0.437418 -0.483301
v 0.434776 -0.434776 -0.467079
v 0.483301 -0.437418 -0.375000
v 0.483301 -0.375000 -0.437418
v 0.467079 -0.434776 -0.434776
v 0.500000 0.375000 0.375000
v 0.375000 0.500000 0.375000
v 0.375000 0.375000 0.500000
v 0.483301 0.437418 0.375000
v 0.483301 0.375000 0.437418
v 0.467079 0.434776 0.434776
v 0.375000 0.483301 0.437418
v 0.437418 0.483301 0.375000
v 0.434776 0.467079 0.434776
v 0.437418 0.375000 0.483301
v 0.375000 0.437418 0.483301
v 0.434776 0.434776 0.467079
v 0.500000 -0.375000 0.375000
v 0.375000 -0.375000 0.500000
v 0.375000 -0.500000 0.375000
v 0.483301 -0.375000 0.437418
v 0.483301 -0.437418 0.375000
v 0.467079 -0.434776 0.434776
v 0.375000 -0.437418 0.483301
v 0.437418 -0.375000 0.483301
v 0.434776 -0.434776 0.467079
v 0.437418 -0.483301 0.375000
v 0.375000 -0.483301 0.437418
v 0.434776 -0.467079 0.434776
v -0.375000 0.375000 -0.500000
v -0.500000 0.375000 -0.375000
v -0.375000 0.500000 -0.375000
v -0.437418 0.375000 -0.483301
v -0.375000 0.437418 -0.483301
v -0.434776 0.434776 -0.467079
v -0.483301 0.437418 -0.375000
v -0.483301 0.375000 -0.437418
v -0.467079 0.434776 -0.434776
v -0.375000 0.483301 -0.437418
v -0.437418 0.483301 -0.375000
v -0.434776 0.467079 -0.434776
v -0.500000 -0.375000 -0.375000
v -0.375000 -0.375000 -0.500000
v -0.375000 -0.500000 -0.375000
v -0.483301 -0.375000 -0.437418
v -0.483301 -0.437418 -0.375000
v -0.467079 -0.434776 -0.434776
v -0.375000 -0.437418 -0.483301
v -0.437418 -0.375000 -0.483301
v -0.434776 -0.434776 -0.467079
v -0.437418 -0.483301 -0.375000
v -0.375000 -0.483301 -0.437418
v -0.434776 -0.467079 -0.434776
v -0.500000 0.375000 0.375000
v -0.375000 0.375000 0.500000
v -0.375000 0.500000 0.375000
v -0.483301 0.375000 0.437418
v -0.483301 0.437418 0.375000
v -0.467079 0.434776 0.434776
v -0.375000 0.437418 0.483301
v -0.437418 0.375000 0.483301
v -0.434776 0.434776 0.467079
v -0.437418 0.483301 0.375000
v -0.375000 0.483301 0.437418
v -0.434776 0.467079 0.434776
v -0.375000 -0.500000 0.375000
v -0.375000 -0.375000 0.500000
v -0.500000 -0.375000 0.375000
v -0.375000 -0.483301 0.437418
v -0.437418 -0.483301 0.375000
v -0.434776 -0.467079 0.434776
v -0.437418 -0.375000 0.483301
v -0.375000 -0.437418 0.483301
v -0.434776 -0.434776 0.467079
v -0.483301 -0.437418 0.375000
v -0.483301 -0.375000 0.437418
v -0.467079 -0.434776 0.434776
vn 0.1216 0.4916 -0.8623
vn 0.4916 0.1216 -0.8623
vn 0.1280 0.1280 -0.9835
vn 0.1216 0.8623 -0.4916
vn 0.4488 0.4488 -0.7727
vn 0.4916 0.8623 -0.1216
vn 0.1280 0.9835 -0.1280
vn 0.8623 0.4916 -0.1216
vn 0.4488 0.7727 -0.4488
vn 0.8623 0.1216 -0.4916
vn 0.9835 0.1280 -0.1280
vn 0.7727 0.4488 -0.4488
vn 0.1216 -0.8623 -0.4916
vn 0.4916 -0.8623 -0.1216
vn 0.1280 -0.9835 -0.1280
vn 0.1216 -0.4916 -0.8623
vn 0.4488 -0.7727 -0.4488
vn 0.4916 -0.1216 -0.8623
vn 0.1280 -0.1280 -0.9835
vn 0.8623 -0.1216 -0.4916
vn 0.4488 -0.4488 -0.7727
vn 0.8623 -0.4916 -0.1216
vn 0.9835 -0.1280 -0.1280
vn 0.7727 -0.4488 -0.4488
vn 0.8623 0.4916 0.1216
vn 0.8623 0.1216 0.4916
vn 0.9835 0.1280 0.1280
vn 0.4916 0.8623 0.1216
vn 0.7727 0.4488 0.4488
vn 0.1216 0.8623 0.4916
vn 0.1280 0.9835 0.1280
vn 0.1216 0.4916 0.8623
vn 0.4488 0.7727 0.4488
vn 0.4916 0.1216 0.8623
vn 0.1280 0.1280 0.9835
vn 0.4488 0.4488 0.7727
vn 0.8623 -0.1216 0.4916
vn 0.8623 -0.4916 0.1216
vn 0.9835 -0.1280 0.1280
vn 0.4916 -0.1216 0.8623
vn 0.7727 -0.4488 0.4488
vn 0.1216 -0.4916 0.8623
vn 0.1280 -0.1280 0.9835
vn 0.1216 -0.8623 0.4916
vn 0.4488 -0.4488 0.7727
vn 0.4916 -0.8623 0.1216
vn 0.1280 -0.9835 0.1280
vn 0.4488 -0.7727 0.4488
vn -0.4916 0.1216 -0.8623
vn -0.1216 0.4916 -0.8623
vn -0.1280 0.1280 -0.9835
vn -0.8623 0.1216 -0.4916
vn -0.4488 0.4488 -0.7727
vn -0.8623 0.4916 -0.1216
vn -0.9835 0.1280 -0.1280
vn -0.4916 0.8623 -0.1216
vn -0.7727 0.4488 -0.4488
vn -0.1216 0.8623 -0.4916
vn -0.1280 0.9835 -0.1280
vn -0.4488 0.7727 -0.4488
vn -0.8623 -0.1216 -0.4916
vn -0.8623 -0.4916 -0.1216
vn -0.9835 -0.1280 -0.1280
vn -0.4916 -0.1216 -0.8623
vn -0.7727 -0.4488 -0.4488
vn -0.1216 -0.4916 -0.8623
vn -0.1280 -0.1280 -0.9835
vn -0.1216 -0.8623 -0.4916
vn -0.4488 -0.4488 -0.7727
vn -0.4916 -0.8623 -0.1216
vn -0.1280 -0.9835 -0.1280
vn -0.4488 -0.7727 -0.4488
vn -0.8623 0.1216 0.4916
vn -0.8623 0.4916 0.1216
vn -0.9835 0.1280 0.1280
vn -0.4916 0.1216 0.8623
vn -0.7727 0.4488 0.4488
vn -0.1216 0.4916 0.8623
vn -0.1280 0.1280 0.9835
vn -0.1216 0.8623 0.4916
vn -0.4488 0.4488 0.7727
vn -0.4916 0.8623 0.1216
vn -0.1280 0.9835 0.1280
vn -0.4488 0.7727 0.4488
vn -0.1216 -0.8623 0.4916
vn -0.4916 -0.8623 0.1216
vn -0.1280 -0.9835 0.1280
vn -0.1216 -0.4916 0.8623
vn -0.4488 -0.7727 0.4488
vn -0.4916 -0.1216 0.8623
vn -0.1280 -0.1280 0.9835
vn -0.8623 -0.1216 0.4916
vn -0.4488 -0.4488 0.7727
vn -0.8623 -0.4916 0.1216
vn -0.9835 -0.1280 0.1280
vn -0.7727 -0.4488 0.4488
vt 0.288990 0.370431
vt 0.310743 0.392184
vt 0.288990 0.392184
vt 0.288990 0.354441
vt 0.309823 0.371352
vt 0.365253 0.043602
vt 0.386117 0.021849
vt 0.384470 0.043602
vt 0.354441 0.043602
vt 0.367736 0.022769
vt 0.359315 0.675316
vt 0.338450 0.653563
vt 0.357668 0.653563
vt 0.321080 0.371352
vt 0.326734 0.392184
vt 0.309823 0.360094
vt 0.953876 0.370431
vt 0.974741 0.392184
vt 0.955523 0.392184
vt 0.288990 0.675316
vt 0.309823 0.685653
vt 0.288990 0.691306
vt 0.310743 0.653563
vt 0.288990 0.653563
vt 0.610012 0.675316
vt 0.634778 0.685653
vt 0.614536 0.691306
vt 0.630876 0.653563
vt 0.608365 0.653563
vt 0.650737 0.653563
vt 0.631592 0.674396
vt 0.645575 0.674396
vt 0.338451 0.392184
vt 0.359315 0.370431
vt 0.357668 0.392184
vt 0.365253 0.304981
vt 0.360123 0.325813
vt 0.354441 0.304981
vt 0.386117 0.326734
vt 0.384470 0.304981
vt 0.021849 0.304981
vt 0.011512 0.325813
vt 0.005858 0.304981
vt 0.043602 0.326734
vt 0.043602 0.304981
vt 0.043602 0.342724
vt 0.022769 0.325813
vt 0.022769 0.337071
vt 0.610012 0.370431
vt 0.630876 0.392184
vt 0.608365 0.392184
vt 0.614536 0.354441
vt 0.631592 0.371352
vt 0.326734 0.304981
vt 0.304981 0.326734
vt 0.304981 0.304981
vt 0.342724 0.304981
vt 0.325813 0.325813
vt 0.974741 0.653563
vt 0.953876 0.675316
vt 0.955523 0.653563
vt 0.645575 0.371352
vt 0.650737 0.392184
vt 0.634778 0.360094
vt 0.005858 0.392184
vt 0.027611 0.370431
vt 0.027611 0.392184
vt 0.711010 0.025720
vt 0.690177 0.011020
vt 0.711010 0.005858
vt 0.689257 0.046584
vt 0.711010 0.048231
vt 0.657678 0.043602
vt 0.672378 0.022769
vt 0.677540 0.043602
vt 0.636814 0.021849
vt 0.635168 0.043602
vt 0.641339 0.005858
vt 0.658395 0.022769
vt 0.661580 0.011512
vt 0.972389 0.025720
vt 0.994142 0.046584
vt 0.972389 0.048231
vt 0.972389 0.005858
vt 0.993221 0.025003
vt 0.027611 0.675316
vt 0.005858 0.653563
vt 0.027611 0.653563
vt 0.703179 0.370431
vt 0.678413 0.360094
vt 0.698655 0.354441
vt 0.682315 0.392184
vt 0.704826 0.392184
vt 0.662454 0.392184
vt 0.681599 0.371352
vt 0.667616 0.371352
vt 0.711010 0.318145
vt 0.689257 0.297281
vt 0.711010 0.298928
vt 0.043602 0.021849
vt 0.022769 0.011512
vt 0.043602 0.005858
vt 0.021849 0.043602
vt 0.043602 0.043602
vt 0.636814 0.326734
vt 0.661580 0.337071
vt 0.641339 0.342724
vt 0.657678 0.304981
vt 0.635168 0.304981
vt 0.677540 0.304981
vt 0.658395 0.325813
vt 0.672378 0.325813
vt 0.703179 0.675316
vt 0.682315 0.653563
vt 0.704826 0.653563
vt 0.698655 0.691306
vt 0.681599 0.674396
vt 0.304981 0.021849
vt 0.326734 0.043602
vt 0.304981 0.043602
vt 0.304981 0.005858
vt 0.325813 0.022769
vt 0.994142 0.297281
vt 0.972389 0.318145
vt 0.972389 0.298928
vt 0.667616 0.674396
vt 0.662454 0.653563
vt 0.678413 0.685653
vt 0.027611 0.691306
vt 0.326734 0.653563
vt 0.005858 0.043602
vt 0.342724 0.043602
vt 0.027611 0.354441
vt 0.360123 0.022769
vt 0.340933 0.674396
vt 0.972258 0.371352
vt 0.309823 0.674396
vt 0.340933 0.371352
vt 0.367736 0.325813
vt 0.337071 0.325813
vt 0.972258 0.674396
vt 0.006779 0.371352
vt 0.690177 0.025003
vt 0.993221 0.011020
vt 0.006779 0.674396
vt 0.690177 0.315662
vt 0.022769 0.022769
vt 0.325813 0.011512
vt 0.993221 0.315662
vt 0.304981 0.342724
s 1
usemtl Material
f 4/1/1 5/2/2 1/3/3
f 8/4/4 6/5/5 4/1/1
f 7/6/6 8/7/4 2/8/7
f 11/9/8 9/10/9 7/6/6
f 10/11/10 11/12/8 3/13/11
f 5/2/2 12/14/12 10/15/10
f 6/5/5 9/16/9 12/14/12
f 16/17/13 17/18/14 13/19/15
f 20/20/16 18/21/17 16/22/13
f 19/23/18 20/20/16 14/24/19
f 23/25/20 21/26/21 19/27/18
f 22/28/22 23/25/20 15/29/23
f 17/30/14 24/31/24 22/28/22
f 18/32/17 21/26/21 24/31/24
f 28/33/25 29/34/26 25/35/27
f 32/36/28 30/37/29 28/38/25
f 31/39/30 32/36/28 26/40/31
f 35/41/32 33/42/33 31/43/30
f 34/44/34 35/41/32 27/45/35
f 29/46/26 36/47/36 34/44/34
f 30/48/29 33/42/33 36/47/36
f 40/49/37 41/50/38 37/51/39
f 44/52/40 42/53/41 40/49/37
f 43/54/42 44/55/40 38/56/43
f 47/57/44 45/58/45 43/54/42
f 46/59/46 47/60/44 39/61/47
f 41/50/38 48/62/48 46/63/46
f 42/53/41 45/64/45 48/62/48
f 52/65/49 53/66/50 49/67/51
f 56/68/52 54/69/53 52/70/49
f 55/71/54 56/68/52 50/72/55
f 59/73/56 57/74/57 55/75/54
f 58/76/58 59/73/56 51/77/59
f 53/78/50 60/79/60 58/76/58
f 54/80/53 57/74/57 60/79/60
f 64/81/61 65/82/62 61/83/63
f 68/84/64 66/85/65 64/81/61
f 67/86/66 68/87/64 62/88/67
f 71/89/68 69/90/69 67/91/66
f 70/92/70 71/89/68 63/93/71
f 65/94/62 72/95/72 70/92/70
f 66/96/65 69/90/69 72/95/72
f 76/97/73 77/98/74 73/99/75
f 80/100/76 78/101/77 76/102/73
f 79/103/78 80/100/76 74/104/79
f 83/105/80 81/106/81 79/107/78
f 82/108/82 83/105/80 75/109/83
f 77/110/74 84/111/84 82/108/82
f 78/112/77 81/106/81 84/111/84
f 88/113/85 89/114/86 85/115/87
f 92/116/88 90/117/89 88/113/85
f 91/118/90 92/119/88 86/120/91
f 95/121/92 93/122/93 91/118/90
f 94/123/94 95/124/92 87/125/95
f 89/114/86 96/126/96 94/127/94
f 90/117/89 93/128/93 96/126/96
f 85/115/87 70/92/70 63/93/71
f 89/114/86 65/94/62 70/92/70
f 94/123/94 61/83/63 65/82/62
f 63/93/71 16/17/13 13/19/15
f 71/129/68 20/20/16 16/22/13
f 67/86/66 14/24/19 20/20/16
f 15/29/23 10/11/10 3/13/11
f 23/130/20 5/2/2 10/15/10
f 19/23/18 1/3/3 5/2/2
f 74/104/79 91/118/90 86/120/91
f 80/100/76 95/121/92 91/118/90
f 76/97/73 87/125/95 95/124/92
f 38/56/43 34/44/34 27/45/35
f 44/55/40 29/46/26 34/44/34
f 40/49/37 25/35/27 29/34/26
f 62/88/67 52/65/49 49/67/51
f 68/84/64 56/68/52 52/70/49
f 64/81/61 50/72/55 56/68/52
f 75/109/83 31/39/30 26/40/31
f 83/131/80 35/41/32 31/43/30
f 79/103/78 27/45/35 35/41/32
f 26/40/31 7/6/6 2/8/7
f 32/36/28 11/9/8 7/6/6
f 28/33/25 3/13/11 11/12/8
f 39/61/47 88/113/85 85/115/87
f 47/57/44 92/119/88 88/132/85
f 43/54/42 86/120/91 92/119/88
f 51/77/59 82/108/82 75/109/83
f 59/73/56 77/110/74 82/108/82
f 55/71/54 73/99/75 77/98/74
f 2/8/7 58/76/58 51/77/59
f 8/4/4 53/66/50 58/133/58
f 4/1/1 49/67/51 53/66/50
f 13/19/15 46/59/46 39/61/47
f 17/30/14 41/50/38 46/63/46
f 22/28/22 37/51/39 41/50/38
f 49/67/51 14/24/19 62/88/67
f 3/13/11 37/51/39 15/29/23
f 51/77/59 26/40/31 2/8/7
f 13/19/15 85/115/87 63/93/71
f 27/45/35 86/120/91 38/56/43
f 73/99/75 61/83/63 87/125/95
f 4/1/1 6/5/5 5/2/2
f 8/4/4 9/16/9 6/5/5
f 7/6/6 9/10/9 8/7/4
f 11/9/8 12/134/12 9/10/9
f 10/11/10 12/135/12 11/12/8
f 5/2/2 6/5/5 12/14/12
f 16/17/13 18/136/17 17/18/14
f 20/20/16 21/137/21 18/21/17
f 19/23/18 21/137/21 20/20/16
f 23/25/20 24/31/24 21/26/21
f 22/28/22 24/31/24 23/25/20
f 17/30/14 18/32/17 24/31/24
f 28/33/25 30/138/29 29/34/26
f 32/36/28 33/139/33 30/37/29
f 31/39/30 33/139/33 32/36/28
f 35/41/32 36/47/36 33/42/33
f 34/44/34 36/47/36 35/41/32
f 29/46/26 30/48/29 36/47/36
f 40/49/37 42/53/41 41/50/38
f 44/52/40 45/64/45 42/53/41
f 43/54/42 45/58/45 44/55/40
f 47/57/44 48/140/48 45/58/45
f 46/59/46 48/141/48 47/60/44
f 41/50/38 42/53/41 48/62/48
f 52/65/49 54/142/53 53/66/50
f 56/68/52 57/143/57 54/69/53
f 55/71/54 57/143/57 56/68/52
f 59/73/56 60/79/60 57/74/57
f 58/76/58 60/79/60 59/73/56
f 53/78/50 54/80/53 60/79/60
f 64/81/61 66/85/65 65/82/62
f 68/84/64 69/144/69 66/85/65
f 67/86/66 69/145/69 68/87/64
f 71/89/68 72/95/72 69/90/69
f 70/92/70 72/95/72 71/89/68
f 65/94/62 66/96/65 72/95/72
f 76/97/73 78/146/77 77/98/74
f 80/100/76 81/147/81 78/101/77
f 79/103/78 81/147/81 80/100/76
f 83/105/80 84/111/84 81/106/81
f 82/108/82 84/111/84 83/105/80
f 77/110/74 78/112/77 84/111/84
f 88/113/85 90/117/89 89/114/86
f 92/116/88 93/128/93 90/117/89
f 91/118/90 93/122/93 92/119/88
f 95/121/92 96/148/96 93/122/93
f 94/123/94 96/149/96 95/124/92
f 89/114/86 90/117/89 96/126/96
f 85/115/87 89/114/86 70/92/70
f 89/114/86 94/127/94 65/94/62
f 94/123/94 87/125/95 61/83/63
f 63/93/71 71/89/68 16/17/13
f 71/129/68 67/86/66 20/20/16
f 67/86/66 62/88/67 14/24/19
f 15/29/23 23/25/20 10/11/10
f 23/130/20 19/23/18 5/2/2
f 19/23/18 14/24/19 1/3/3
f 74/104/79 80/100/76 91/118/90
f 80/100/76 76/102/73 95/121/92
f 76/97/73 73/99/75 87/125/95
f 38/56/43 44/55/40 34/44/34
f 44/55/40 40/150/37 29/46/26
f 40/49/37 37/51/39 25/35/27
f 62/88/67 68/87/64 52/65/49
f 68/84/64 64/81/61 56/68/52
f 64/81/61 61/83/63 50/72/55
f 75/109/83 83/105/80 31/39/30
f 83/131/80 79/103/78 35/41/32
f 79/103/78 74/104/79 27/45/35
f 26/40/31 32/36/28 7/6/6
f 32/36/28 28/38/25 11/9/8
f 28/33/25 25/35/27 3/13/11
f 39/61/47 47/60/44 88/113/85
f 47/57/44 43/54/42 92/119/88
f 43/54/42 38/56/43 86/120/91
f 51/77/59 59/73/56 82/108/82
f 59/73/56 55/75/54 77/110/74
f 55/71/54 50/72/55 73/99/75
f 2/8/7 8/7/4 58/76/58
f 8/4/4 4/1/1 53/66/50
f 4/1/1 1/3/3 49/67/51
f 13/19/15 17/18/14 46/59/46
f 17/30/14 22/28/22 41/50/38
f 22/28/22 15/29/23 37/51/39
f 49/67/51 1/3/3 14/24/19
f 3/13/11 25/35/27 37/51/39
f 51/77/59 75/109/83 26/40/31
f 13/19/15 39/61/47 85/115/87
f 27/45/35 74/104/79 86/120/91
f 73/99/75 50/72/55 61/83/63
