# Blender 5.2.2 LTS
# www.blender.org
mtllib explosionSmoke.mtl
o 球.004
v -0.326347 0.426729 -0.160962
v -0.037961 0.303359 -0.354985
v 0.077666 0.028340 -0.217130
v 0.063737 0.362499 -0.017977
v -0.057615 0.173523 0.191531
v -0.186379 -0.083802 -0.016095
v -0.436691 0.126634 -0.045413
v -0.260197 0.011468 -0.291681
v -0.136600 0.450755 0.067945
v 0.249337 0.141485 -0.367616
v 0.381546 -0.186503 -0.229709
v 0.364483 0.287339 -0.041290
v 0.149199 0.324263 0.282312
v 0.383664 -0.080317 0.260901
v 0.088018 -0.191963 0.429390
v -0.333694 0.008861 0.334128
v -0.256388 -0.324097 0.192707
v -0.480624 -0.001980 -0.125558
v 0.061115 -0.463874 -0.051810
v -0.157761 -0.180767 -0.394500
v -0.107512 0.293323 -0.343974
v 0.033953 0.046624 -0.251462
v 0.322057 -0.077139 -0.338975
v 0.176242 -0.047901 0.037542
v 0.309329 -0.347265 -0.026126
v -0.025016 -0.378467 0.017846
v -0.109853 -0.077558 -0.020715
v -0.176577 -0.160399 -0.265474
v -0.011392 -0.472229 -0.287750
v 0.182429 -0.339701 -0.446735
v -0.167752 0.199364 0.186600
v -0.052249 -0.104103 -0.105779
v 0.075702 0.024481 0.184074
v -0.057643 -0.375860 0.191197
v -0.105130 -0.162229 0.432104
v -0.429231 -0.074449 0.338175
v -0.417356 -0.103232 -0.049051
v 0.331124 0.353724 -0.051971
v 0.368126 0.035785 0.049694
v 0.246231 0.378298 0.263888
v 0.206321 0.056385 0.292927
v -0.135263 0.076236 0.199265
v -0.027412 0.447830 0.017527
v 0.122767 -0.067746 -0.033919
v 0.048417 0.148556 -0.214770
v -0.010988 0.146891 -0.188675
v -0.014018 -0.193500 -0.383013
v -0.140168 -0.336791 -0.109266
v -0.100037 -0.024947 0.088777
v -0.424504 0.103292 -0.095334
v -0.429208 -0.202592 -0.007295
v -0.350022 0.064535 -0.406707
v -0.346311 -0.272831 -0.339645
v -0.025250 0.309670 0.343606
v 0.047781 0.205525 0.013880
v 0.127663 -0.190261 0.207099
v 0.201749 0.101189 0.354599
v -0.128959 -0.049212 0.517817
v -0.295765 0.232983 0.260605
v -0.256277 -0.139056 0.108195
v 0.012491 -0.043962 -0.154495
v 0.020279 0.016481 0.243879
v -0.331914 0.205467 0.246926
v -0.359882 -0.107074 0.220743
v -0.084867 0.316968 -0.008725
v -0.452655 -0.011759 -0.118031
v -0.133496 -0.221060 0.066081
v 0.015195 0.402725 -0.089989
v 0.255492 0.189358 0.058597
v 0.079908 -0.071911 0.079750
v -0.000858 0.390643 0.341760
v -0.014999 0.036475 0.360687
v -0.288597 0.327216 0.083689
v -0.283705 0.042472 0.158439
v -0.145219 0.015717 -0.075172
v 0.121880 -0.016104 -0.478316
v 0.234066 0.097445 -0.257589
v 0.044049 -0.336387 -0.231246
v 0.063212 0.030453 0.037331
v -0.161372 0.170351 -0.383403
v -0.291288 -0.044365 -0.073990
v -0.240244 -0.203226 -0.366788
v 0.393833 0.137102 -0.177804
v 0.384175 -0.192291 -0.233067
v 0.220371 0.182428 0.055822
v -0.080553 0.024953 0.048541
v 0.056071 0.120910 -0.318447
v 0.220923 -0.291911 0.079386
v 0.039080 -0.200658 -0.303644
v 0.057323 0.260298 0.061768
v 0.343022 -0.155980 -0.158559
v 0.505848 0.092076 -0.015342
v 0.377629 -0.052368 0.256095
v 0.229740 0.179350 0.252112
v -0.032706 -0.147135 -0.081033
v 0.137871 -0.224128 0.194886
v 0.194006 0.071121 -0.248325
v 0.186598 0.411660 -0.158278
v 0.123278 0.010472 -0.379974
v 0.236839 0.009801 -0.124931
v -0.000910 0.030469 0.077731
v -0.134726 -0.090450 -0.148596
v -0.237577 0.281666 -0.021008
v -0.140644 0.286657 -0.445827
v -0.013922 0.367966 -0.090577
v 0.385182 0.284939 0.005118
v 0.445860 0.026813 -0.130198
v 0.129177 -0.027050 0.167706
v 0.121443 0.241770 0.166356
v 0.247853 0.277309 -0.343812
v 0.056425 -0.120876 -0.217916
v 0.219695 0.221446 -0.189704
v 0.369683 -0.161067 -0.262936
v 0.174058 -0.085854 0.113168
v 0.143295 -0.309817 -0.107920
v -0.013454 0.115414 0.045045
v -0.145826 -0.175240 -0.017228
v -0.060108 0.097521 -0.383068
v -0.068135 -0.236650 -0.306293
v -0.228433 0.331692 0.315892
v -0.103421 -0.145561 0.035080
v 0.124941 0.157733 0.161343
v -0.035877 -0.076150 0.314835
v -0.494152 0.050280 0.090813
v -0.072479 0.269926 -0.134813
v -0.013194 0.093514 0.084374
v 0.263605 -0.299752 -0.056679
v 0.299234 0.021811 0.100747
v 0.266997 -0.146540 0.416242
v -0.111858 -0.165543 0.372148
v -0.167286 -0.288003 0.073487
v 0.048260 -0.426858 0.265300
v 0.097284 0.144960 0.164011
v 0.376785 0.057784 -0.031343
v 0.326229 -0.388701 0.034798
v 0.442851 -0.126578 0.259565
v 0.153420 -0.253031 0.365351
v -0.095048 -0.254280 0.139291
v 0.111618 -0.183555 -0.177112
v 0.106817 0.277283 0.170379
v 0.310866 0.025109 0.014044
v 0.329025 0.212450 0.352575
v 0.406737 -0.091677 0.305260
v 0.085344 -0.119718 0.521684
v -0.063051 0.175845 0.393007
v -0.016972 -0.241041 0.200600
v -0.030489 0.037100 -0.002827
v -0.030112 -0.098869 -0.292833
v -0.079231 -0.341926 0.095996
v -0.255271 0.092742 0.142864
v 0.044613 -0.055715 0.090030
v -0.465472 -0.214600 0.064255
v -0.146189 0.163133 -0.146259
v -0.424218 0.001681 -0.205701
v -0.240179 -0.287872 -0.276418
v 0.116377 -0.176130 -0.259974
v -0.052415 0.056056 -0.088667
v 0.018456 -0.345429 0.194408
v -0.336339 -0.080728 0.099084
v -0.348361 -0.372668 -0.017512
v -0.320973 -0.173130 -0.251869
v -0.014644 -0.487855 -0.138977
v -0.003234 -0.023586 0.015309
v -0.091771 -0.257133 -0.179496
v 0.257452 -0.492194 0.045876
v 0.292206 -0.110954 0.130858
v -0.196042 -0.142247 0.245301
v 0.076821 -0.333134 0.377126
v -0.086902 -0.549245 0.086726
vn -0.5760 0.8062 -0.1352
vn 0.3194 0.4137 -0.8526
vn 0.7797 -0.5351 -0.3251
vn 0.6964 0.6497 0.3048
vn 0.2406 -0.0052 0.9706
vn -0.0898 -0.9340 0.3459
vn -0.9597 -0.1259 0.2513
vn -0.4094 -0.5482 -0.7293
vn -0.3101 0.9419 0.1287
vn 0.4820 0.3404 -0.8073
vn 0.7792 -0.4255 -0.4602
vn 0.7648 0.6391 -0.0810
vn 0.2883 0.6727 0.6814
vn 0.8334 -0.1857 0.5205
vn 0.1735 -0.3889 0.9048
vn -0.6754 0.1093 0.7293
vn -0.5626 -0.7618 0.3212
vn -0.9655 -0.0205 -0.2597
vn 0.0977 -0.9883 -0.1169
vn -0.3335 -0.4458 -0.8307
vn -0.2370 0.6426 -0.7286
vn -0.1780 0.9200 -0.3490
vn 0.7353 0.4613 -0.4965
vn 0.3362 0.5643 0.7540
vn 0.7378 -0.4681 0.4863
vn -0.4639 -0.5738 0.6750
vn -0.7151 0.3953 0.5766
vn -0.9315 0.0873 -0.3532
vn -0.3894 -0.8702 -0.3018
vn 0.2784 -0.3774 -0.8832
vn -0.0114 0.9970 0.0767
vn 0.4157 -0.0382 -0.9087
vn 0.9182 0.3836 0.0989
vn 0.3157 -0.9477 0.0471
vn 0.2397 -0.1937 0.9513
vn -0.8236 0.0158 0.5670
vn -0.7559 -0.0751 -0.6504
vn 0.7115 0.5318 -0.4594
vn 0.8633 -0.4968 -0.0886
vn 0.3549 0.6075 0.7106
vn 0.2525 -0.4694 0.8462
vn -0.8483 -0.3162 0.4247
vn -0.5543 0.8204 -0.1404
vn -0.0425 -0.9379 -0.3444
vn -0.2750 -0.1162 -0.9544
vn 0.7021 0.7117 -0.0234
vn 0.7101 -0.3258 -0.6242
vn 0.3811 -0.8745 0.3002
vn 0.4336 0.1494 0.8886
vn -0.7151 0.6418 0.2770
vn -0.7324 -0.4017 0.5498
vn -0.4511 0.4734 -0.7566
vn -0.5267 -0.6400 -0.5594
vn 0.1314 0.9091 0.3954
vn 0.3181 0.4514 -0.8337
vn 0.5784 -0.7979 -0.1698
vn 0.9017 0.1751 0.3954
vn -0.2543 -0.3411 0.9050
vn -0.8300 0.5576 0.0146
vn -0.6412 -0.5995 -0.4789
vn 0.6344 -0.2355 -0.7362
vn 0.7295 -0.0572 0.6816
vn -0.4756 0.6051 0.6385
vn -0.5675 -0.5373 0.6239
vn 0.3086 0.9153 -0.2590
vn -0.7880 -0.1035 -0.6069
vn 0.1865 -0.9820 0.0303
vn 0.1893 0.6673 -0.7204
vn 0.9808 0.0173 -0.1943
vn 0.4320 -0.8802 -0.1968
vn 0.1150 0.6584 0.7438
vn 0.0783 -0.4730 0.8776
vn -0.8568 0.5080 -0.0890
vn -0.8469 -0.4763 0.2364
vn -0.3173 -0.5286 -0.7873
vn 0.4812 0.0074 -0.8766
vn 0.8760 0.4821 0.0168
vn 0.3036 -0.9497 0.0768
vn 0.2989 0.2525 0.9203
vn -0.4336 0.7871 -0.4388
vn -0.8053 0.0329 0.5920
vn -0.6803 -0.5387 -0.4970
vn 0.8027 0.5569 -0.2132
vn 0.7671 -0.4793 -0.4264
vn 0.2186 0.7355 0.6413
vn -0.8407 0.1724 0.5133
vn -0.3827 0.5655 -0.7306
vn 0.1686 -0.7478 0.6422
vn -0.4864 -0.5759 -0.6570
vn -0.5579 0.8246 0.0934
vn 0.4607 -0.6724 -0.5793
vn 0.9478 0.2824 -0.1484
vn 0.5887 -0.2733 0.7607
vn -0.0193 0.6084 0.7934
vn -0.8383 -0.4585 -0.2948
vn -0.2426 -0.7626 0.5996
vn -0.0810 0.3328 -0.9395
vn 0.5971 0.7968 0.0927
vn 0.4194 -0.4876 -0.7657
vn 0.8596 -0.4660 0.2097
vn 0.0584 -0.3465 0.9362
vn -0.5216 -0.8532 -0.0017
vn -0.7518 0.4300 0.4999
vn -0.4376 0.3700 -0.8195
vn -0.7123 0.7000 -0.0514
vn 0.7380 0.5690 0.3628
vn 0.8910 -0.4333 -0.1354
vn -0.1969 -0.5722 0.7961
vn -0.2309 0.3979 0.8879
vn 0.1763 0.4433 -0.8788
vn -0.4604 -0.7746 -0.4337
vn 0.4786 0.8716 -0.1063
vn 0.8785 -0.2913 -0.3787
vn 0.3902 -0.1051 0.9147
vn 0.2052 -0.9598 0.1913
vn -0.4030 0.6421 0.6522
vn -0.8157 -0.3637 0.4498
vn -0.4752 0.4620 -0.7489
vn -0.4948 -0.6177 -0.6113
vn -0.2465 0.7294 0.6381
vn 0.1463 -0.8924 -0.4268
vn 0.9720 0.2038 0.1170
vn 0.3072 -0.6093 0.7310
vn -0.9794 -0.1737 -0.1034
vn 0.2029 0.4982 -0.8430
vn -0.3707 0.8793 -0.2989
vn 0.5248 -0.4268 -0.7365
vn 0.7099 0.6671 -0.2259
vn 0.5865 0.0848 0.8055
vn -0.6623 0.1260 0.7386
vn -0.8268 -0.3439 -0.4451
vn -0.0312 -0.9437 0.3293
vn -0.3639 0.9052 0.2196
vn 0.6126 0.6179 -0.4929
vn 0.4485 -0.8570 -0.2538
vn 0.8376 0.0671 0.5422
vn -0.1380 -0.3592 0.9230
vn -0.9341 -0.3458 0.0892
vn -0.2858 -0.1128 -0.9516
vn -0.0990 0.9448 -0.3124
vn 0.5882 -0.0307 -0.8081
vn 0.6313 0.6664 0.3968
vn 0.8719 -0.4557 0.1793
vn -0.1487 -0.4300 0.8905
vn -0.7104 0.5015 0.4937
vn -0.4762 -0.8617 -0.1750
vn -0.5868 0.0479 -0.8083
vn 0.6251 0.0059 -0.7805
vn 0.3740 -0.7856 0.4930
vn -0.2143 0.6353 0.7419
vn 0.8518 0.1695 0.4957
vn -0.8228 -0.3736 0.4282
vn 0.1995 0.9272 -0.3169
vn -0.7633 0.3797 -0.5227
vn -0.1463 -0.6789 -0.7195
vn 0.7606 0.1487 -0.6319
vn 0.2680 0.9633 -0.0183
vn 0.4574 -0.2996 0.8373
vn -0.6402 0.4981 0.5848
vn -0.7711 -0.6200 0.1450
vn -0.6388 0.1457 -0.7555
vn 0.2984 -0.8988 -0.3211
vn -0.0761 0.9484 -0.3079
vn -0.3675 0.0464 -0.9289
vn 0.7324 -0.6394 -0.2342
vn 0.8225 0.5649 0.0664
vn -0.7636 0.4212 0.4894
vn 0.1377 -0.1686 0.9760
vn -0.4804 -0.8767 -0.0252
vt 0.297998 0.001001
vt 0.201001 0.001001
vt 0.201001 0.097998
vt 0.201001 0.101001
vt 0.201001 0.197998
vt 0.297998 0.101001
vt 0.851001 0.897998
vt 0.851001 0.801001
vt 0.897998 0.801001
vt 0.201001 0.947998
vt 0.201001 0.901001
vt 0.297998 0.901001
vt 0.001001 0.397998
vt 0.097998 0.301001
vt 0.001001 0.301001
vt 0.301001 0.001001
vt 0.301001 0.097998
vt 0.397998 0.001001
vt 0.901001 0.101001
vt 0.901001 0.197998
vt 0.947998 0.101001
vt 0.997998 0.751001
vt 0.951001 0.797998
vt 0.951001 0.751001
vt 0.501001 0.947998
vt 0.501001 0.901001
vt 0.597998 0.901001
vt 0.301001 0.297998
vt 0.301001 0.201001
vt 0.397998 0.201001
vt 0.301001 0.397998
vt 0.301001 0.301001
vt 0.397998 0.301001
vt 0.001001 0.497998
vt 0.097998 0.401001
vt 0.001001 0.401001
vt 0.497998 0.001001
vt 0.401001 0.001001
vt 0.401001 0.097998
vt 0.401001 0.101001
vt 0.401001 0.197998
vt 0.497998 0.101001
vt 0.398999 0.302002
vt 0.302002 0.398999
vt 0.398999 0.398999
vt 0.101001 0.497998
vt 0.197998 0.401001
vt 0.101001 0.401001
vt 0.201001 0.401001
vt 0.201001 0.497998
vt 0.297998 0.401001
vt 0.401001 0.201001
vt 0.401001 0.297998
vt 0.497998 0.201001
vt 0.997998 0.401001
vt 0.951001 0.401001
vt 0.951001 0.497998
vt 0.301001 0.497998
vt 0.301001 0.401001
vt 0.397998 0.401001
vt 0.401001 0.401001
vt 0.497998 0.401001
vt 0.401001 0.497998
vt 0.997998 0.901001
vt 0.951001 0.947998
vt 0.951001 0.901001
vt 0.697998 0.951001
vt 0.601001 0.997998
vt 0.601001 0.951001
vt 0.947998 0.901001
vt 0.901001 0.947998
vt 0.901001 0.901001
vt 0.951001 0.201001
vt 0.997998 0.201001
vt 0.951001 0.297998
vt 0.201001 0.501001
vt 0.297998 0.501001
vt 0.201001 0.597998
vt 0.397998 0.951001
vt 0.301001 0.997998
vt 0.301001 0.951001
vt 0.098999 0.402002
vt 0.002002 0.498999
vt 0.098999 0.498999
vt 0.301001 0.597998
vt 0.301001 0.501001
vt 0.397998 0.501001
vt 0.501001 0.397998
vt 0.501001 0.301001
vt 0.597998 0.301001
vt 0.497998 0.501001
vt 0.401001 0.597998
vt 0.401001 0.501001
vt 0.997998 0.001001
vt 0.951001 0.097998
vt 0.951001 0.001001
vt 0.952002 0.948999
vt 0.998999 0.948999
vt 0.998999 0.902002
vt 0.297998 0.951001
vt 0.201001 0.951001
vt 0.201001 0.997998
vt 0.901001 0.897998
vt 0.947998 0.801001
vt 0.901001 0.801001
vt 0.952002 0.498999
vt 0.998999 0.402002
vt 0.998999 0.498999
vt 0.001001 0.697998
vt 0.001001 0.601001
vt 0.097998 0.601001
vt 0.098999 0.698999
vt 0.098999 0.602002
vt 0.002002 0.698999
vt 0.398999 0.952002
vt 0.398999 0.998999
vt 0.302002 0.998999
vt 0.601001 0.101001
vt 0.601001 0.197998
vt 0.697998 0.101001
vt 0.298999 0.498999
vt 0.202002 0.498999
vt 0.298999 0.402002
vt 0.948999 0.802002
vt 0.948999 0.898999
vt 0.902002 0.898999
vt 0.001001 0.951001
vt 0.097998 0.951001
vt 0.001001 0.997998
vt 0.201001 0.601001
vt 0.297998 0.601001
vt 0.201001 0.697998
vt 0.901001 0.301001
vt 0.901001 0.397998
vt 0.947998 0.301001
vt 0.601001 0.397998
vt 0.601001 0.301001
vt 0.697998 0.301001
vt 0.301001 0.601001
vt 0.301001 0.697998
vt 0.397998 0.601001
vt 0.951001 0.701001
vt 0.951001 0.747998
vt 0.997998 0.701001
vt 0.098999 0.001001
vt 0.001001 0.001001
vt 0.001001 0.098999
vt 0.098999 0.098999
vt 0.401001 0.601001
vt 0.401001 0.697998
vt 0.497998 0.601001
vt 0.697998 0.501001
vt 0.601001 0.597998
vt 0.601001 0.501001
vt 0.398999 0.098999
vt 0.302002 0.098999
vt 0.398999 0.002002
vt 0.501001 0.601001
vt 0.597998 0.601001
vt 0.501001 0.697998
vt 0.298999 0.598999
vt 0.202002 0.598999
vt 0.298999 0.502002
vt 0.601001 0.697998
vt 0.601001 0.601001
vt 0.697998 0.601001
vt 0.497998 0.901001
vt 0.401001 0.947998
vt 0.401001 0.901001
vt 0.001001 0.797998
vt 0.097998 0.701001
vt 0.001001 0.701001
vt 0.701001 0.101001
vt 0.797998 0.101001
vt 0.701001 0.197998
vt 0.498999 0.098999
vt 0.498999 0.002002
vt 0.402002 0.098999
vt 0.901001 0.201001
vt 0.901001 0.297998
vt 0.947998 0.201001
vt 0.801001 0.951001
vt 0.847998 0.951001
vt 0.801001 0.997998
vt 0.402002 0.698999
vt 0.498999 0.602002
vt 0.498999 0.698999
vt 0.301001 0.901001
vt 0.301001 0.947998
vt 0.397998 0.901001
vt 0.397998 0.701001
vt 0.301001 0.701001
vt 0.301001 0.797998
vt 0.947998 0.001001
vt 0.901001 0.097998
vt 0.901001 0.001001
vt 0.302002 0.948999
vt 0.398999 0.948999
vt 0.398999 0.902002
vt 0.897998 0.951001
vt 0.851001 0.997998
vt 0.851001 0.951001
vt 0.498999 0.948999
vt 0.402002 0.948999
vt 0.498999 0.902002
vt 0.497998 0.701001
vt 0.401001 0.701001
vt 0.401001 0.797998
vt 0.501001 0.797998
vt 0.501001 0.701001
vt 0.597998 0.701001
vt 0.701001 0.501001
vt 0.701001 0.597998
vt 0.797998 0.501001
vt 0.952002 0.298999
vt 0.998999 0.298999
vt 0.998999 0.202002
vt 0.997998 0.851001
vt 0.951001 0.897998
vt 0.951001 0.851001
vt 0.698999 0.198999
vt 0.698999 0.102002
vt 0.602002 0.198999
vt 0.002002 0.398999
vt 0.098999 0.302002
vt 0.098999 0.398999
vt 0.952002 0.898999
vt 0.998999 0.852002
vt 0.998999 0.898999
vt 0.797998 0.601001
vt 0.701001 0.697998
vt 0.701001 0.601001
vt 0.901001 0.951001
vt 0.947998 0.951001
vt 0.901001 0.997998
vt 0.098999 0.952002
vt 0.002002 0.998999
vt 0.098999 0.998999
vt 0.198999 0.498999
vt 0.102002 0.498999
vt 0.198999 0.402002
vt 0.298999 0.948999
vt 0.298999 0.902002
vt 0.202002 0.948999
vt 0.801001 0.001001
vt 0.897998 0.001001
vt 0.801001 0.097998
vt 0.698999 0.598999
vt 0.602002 0.598999
vt 0.698999 0.502002
vt 0.948999 0.948999
vt 0.948999 0.902002
vt 0.902002 0.948999
vt 0.001001 0.801001
vt 0.097998 0.801001
vt 0.001001 0.897998
vt 0.701001 0.851001
vt 0.701001 0.897998
vt 0.797998 0.851001
vt 0.101001 0.897998
vt 0.197998 0.801001
vt 0.101001 0.801001
vt 0.102002 0.898999
vt 0.198999 0.898999
vt 0.198999 0.802002
vt 0.897998 0.201001
vt 0.801001 0.297998
vt 0.801001 0.201001
vt 0.201001 0.897998
vt 0.201001 0.801001
vt 0.297998 0.801001
vt 0.801001 0.897998
vt 0.801001 0.801001
vt 0.847998 0.801001
vt 0.397998 0.801001
vt 0.301001 0.801001
vt 0.301001 0.897998
vt 0.401001 0.801001
vt 0.497998 0.801001
vt 0.401001 0.897998
vt 0.897998 0.401001
vt 0.801001 0.497998
vt 0.801001 0.401001
vt 0.801001 0.501001
vt 0.897998 0.501001
vt 0.801001 0.597998
vt 0.298999 0.098999
vt 0.202002 0.098999
vt 0.298999 0.002002
vt 0.948999 0.098999
vt 0.902002 0.098999
vt 0.948999 0.002002
vt 0.898999 0.802002
vt 0.898999 0.898999
vt 0.852002 0.898999
vt 0.597998 0.801001
vt 0.501001 0.801001
vt 0.501001 0.897998
vt 0.797998 0.801001
vt 0.701001 0.847998
vt 0.701001 0.801001
vt 0.997998 0.601001
vt 0.951001 0.601001
vt 0.951001 0.697998
vt 0.697998 0.801001
vt 0.601001 0.801001
vt 0.601001 0.897998
vt 0.801001 0.601001
vt 0.801001 0.697998
vt 0.897998 0.601001
vt 0.801001 0.397998
vt 0.801001 0.301001
vt 0.897998 0.301001
vt 0.801001 0.101001
vt 0.897998 0.101001
vt 0.801001 0.197998
vt 0.701001 0.797998
vt 0.797998 0.701001
vt 0.701001 0.701001
vt 0.798999 0.598999
vt 0.702002 0.598999
vt 0.798999 0.502002
vt 0.697998 0.701001
vt 0.601001 0.701001
vt 0.601001 0.797998
vt 0.101001 0.901001
vt 0.101001 0.947998
vt 0.197998 0.901001
vt 0.498999 0.802002
vt 0.498999 0.898999
vt 0.402002 0.898999
vt 0.598999 0.702002
vt 0.502002 0.798999
vt 0.598999 0.798999
vt 0.701001 0.401001
vt 0.701001 0.497998
vt 0.797998 0.401001
vt 0.797998 0.301001
vt 0.701001 0.397998
vt 0.701001 0.301001
vt 0.402002 0.498999
vt 0.498999 0.498999
vt 0.498999 0.402002
vt 0.398999 0.898999
vt 0.302002 0.898999
vt 0.398999 0.802002
vt 0.201001 0.797998
vt 0.297998 0.701001
vt 0.201001 0.701001
vt 0.798999 0.402002
vt 0.798999 0.498999
vt 0.702002 0.498999
vt 0.701001 0.297998
vt 0.797998 0.201001
vt 0.701001 0.201001
vt 0.101001 0.797998
vt 0.197998 0.701001
vt 0.101001 0.701001
vt 0.701001 0.097998
vt 0.797998 0.001001
vt 0.701001 0.001001
vt 0.697998 0.401001
vt 0.601001 0.401001
vt 0.601001 0.497998
vt 0.698999 0.498999
vt 0.698999 0.402002
vt 0.602002 0.498999
vt 0.697998 0.201001
vt 0.601001 0.201001
vt 0.601001 0.297998
vt 0.798999 0.098999
vt 0.798999 0.002002
vt 0.702002 0.098999
vt 0.798999 0.298999
vt 0.702002 0.298999
vt 0.798999 0.202002
vt 0.498999 0.202002
vt 0.402002 0.298999
vt 0.498999 0.298999
vt 0.901001 0.497998
vt 0.947998 0.401001
vt 0.901001 0.401001
vt 0.601001 0.901001
vt 0.601001 0.947998
vt 0.697998 0.901001
vt 0.902002 0.198999
vt 0.948999 0.102002
vt 0.948999 0.198999
vt 0.898999 0.952002
vt 0.852002 0.998999
vt 0.898999 0.998999
vt 0.901001 0.597998
vt 0.901001 0.501001
vt 0.947998 0.501001
vt 0.701001 0.901001
vt 0.797998 0.901001
vt 0.701001 0.947998
vt 0.947998 0.601001
vt 0.901001 0.697998
vt 0.901001 0.601001
vt 0.801001 0.947998
vt 0.897998 0.901001
vt 0.801001 0.901001
vt 0.901001 0.797998
vt 0.901001 0.701001
vt 0.947998 0.701001
vt 0.101001 0.601001
vt 0.197998 0.601001
vt 0.101001 0.697998
vt 0.101001 0.997998
vt 0.101001 0.951001
vt 0.197998 0.951001
vt 0.601001 0.097998
vt 0.601001 0.001001
vt 0.697998 0.001001
vt 0.597998 0.501001
vt 0.501001 0.501001
vt 0.501001 0.597998
vt 0.848999 0.998999
vt 0.848999 0.952002
vt 0.802002 0.998999
vt 0.501001 0.401001
vt 0.597998 0.401001
vt 0.501001 0.497998
vt 0.898999 0.302002
vt 0.898999 0.398999
vt 0.802002 0.398999
vt 0.898999 0.098999
vt 0.802002 0.098999
vt 0.898999 0.002002
vt 0.602002 0.798999
vt 0.698999 0.798999
vt 0.698999 0.702002
vt 0.298999 0.602002
vt 0.202002 0.698999
vt 0.298999 0.698999
vt 0.501001 0.297998
vt 0.501001 0.201001
vt 0.597998 0.201001
vt 0.198999 0.948999
vt 0.102002 0.948999
vt 0.198999 0.902002
vt 0.951001 0.101001
vt 0.997998 0.101001
vt 0.951001 0.197998
vt 0.898999 0.602002
vt 0.898999 0.698999
vt 0.802002 0.698999
vt 0.502002 0.898999
vt 0.598999 0.898999
vt 0.598999 0.802002
vt 0.598999 0.398999
vt 0.502002 0.398999
vt 0.598999 0.302002
vt 0.598999 0.948999
vt 0.502002 0.948999
vt 0.598999 0.902002
vt 0.602002 0.898999
vt 0.698999 0.802002
vt 0.698999 0.898999
vt 0.002002 0.898999
vt 0.098999 0.802002
vt 0.098999 0.898999
vt 0.202002 0.898999
vt 0.298999 0.802002
vt 0.298999 0.898999
vt 0.401001 0.997998
vt 0.497998 0.951001
vt 0.401001 0.951001
vt 0.101001 0.597998
vt 0.101001 0.501001
vt 0.197998 0.501001
vt 0.602002 0.698999
vt 0.698999 0.698999
vt 0.698999 0.602002
vt 0.602002 0.948999
vt 0.698999 0.948999
vt 0.698999 0.902002
vt 0.402002 0.798999
vt 0.498999 0.798999
vt 0.498999 0.702002
vt 0.998999 0.698999
vt 0.952002 0.698999
vt 0.998999 0.602002
vt 0.798999 0.302002
vt 0.702002 0.398999
vt 0.798999 0.398999
vt 0.898999 0.948999
vt 0.898999 0.902002
vt 0.802002 0.948999
vt 0.902002 0.798999
vt 0.948999 0.798999
vt 0.948999 0.702002
vt 0.602002 0.398999
vt 0.698999 0.398999
vt 0.698999 0.302002
vt 0.948999 0.698999
vt 0.948999 0.602002
vt 0.902002 0.698999
vt 0.997998 0.301001
vt 0.951001 0.397998
vt 0.951001 0.301001
vt 0.902002 0.498999
vt 0.948999 0.498999
vt 0.948999 0.402002
vt 0.501001 0.101001
vt 0.501001 0.197998
vt 0.597998 0.101001
vt 0.998999 0.702002
vt 0.952002 0.748999
vt 0.998999 0.748999
vt 0.598999 0.102002
vt 0.598999 0.198999
vt 0.502002 0.198999
vt 0.202002 0.198999
vt 0.298999 0.102002
vt 0.298999 0.198999
vt 0.597998 0.951001
vt 0.501001 0.951001
vt 0.501001 0.997998
vt 0.001001 0.597998
vt 0.097998 0.501001
vt 0.001001 0.501001
vt 0.198999 0.702002
vt 0.198999 0.798999
vt 0.102002 0.798999
vt 0.398999 0.798999
vt 0.302002 0.798999
vt 0.398999 0.702002
vt 0.398999 0.698999
vt 0.398999 0.602002
vt 0.302002 0.698999
vt 0.102002 0.698999
vt 0.198999 0.602002
vt 0.198999 0.698999
vt 0.951001 0.597998
vt 0.997998 0.501001
vt 0.951001 0.501001
vt 0.802002 0.598999
vt 0.898999 0.502002
vt 0.898999 0.598999
vt 0.797998 0.951001
vt 0.701001 0.997998
vt 0.701001 0.951001
vt 0.098999 0.502002
vt 0.002002 0.598999
vt 0.098999 0.598999
vt 0.501001 0.001001
vt 0.597998 0.001001
vt 0.501001 0.097998
vt 0.948999 0.298999
vt 0.902002 0.298999
vt 0.948999 0.202002
vt 0.998999 0.398999
vt 0.998999 0.302002
vt 0.952002 0.398999
vt 0.502002 0.998999
vt 0.598999 0.998999
vt 0.598999 0.952002
vt 0.298999 0.798999
vt 0.202002 0.798999
vt 0.298999 0.702002
vt 0.497998 0.301001
vt 0.401001 0.301001
vt 0.401001 0.397998
vt 0.201001 0.301001
vt 0.201001 0.397998
vt 0.297998 0.301001
vt 0.802002 0.198999
vt 0.898999 0.102002
vt 0.898999 0.198999
vt 0.301001 0.101001
vt 0.397998 0.101001
vt 0.301001 0.197998
vt 0.398999 0.502002
vt 0.302002 0.598999
vt 0.398999 0.598999
vt 0.802002 0.898999
vt 0.848999 0.802002
vt 0.848999 0.898999
vt 0.997998 0.801001
vt 0.951001 0.847998
vt 0.951001 0.801001
vt 0.398999 0.198999
vt 0.398999 0.102002
vt 0.302002 0.198999
vt 0.698999 0.952002
vt 0.698999 0.998999
vt 0.602002 0.998999
vt 0.498999 0.102002
vt 0.402002 0.198999
vt 0.498999 0.198999
vt 0.101001 0.397998
vt 0.197998 0.301001
vt 0.101001 0.301001
vt 0.598999 0.002002
vt 0.598999 0.098999
vt 0.502002 0.098999
vt 0.798999 0.902002
vt 0.702002 0.948999
vt 0.798999 0.948999
vt 0.702002 0.848999
vt 0.798999 0.848999
vt 0.798999 0.802002
vt 0.297998 0.201001
vt 0.201001 0.201001
vt 0.201001 0.297998
vt 0.902002 0.398999
vt 0.948999 0.398999
vt 0.948999 0.302002
vt 0.098999 0.702002
vt 0.002002 0.798999
vt 0.098999 0.798999
vt 0.952002 0.798999
vt 0.998999 0.752002
vt 0.998999 0.798999
vt 0.101001 0.297998
vt 0.197998 0.201001
vt 0.101001 0.201001
vt 0.798999 0.852002
vt 0.798999 0.898999
vt 0.702002 0.898999
vt 0.001001 0.197998
vt 0.001001 0.101001
vt 0.097998 0.101001
vt 0.602002 0.098999
vt 0.698999 0.098999
vt 0.698999 0.002002
vt 0.702002 0.698999
vt 0.798999 0.602002
vt 0.798999 0.698999
vt 0.502002 0.698999
vt 0.598999 0.698999
vt 0.598999 0.602002
vt 0.801001 0.797998
vt 0.801001 0.701001
vt 0.897998 0.701001
vt 0.798999 0.198999
vt 0.798999 0.102002
vt 0.702002 0.198999
vt 0.198999 0.502002
vt 0.198999 0.598999
vt 0.102002 0.598999
vt 0.898999 0.298999
vt 0.802002 0.298999
vt 0.898999 0.202002
vt 0.502002 0.298999
vt 0.598999 0.298999
vt 0.598999 0.202002
vt 0.102002 0.298999
vt 0.198999 0.202002
vt 0.198999 0.298999
vt 0.298999 0.302002
vt 0.202002 0.398999
vt 0.298999 0.398999
vt 0.702002 0.998999
vt 0.798999 0.998999
vt 0.798999 0.952002
vt 0.498999 0.998999
vt 0.402002 0.998999
vt 0.498999 0.952002
vt 0.102002 0.398999
vt 0.198999 0.302002
vt 0.198999 0.398999
vt 0.998999 0.802002
vt 0.952002 0.848999
vt 0.998999 0.848999
vt 0.702002 0.798999
vt 0.798999 0.702002
vt 0.798999 0.798999
vt 0.998999 0.002002
vt 0.952002 0.098999
vt 0.998999 0.098999
vt 0.952002 0.598999
vt 0.998999 0.598999
vt 0.998999 0.502002
vt 0.298999 0.952002
vt 0.298999 0.998999
vt 0.202002 0.998999
vt 0.598999 0.502002
vt 0.502002 0.598999
vt 0.598999 0.598999
vt 0.598999 0.498999
vt 0.598999 0.402002
vt 0.502002 0.498999
vt 0.898999 0.798999
vt 0.802002 0.798999
vt 0.898999 0.702002
vt 0.698999 0.298999
vt 0.698999 0.202002
vt 0.602002 0.298999
vt 0.998999 0.198999
vt 0.998999 0.102002
vt 0.952002 0.198999
vt 0.098999 0.102002
vt 0.098999 0.198999
vt 0.002002 0.198999
vt 0.102002 0.998999
vt 0.198999 0.952002
vt 0.198999 0.998999
vt 0.398999 0.298999
vt 0.398999 0.202002
vt 0.302002 0.298999
vt 0.902002 0.598999
vt 0.948999 0.502002
vt 0.948999 0.598999
vt 0.898999 0.402002
vt 0.898999 0.498999
vt 0.802002 0.498999
vt 0.498999 0.398999
vt 0.498999 0.302002
vt 0.402002 0.398999
vt 0.902002 0.998999
vt 0.948999 0.952002
vt 0.948999 0.998999
vt 0.298999 0.298999
vt 0.298999 0.202002
vt 0.202002 0.298999
vt 0.098999 0.948999
vt 0.098999 0.901001
vt 0.001001 0.901001
vt 0.001001 0.948999
vt 0.498999 0.502002
vt 0.402002 0.598999
vt 0.498999 0.598999
vt 0.198999 0.001001
vt 0.101001 0.001001
vt 0.101001 0.098999
vt 0.198999 0.098999
vt 0.198999 0.101001
vt 0.101001 0.101001
vt 0.101001 0.198999
vt 0.198999 0.198999
vt 0.098999 0.201001
vt 0.001001 0.201001
vt 0.001001 0.298999
vt 0.098999 0.298999
vt 0.398999 0.402002
vt 0.302002 0.498999
vt 0.398999 0.498999
s 1
usemtl マテリアル
f 2/1/2 3/2/3 8/3/8
f 2/4/2 1/5/1 4/6/4
f 3/7/3 4/8/4 5/9/5
f 5/10/5 4/11/4 1/12/1
f 5/13/5 1/14/1 7/15/7
f 6/16/6 5/17/5 7/18/7
f 7/19/7 1/20/1 8/21/8
f 6/22/6 7/23/7 8/24/8
f 6/25/6 8/26/8 3/27/3
f 20/28/20 21/29/21 10/30/10
f 20/31/20 10/32/10 11/33/11
f 12/34/12 9/35/9 13/36/13
f 19/37/19 11/38/11 14/39/14
f 14/40/14 13/41/13 15/42/15
f 16/43/16 13/44/13 9/45/9
f 15/46/15 16/47/16 17/48/17
f 166/49/166 168/50/168 165/51/165
f 17/52/17 18/53/18 19/54/19
f 30/55/30 23/56/23 25/57/25
f 23/58/23 24/59/24 25/60/25
f 25/61/25 24/62/24 26/63/26
f 24/64/24 22/65/22 27/66/27
f 29/67/29 27/68/27 28/69/28
f 27/70/27 22/71/22 28/72/28
f 28/73/28 22/74/22 30/75/30
f 32/76/32 33/77/33 34/78/34
f 32/79/32 31/80/31 33/81/33
f 34/82/34 37/83/37 32/84/32
f 31/85/31 32/86/32 37/87/37
f 45/88/45 38/89/38 39/90/39
f 38/91/38 43/92/43 40/93/40
f 39/94/39 40/95/40 41/96/41
f 44/97/44 39/98/39 41/99/41
f 118/100/118 119/101/119 117/102/117
f 49/103/49 50/104/50 51/105/51
f 50/106/50 46/107/46 52/108/52
f 58/109/58 59/110/59 60/111/60
f 56/112/56 58/113/58 60/114/60
f 59/115/59 54/116/54 55/117/55
f 61/118/61 66/119/66 65/120/65
f 61/121/61 65/122/65 62/123/62
f 62/124/62 63/125/63 64/126/64
f 67/127/67 62/128/62 64/129/64
f 63/130/63 65/131/65 66/132/66
f 67/133/67 66/134/66 61/135/61
f 69/136/69 71/137/71 72/138/72
f 72/139/72 71/140/71 74/141/74
f 74/142/74 73/143/73 75/144/75
f 46/145/46 49/146/49 48/147/48 47/148/47
f 77/149/77 80/150/80 79/151/79
f 79/152/79 80/153/80 81/154/81
f 89/155/89 87/156/87 84/157/84
f 84/158/84 83/159/83 88/160/88
f 86/161/86 85/162/85 87/163/87
f 86/164/86 87/165/87 89/166/89
f 87/167/87 85/168/85 83/169/83
f 88/170/88 89/171/89 84/172/84
f 97/173/97 90/174/90 92/175/92
f 19/176/19 20/177/20 11/178/11
f 93/179/93 92/180/92 94/181/94
f 93/182/93 94/183/94 96/184/96
f 96/185/96 90/186/90 95/187/95
f 97/188/97 91/189/91 95/190/95
f 96/191/96 95/192/95 91/193/91
f 99/194/99 98/195/98 100/196/100
f 102/197/102 99/198/99 100/199/100
f 102/200/102 100/201/100 101/202/101
f 101/203/101 103/204/103 102/205/102
f 102/206/102 103/207/103 104/208/104
f 104/209/104 99/210/99 102/211/102
f 110/212/110 105/213/105 106/214/106
f 107/215/107 106/216/106 108/217/108
f 106/218/106 105/219/105 109/220/109
f 108/221/108 105/222/105 111/223/111
f 118/224/118 113/225/113 119/226/119
f 113/227/113 114/228/114 115/229/115
f 19/230/19 15/231/15 17/232/17
f 115/233/115 119/234/119 113/235/113
f 121/236/121 122/237/122 123/238/123
f 122/239/122 125/240/125 120/241/120
f 121/242/121 123/243/123 124/244/124
f 128/245/128 126/246/126 129/247/129
f 130/248/130 129/249/129 126/250/126
f 132/251/132 130/252/130 131/253/131
f 131/254/131 126/255/126 127/256/127
f 132/257/132 131/258/131 127/259/127
f 135/260/135 134/261/134 136/262/136
f 136/263/136 134/264/134 133/265/133
f 137/266/137 133/267/133 138/268/138
f 135/269/135 137/270/137 138/271/138
f 141/272/141 140/273/140 142/274/142
f 146/275/146 147/276/147 141/277/141
f 143/278/143 142/279/142 144/280/144
f 144/281/144 142/282/142 145/283/145
f 144/284/144 145/285/145 146/286/146
f 147/287/147 140/288/140 141/289/141
f 155/290/155 148/291/148 149/292/149
f 148/293/148 151/294/151 149/295/149
f 148/296/148 153/297/153 151/298/151
f 151/299/151 153/300/153 150/301/150
f 150/302/150 153/303/153 154/304/154
f 152/305/152 154/306/154 155/307/155
f 149/308/149 152/309/152 155/310/155
f 154/311/154 153/312/153 148/313/148
f 156/314/156 157/315/157 158/316/158
f 158/317/158 159/318/159 160/319/160
f 162/320/162 158/321/158 160/322/160
f 161/323/161 159/324/159 157/325/157
f 160/326/160 161/327/161 162/328/162
f 161/329/161 157/330/157 156/331/156
f 164/332/164 165/333/165 169/334/169
f 168/335/168 166/336/166 167/337/167
f 165/338/165 168/339/168 169/340/169
f 3/341/3 2/342/2 4/343/4
f 6/344/6 3/345/3 5/346/5
f 8/347/8 1/348/1 2/349/2
f 11/350/11 10/351/10 12/352/12
f 11/353/11 12/354/12 14/355/14
f 14/356/14 12/357/12 13/358/13
f 19/359/19 14/360/14 15/361/15
f 16/362/16 15/363/15 13/364/13
f 16/365/16 9/366/9 18/367/18
f 17/368/17 16/369/16 18/370/18
f 21/371/21 18/372/18 9/373/9
f 20/374/20 18/375/18 21/376/21
f 19/377/19 18/378/18 20/379/20
f 24/380/24 23/381/23 22/382/22
f 29/383/29 30/384/30 25/385/25
f 29/386/29 25/387/25 26/388/26
f 26/389/26 24/390/24 27/391/27
f 29/392/29 26/393/26 27/394/27
f 29/395/29 28/396/28 30/397/30
f 30/398/30 22/399/22 23/400/23
f 34/401/34 33/402/33 35/403/35
f 35/404/35 33/405/33 31/406/31
f 36/407/36 35/408/35 31/409/31
f 34/410/34 35/411/35 36/412/36
f 34/413/34 36/414/36 37/415/37
f 37/416/37 36/417/36 31/418/31
f 44/419/44 45/420/45 39/421/39
f 43/422/43 38/423/38 45/424/45
f 39/425/39 38/426/38 40/427/40
f 41/428/41 40/429/40 42/430/42
f 44/431/44 41/432/41 42/433/42
f 42/434/42 40/435/40 43/436/43
f 42/437/42 43/438/43 45/439/45
f 44/440/44 42/441/42 45/442/45
f 48/443/48 53/444/53 47/445/47
f 52/446/52 46/447/46 47/448/47
f 51/449/51 48/450/48 49/451/49
f 49/452/49 46/453/46 50/454/50
f 48/455/48 51/456/51 53/457/53
f 52/458/52 47/459/47 53/460/53
f 60/461/60 55/462/55 56/463/56
f 56/464/56 55/465/55 57/466/57
f 57/467/57 55/468/55 54/469/54
f 58/470/58 57/471/57 54/472/54
f 56/473/56 57/474/57 58/475/58
f 58/476/58 54/477/54 59/478/59
f 60/479/60 59/480/59 55/481/55
f 67/482/67 61/483/61 62/484/62
f 62/485/62 65/486/65 63/487/63
f 64/488/64 63/489/63 66/490/66
f 67/491/67 64/492/64 66/493/66
f 69/494/69 68/495/68 71/496/71
f 70/497/70 69/498/69 72/499/72
f 74/500/74 71/501/71 73/502/73
f 70/503/70 72/504/72 74/505/74
f 73/506/73 71/507/71 68/508/68
f 70/509/70 74/510/74 75/511/75
f 75/512/75 73/513/73 68/514/68
f 76/515/76 82/516/82 80/517/80
f 78/518/78 76/519/76 77/520/77
f 78/521/78 77/522/77 79/523/79
f 78/524/78 79/525/79 81/526/81
f 82/527/82 81/528/81 80/529/80
f 82/530/82 78/531/78 81/532/81
f 82/533/82 76/534/76 78/535/78
f 80/536/80 77/537/77 76/538/76
f 84/539/84 87/540/87 83/541/83
f 88/542/88 83/543/83 85/544/85
f 88/545/88 85/546/85 86/547/86
f 89/548/89 88/549/88 86/550/86
f 91/551/91 97/552/97 92/553/92
f 94/554/94 92/555/92 90/556/90
f 96/557/96 94/558/94 90/559/90
f 97/560/97 95/561/95 90/562/90
f 99/563/99 104/564/104 98/565/98
f 100/566/100 98/567/98 101/568/101
f 101/569/101 98/570/98 103/571/103
f 104/572/104 103/573/103 98/574/98
f 111/575/111 110/576/110 107/577/107
f 107/578/107 110/579/110 106/580/106
f 108/581/108 106/582/106 109/583/109
f 111/584/111 107/585/107 108/586/108
f 108/587/108 109/588/109 105/589/105
f 111/590/111 105/591/105 110/592/110
f 113/593/113 118/594/118 112/595/112
f 114/596/114 113/597/113 112/598/112
f 114/599/114 112/600/112 116/601/116
f 117/602/117 115/603/115 114/604/114
f 114/605/114 116/606/116 117/607/117
f 117/608/117 116/609/116 118/610/118
f 118/611/118 116/612/116 112/613/112
f 115/614/115 117/615/117 119/616/119
f 121/617/121 125/618/125 122/619/122
f 123/620/123 122/621/122 120/622/120
f 123/623/123 120/624/120 124/625/124
f 124/626/124 120/627/120 125/628/125
f 124/629/124 125/630/125 121/631/121
f 126/632/126 128/633/128 127/634/127
f 127/635/127 128/636/128 129/637/129
f 132/638/132 127/639/127 129/640/129
f 135/641/135 136/642/136 137/643/137
f 137/644/137 136/645/136 133/646/133
f 139/647/139 138/648/138 133/649/133
f 135/650/135 138/651/138 139/652/139
f 139/653/139 133/654/133 134/655/134
f 146/656/146 141/657/141 143/658/143
f 143/659/143 141/660/141 142/661/142
f 146/662/146 143/663/143 144/664/144
f 145/665/145 142/666/142 140/667/140
f 146/668/146 145/669/145 147/670/147
f 147/671/147 145/672/145 140/673/140
f 148/674/148 155/675/155 154/676/154
f 149/677/149 151/678/151 150/679/150
f 149/680/149 150/681/150 152/682/152
f 152/683/152 150/684/150 154/685/154
f 162/686/162 156/687/156 158/688/158
f 159/689/159 158/690/158 157/691/157
f 160/692/160 159/693/159 161/694/161
f 161/695/161 156/696/156 162/697/162
f 166/698/166 164/699/164 163/700/163
f 165/701/165 164/702/164 166/703/166
f 167/704/167 166/705/166 163/706/163
f 169/707/169 168/708/168 167/709/167
f 169/710/169 167/711/167 164/712/164
f 164/713/164 167/714/167 163/715/163
f 139/716/139 134/717/134 135/718/135
f 91/719/91 92/720/92 93/721/93 96/722/96
f 129/723/129 130/724/130 132/725/132
f 53/726/53 51/727/51 50/728/50 52/729/52
f 69/730/69 70/731/70 75/732/75 68/733/68
f 10/734/10 21/735/21 9/736/9 12/737/12
f 126/738/126 131/739/131 130/740/130
