# Blender 5.2.2 LTS
# www.blender.org
mtllib explosionFire.mtl
o ICO球
v -0.165001 -0.032566 -0.029838
v 0.012002 -0.112846 -0.104067
v -0.290695 0.194852 -0.203350
v 0.136018 0.035968 -0.077618
v -0.068326 -0.127593 0.070281
v 0.094847 -0.268670 0.364904
v 0.107998 -0.113220 0.031830
v -0.320746 -0.265748 -0.224370
v 0.189902 -0.359827 -0.114281
v 0.058582 0.058852 0.144963
v -0.407303 0.000000 0.112507
v -0.069152 0.034537 0.123595
v 0.057117 0.000000 -0.547782
v 0.493211 0.000000 0.149748
v -0.061493 0.044714 -0.120714
v -0.238941 0.452744 0.143792
v 0.063532 0.130498 0.044174
v -0.106398 0.117006 -0.025093
v 0.081458 0.335447 -0.173397
v -0.000313 0.163510 -0.057432
v 0.051398 0.094359 0.103912
v -0.299671 0.306405 -0.038215
v -0.057672 -0.070786 0.120624
v 0.142215 0.049973 -0.062851
v 0.426667 -0.230058 -0.167842
v 0.126583 -0.072207 0.053995
v 0.099546 0.491256 0.048704
v 0.283531 0.035693 0.250256
v 0.023216 -0.161079 -0.087148
v 0.017930 0.256149 -0.293568
v 0.023015 -0.035917 -0.133047
v -0.261539 0.312329 0.431549
v 0.117530 -0.497381 0.145634
v -0.104349 0.114563 0.048269
v -0.356747 -0.044910 -0.314880
v -0.089521 -0.121939 -0.024167
v -0.126546 0.065296 -0.058825
v -0.377231 -0.059333 0.106032
v 0.084969 0.143581 0.042186
v -0.093739 0.125248 -0.032909
v 0.333075 0.237523 -0.152645
v -0.065507 -0.047836 -0.116762
v 0.073966 -0.306132 0.106870
v -0.047464 0.055844 0.131146
v -0.253976 -0.194203 0.368515
v -0.154903 -0.035699 0.041507
v 0.011763 0.502619 0.045053
v -0.395015 0.142725 0.014554
v -0.053334 -0.140893 0.064788
v 0.273263 0.177448 0.210381
v 0.074215 -0.063917 0.100055
v -0.049842 0.365938 -0.435135
v -0.324706 -0.424966 -0.036702
v 0.071362 0.105575 -0.093083
v 0.497019 -0.179581 -0.018313
v 0.055279 -0.138317 -0.043702
v 0.156786 0.027834 -0.038541
v 0.190308 -0.092479 -0.306084
v -0.060294 0.143444 0.076809
v 0.131238 0.069014 0.048495
v -0.196844 0.080381 0.348346
v 0.093647 -0.124078 0.028041
v 0.008991 0.137304 -0.077036
v 0.052045 0.113174 -0.438990
v 0.121046 -0.001683 -0.105004
v 0.095779 0.418355 0.226784
v 0.400578 0.107974 -0.090137
v -0.074955 -0.083915 -0.127936
v -0.292019 0.298190 0.055009
v -0.123058 0.026509 -0.069678
v 0.300577 -0.039606 0.452218
v 0.214046 -0.362272 -0.313853
v -0.005998 0.014930 0.142006
v -0.504019 -0.135857 0.113413
v -0.069528 -0.136256 -0.019169
v -0.125867 -0.002114 0.099822
v -0.086340 -0.289038 0.229401
vn -0.9463 -0.0951 -0.3089
vn -0.0275 -0.6397 -0.7681
vn -0.6584 0.5381 -0.5262
vn 0.7844 0.1960 -0.5885
vn -0.4599 -0.8091 0.3659
vn 0.2222 -0.6075 0.7626
vn 0.7195 -0.5753 0.3890
vn -0.6754 -0.5568 -0.4836
vn 0.4411 -0.8519 -0.2823
vn 0.0821 0.5637 0.8219
vn -0.9666 0.0047 0.2561
vn -0.3353 0.2759 0.9008
vn 0.0682 0.0238 -0.9974
vn 0.9585 -0.0401 0.2824
vn -0.3159 0.2710 -0.9093
vn -0.4716 0.8496 0.2359
vn 0.3656 0.8316 0.4180
vn -0.6034 0.7840 -0.1460
vn 0.2259 0.8638 -0.4505
vn -0.1501 0.8919 -0.4266
vn 0.3284 0.5299 0.7819
vn -0.7489 0.6600 -0.0599
vn -0.2525 -0.3863 0.8871
vn 0.8444 0.4042 -0.3515
vn 0.8514 -0.4337 -0.2949
vn 0.7387 -0.5233 0.4248
vn 0.1973 0.9753 0.0997
vn 0.7322 0.1054 0.6729
vn -0.1940 -0.6369 -0.7461
vn 0.0306 0.6567 -0.7535
vn 0.0129 -0.2282 -0.9735
vn -0.4592 0.5397 0.7056
vn 0.2530 -0.9194 0.3011
vn -0.6722 0.6240 0.3985
vn -0.7625 -0.0470 -0.6452
vn -0.6094 -0.7496 -0.2582
vn -0.7854 0.2873 -0.5482
vn -0.9467 -0.1691 0.2741
vn 0.5470 0.7892 0.2792
vn -0.6179 0.7376 -0.2723
vn 0.7678 0.4952 -0.4065
vn -0.4517 -0.2183 -0.8651
vn 0.2465 -0.9133 0.3241
vn -0.2133 0.4322 0.8762
vn -0.5305 -0.3926 0.7513
vn -0.9451 -0.2668 0.1887
vn 0.0232 0.9957 0.0894
vn -0.9359 0.3514 0.0231
vn -0.0919 -0.8658 0.4919
vn 0.7026 0.4575 0.5450
vn 0.4898 -0.3623 0.7930
vn -0.0507 0.6451 -0.7624
vn -0.6192 -0.7831 -0.0584
vn 0.3320 0.5550 -0.7627
vn 0.9532 -0.2980 -0.0522
vn 0.3207 -0.8717 -0.3704
vn 0.9834 0.0547 -0.1730
vn 0.4852 -0.2662 -0.8329
vn -0.3403 0.7530 0.5632
vn 0.7807 0.4399 0.4438
vn -0.4744 0.1135 0.8729
vn 0.6256 -0.7136 0.3152
vn 0.0611 0.8899 -0.4520
vn 0.1537 0.2563 -0.9543
vn 0.6164 -0.1149 -0.7790
vn 0.1999 0.8572 0.4746
vn 0.9448 0.2600 -0.1994
vn -0.7271 -0.4114 -0.5497
vn -0.6932 0.7072 0.1387
vn -0.8132 0.1024 -0.5729
vn 0.5167 -0.0646 0.8537
vn 0.4399 -0.6644 -0.6042
vn 0.0876 -0.0063 0.9961
vn -0.9389 -0.2366 0.2501
vn -0.5258 -0.8263 -0.2018
vn -0.7850 -0.1013 0.6112
vn -0.2127 -0.7703 0.6011
vt 0.131331 0.001001
vt 0.001001 0.001001
vt 0.001001 0.122998
vt 0.131331 0.126001
vt 0.001001 0.247998
vt 0.001001 0.126001
vt 0.134334 0.001001
vt 0.134334 0.122998
vt 0.264665 0.001001
vt 0.134334 0.126001
vt 0.264665 0.126001
vt 0.134334 0.247998
vt 0.001001 0.251001
vt 0.001001 0.372998
vt 0.131331 0.251001
vt 0.397998 0.001001
vt 0.267668 0.001001
vt 0.267668 0.122998
vt 0.267668 0.126001
vt 0.267668 0.247998
vt 0.397998 0.126001
vt 0.134334 0.251001
vt 0.264665 0.251001
vt 0.134334 0.372998
vt 0.267668 0.251001
vt 0.397998 0.251001
vt 0.267668 0.372998
vt 0.001001 0.497998
vt 0.131331 0.376001
vt 0.001001 0.376001
vt 0.934334 0.622998
vt 0.997998 0.501001
vt 0.934334 0.501001
vt 0.534334 0.935498
vt 0.664665 0.876001
vt 0.534334 0.876001
vt 0.401001 0.126001
vt 0.401001 0.247998
vt 0.531331 0.126001
vt 0.267668 0.376001
vt 0.397998 0.376001
vt 0.267668 0.497998
vt 0.401001 0.372998
vt 0.401001 0.251001
vt 0.531331 0.251001
vt 0.934334 0.810498
vt 0.934334 0.751001
vt 0.997998 0.751001
vt 0.934334 0.251001
vt 0.934334 0.372998
vt 0.997998 0.251001
vt 0.534334 0.122998
vt 0.534334 0.001001
vt 0.664665 0.001001
vt 0.534334 0.247998
vt 0.534334 0.126001
vt 0.664665 0.126001
vt 0.267668 0.935498
vt 0.267668 0.876001
vt 0.397998 0.876001
vt 0.934334 0.126001
vt 0.934334 0.247998
vt 0.997998 0.126001
vt 0.534334 0.372998
vt 0.534334 0.251001
vt 0.664665 0.251001
vt 0.534334 0.497998
vt 0.534334 0.376001
vt 0.664665 0.376001
vt 0.531331 0.501001
vt 0.401001 0.501001
vt 0.401001 0.622998
vt 0.001001 0.876001
vt 0.001001 0.935498
vt 0.131331 0.876001
vt 0.931331 0.751001
vt 0.867668 0.872998
vt 0.867668 0.751001
vt 0.001001 0.747998
vt 0.131331 0.626001
vt 0.001001 0.626001
vt 0.667668 0.872998
vt 0.797998 0.813501
vt 0.667668 0.813501
vt 0.134334 0.747998
vt 0.134334 0.626001
vt 0.264665 0.626001
vt 0.267668 0.747998
vt 0.397998 0.626001
vt 0.267668 0.626001
vt 0.667668 0.372998
vt 0.667668 0.251001
vt 0.797998 0.251001
vt 0.401001 0.626001
vt 0.531331 0.626001
vt 0.401001 0.747998
vt 0.797998 0.376001
vt 0.667668 0.376001
vt 0.667668 0.497998
vt 0.534334 0.747998
vt 0.534334 0.626001
vt 0.664665 0.626001
vt 0.797998 0.501001
vt 0.667668 0.501001
vt 0.667668 0.622998
vt 0.668669 0.623999
vt 0.798999 0.502002
vt 0.798999 0.623999
vt 0.667668 0.626001
vt 0.667668 0.747998
vt 0.797998 0.626001
vt 0.801001 0.001001
vt 0.931331 0.001001
vt 0.801001 0.122998
vt 0.001001 0.751001
vt 0.001001 0.872998
vt 0.131331 0.751001
vt 0.931331 0.626001
vt 0.867668 0.626001
vt 0.867668 0.747998
vt 0.264665 0.751001
vt 0.134334 0.872998
vt 0.134334 0.751001
vt 0.265666 0.373999
vt 0.135335 0.373999
vt 0.265666 0.252002
vt 0.534334 0.810498
vt 0.534334 0.751001
vt 0.664665 0.751001
vt 0.801001 0.372998
vt 0.931331 0.251001
vt 0.801001 0.251001
vt 0.801001 0.622998
vt 0.864665 0.501001
vt 0.801001 0.501001
vt 0.001001 0.938501
vt 0.131331 0.938501
vt 0.001001 0.997998
vt 0.801001 0.376001
vt 0.801001 0.497998
vt 0.931331 0.376001
vt 0.932332 0.498999
vt 0.802002 0.498999
vt 0.932332 0.377002
vt 0.267668 0.872998
vt 0.397998 0.751001
vt 0.267668 0.751001
vt 0.864665 0.626001
vt 0.801001 0.626001
vt 0.801001 0.747998
vt 0.667668 0.751001
vt 0.797998 0.751001
vt 0.667668 0.810498
vt 0.867668 0.622998
vt 0.931331 0.501001
vt 0.867668 0.501001
vt 0.801001 0.247998
vt 0.801001 0.126001
vt 0.931331 0.126001
vt 0.534334 0.872998
vt 0.534334 0.813501
vt 0.664665 0.813501
vt 0.801001 0.751001
vt 0.801001 0.872998
vt 0.864665 0.751001
vt 0.667668 0.247998
vt 0.667668 0.126001
vt 0.797998 0.126001
vt 0.667668 0.122998
vt 0.667668 0.001001
vt 0.797998 0.001001
vt 0.664665 0.501001
vt 0.534334 0.501001
vt 0.534334 0.622998
vt 0.134334 0.876001
vt 0.134334 0.935498
vt 0.264665 0.876001
vt 0.997998 0.001001
vt 0.934334 0.122998
vt 0.934334 0.001001
vt 0.535335 0.811499
vt 0.665666 0.752002
vt 0.665666 0.811499
vt 0.798999 0.752002
vt 0.668669 0.811499
vt 0.798999 0.811499
vt 0.267668 0.622998
vt 0.267668 0.501001
vt 0.397998 0.501001
vt 0.134334 0.622998
vt 0.264665 0.501001
vt 0.134334 0.501001
vt 0.265666 0.502002
vt 0.265666 0.623999
vt 0.135335 0.623999
vt 0.001001 0.501001
vt 0.131331 0.501001
vt 0.001001 0.622998
vt 0.531331 0.376001
vt 0.401001 0.376001
vt 0.401001 0.497998
vt 0.398999 0.752002
vt 0.268669 0.873999
vt 0.398999 0.873999
vt 0.264665 0.376001
vt 0.134334 0.376001
vt 0.134334 0.497998
vt 0.135335 0.498999
vt 0.265666 0.377002
vt 0.265666 0.498999
vt 0.798999 0.748999
vt 0.798999 0.627002
vt 0.668669 0.748999
vt 0.932332 0.123999
vt 0.802002 0.123999
vt 0.932332 0.002002
vt 0.132332 0.873999
vt 0.132332 0.752002
vt 0.002002 0.873999
vt 0.667668 0.935498
vt 0.667668 0.876001
vt 0.797998 0.876001
vt 0.997998 0.376001
vt 0.934334 0.497998
vt 0.934334 0.376001
vt 0.531331 0.001001
vt 0.401001 0.001001
vt 0.401001 0.122998
vt 0.398999 0.373999
vt 0.268669 0.373999
vt 0.398999 0.252002
vt 0.532332 0.002002
vt 0.532332 0.123999
vt 0.402002 0.123999
vt 0.931331 0.876001
vt 0.801001 0.935498
vt 0.801001 0.876001
vt 0.132332 0.939502
vt 0.002002 0.998999
vt 0.132332 0.998999
vt 0.265666 0.873999
vt 0.265666 0.752002
vt 0.135335 0.873999
vt 0.532332 0.248999
vt 0.402002 0.248999
vt 0.532332 0.127002
vt 0.932332 0.502002
vt 0.868669 0.623999
vt 0.932332 0.623999
vt 0.997998 0.626001
vt 0.934334 0.747998
vt 0.934334 0.626001
vt 0.865666 0.748999
vt 0.802002 0.748999
vt 0.865666 0.627002
vt 0.798999 0.936499
vt 0.668669 0.936499
vt 0.798999 0.877002
vt 0.932332 0.627002
vt 0.932332 0.748999
vt 0.868669 0.748999
vt 0.932332 0.127002
vt 0.932332 0.248999
vt 0.802002 0.248999
vt 0.665666 0.814502
vt 0.665666 0.873999
vt 0.535335 0.873999
vt 0.865666 0.873999
vt 0.865666 0.752002
vt 0.802002 0.873999
vt 0.798999 0.127002
vt 0.668669 0.248999
vt 0.798999 0.248999
vt 0.798999 0.002002
vt 0.798999 0.123999
vt 0.668669 0.123999
vt 0.535335 0.623999
vt 0.665666 0.623999
vt 0.665666 0.502002
vt 0.865666 0.623999
vt 0.802002 0.623999
vt 0.865666 0.502002
vt 0.935335 0.123999
vt 0.998999 0.002002
vt 0.998999 0.123999
vt 0.802002 0.936499
vt 0.932332 0.877002
vt 0.932332 0.936499
vt 0.935335 0.748999
vt 0.998999 0.748999
vt 0.998999 0.627002
vt 0.935335 0.498999
vt 0.998999 0.377002
vt 0.998999 0.498999
vt 0.531331 0.876001
vt 0.401001 0.935498
vt 0.401001 0.876001
vt 0.401001 0.872998
vt 0.531331 0.751001
vt 0.401001 0.751001
vt 0.798999 0.252002
vt 0.798999 0.373999
vt 0.668669 0.373999
vt 0.132332 0.623999
vt 0.002002 0.623999
vt 0.132332 0.502002
vt 0.402002 0.498999
vt 0.532332 0.498999
vt 0.532332 0.377002
vt 0.402002 0.936499
vt 0.532332 0.877002
vt 0.532332 0.936499
vt 0.002002 0.123999
vt 0.132332 0.123999
vt 0.132332 0.002002
vt 0.002002 0.248999
vt 0.132332 0.127002
vt 0.132332 0.248999
vt 0.265666 0.123999
vt 0.265666 0.002002
vt 0.135335 0.123999
vt 0.265666 0.248999
vt 0.135335 0.248999
vt 0.265666 0.127002
vt 0.132332 0.373999
vt 0.132332 0.252002
vt 0.002002 0.373999
vt 0.402002 0.373999
vt 0.532332 0.373999
vt 0.532332 0.252002
vt 0.398999 0.248999
vt 0.398999 0.127002
vt 0.268669 0.248999
vt 0.932332 0.373999
vt 0.802002 0.373999
vt 0.932332 0.252002
vt 0.265666 0.936499
vt 0.265666 0.877002
vt 0.135335 0.936499
vt 0.132332 0.377002
vt 0.002002 0.498999
vt 0.132332 0.498999
vt 0.998999 0.502002
vt 0.935335 0.623999
vt 0.998999 0.623999
vt 0.665666 0.877002
vt 0.535335 0.936499
vt 0.665666 0.936499
vt 0.398999 0.623999
vt 0.398999 0.502002
vt 0.268669 0.623999
vt 0.398999 0.498999
vt 0.268669 0.498999
vt 0.398999 0.377002
vt 0.398999 0.002002
vt 0.398999 0.123999
vt 0.268669 0.123999
vt 0.998999 0.752002
vt 0.998999 0.811499
vt 0.935335 0.811499
vt 0.998999 0.373999
vt 0.998999 0.252002
vt 0.935335 0.373999
vt 0.665666 0.002002
vt 0.665666 0.123999
vt 0.535335 0.123999
vt 0.665666 0.127002
vt 0.665666 0.248999
vt 0.535335 0.248999
vt 0.398999 0.877002
vt 0.398999 0.936499
vt 0.268669 0.936499
vt 0.998999 0.248999
vt 0.998999 0.127002
vt 0.935335 0.248999
vt 0.665666 0.252002
vt 0.665666 0.373999
vt 0.535335 0.373999
vt 0.665666 0.377002
vt 0.665666 0.498999
vt 0.535335 0.498999
vt 0.402002 0.623999
vt 0.532332 0.623999
vt 0.532332 0.502002
vt 0.132332 0.936499
vt 0.132332 0.877002
vt 0.002002 0.936499
vt 0.868669 0.873999
vt 0.932332 0.752002
vt 0.932332 0.873999
vt 0.132332 0.627002
vt 0.002002 0.748999
vt 0.132332 0.748999
vt 0.798999 0.814502
vt 0.668669 0.873999
vt 0.798999 0.873999
vt 0.265666 0.627002
vt 0.265666 0.748999
vt 0.135335 0.748999
vt 0.398999 0.627002
vt 0.268669 0.748999
vt 0.398999 0.748999
vt 0.532332 0.752002
vt 0.532332 0.873999
vt 0.402002 0.873999
vt 0.532332 0.748999
vt 0.402002 0.748999
vt 0.532332 0.627002
vt 0.668669 0.498999
vt 0.798999 0.498999
vt 0.798999 0.377002
vt 0.665666 0.627002
vt 0.535335 0.748999
vt 0.665666 0.748999
s 1
usemtl マテリアル
f 5/1/5 2/2/2 9/3/9
f 5/4/5 9/5/9 7/6/7
f 5/7/5 6/8/6 12/9/12
f 1/10/1 5/11/5 11/12/11
f 2/13/2 8/14/8 15/15/15
f 2/16/2 15/17/15 13/18/13
f 7/19/7 14/20/14 10/21/10
f 4/22/4 15/23/15 19/24/19
f 17/25/17 4/26/4 19/27/19
f 19/28/19 18/29/18 17/30/17
f 19/31/19 15/32/15 18/33/18
f 15/34/15 3/35/3 18/36/18
f 18/37/18 16/38/16 17/39/17
f 18/40/18 12/41/12 16/42/16
f 16/43/16 12/44/12 17/45/17
f 12/46/12 10/47/10 17/48/17
f 10/49/10 14/50/14 17/51/17
f 14/52/14 4/53/4 17/54/17
f 13/55/13 15/56/15 4/57/4
f 1/58/1 18/59/18 3/60/3
f 1/61/1 11/62/11 18/63/18
f 11/64/11 12/65/12 18/66/18
f 14/67/14 7/68/7 4/69/4
f 4/70/4 2/71/2 13/72/13
f 15/73/15 1/74/1 3/75/3
f 15/76/15 8/77/8 1/78/1
f 11/79/11 5/80/5 12/81/12
f 12/82/12 6/83/6 10/84/10
f 6/85/6 7/86/7 10/87/10
f 9/88/9 4/89/4 7/90/7
f 9/91/9 2/92/2 4/93/4
f 2/94/2 5/95/5 8/96/8
f 5/97/5 1/98/1 8/99/8
f 6/100/6 5/101/5 7/102/7
f 24/103/24 21/104/21 28/105/28
f 24/106/24 28/107/28 26/108/26
f 24/109/24 25/110/25 31/111/31
f 20/112/20 24/113/24 30/114/30
f 21/115/21 27/116/27 34/117/34
f 21/118/21 34/119/34 32/120/32
f 26/121/26 33/122/33 29/123/29
f 23/124/23 34/125/34 38/126/38
f 36/127/36 23/128/23 38/129/38
f 38/130/38 37/131/37 36/132/36
f 38/133/38 34/134/34 37/135/37
f 34/136/34 22/137/22 37/138/37
f 37/139/37 35/140/35 36/141/36
f 37/142/37 31/143/31 35/144/35
f 35/145/35 31/146/31 36/147/36
f 31/148/31 29/149/29 36/150/36
f 29/151/29 33/152/33 36/153/36
f 33/154/33 23/155/23 36/156/36
f 32/157/32 34/158/34 23/159/23
f 20/160/20 37/161/37 22/162/22
f 20/163/20 30/164/30 37/165/37
f 30/166/30 31/167/31 37/168/37
f 33/169/33 26/170/26 23/171/23
f 23/172/23 21/173/21 32/174/32
f 34/175/34 20/176/20 22/177/22
f 34/178/34 27/179/27 20/180/20
f 30/181/30 24/182/24 31/183/31
f 31/184/31 25/185/25 29/186/29
f 25/187/25 26/188/26 29/189/29
f 28/190/28 23/191/23 26/192/26
f 28/193/28 21/194/21 23/195/23
f 21/196/21 24/197/24 27/198/27
f 24/199/24 20/200/20 27/201/27
f 25/202/25 24/203/24 26/204/26
f 44/205/44 40/206/40 48/207/48
f 44/208/44 48/209/48 46/210/46
f 44/211/44 45/212/45 51/213/51
f 39/214/39 44/215/44 50/216/50
f 40/217/40 47/218/47 54/219/54
f 40/220/40 54/221/54 52/222/52
f 46/223/46 53/224/53 49/225/49
f 42/226/42 54/227/54 58/228/58
f 56/229/56 42/230/42 58/231/58
f 58/232/58 57/233/57 56/234/56
f 58/235/58 54/236/54 57/237/57
f 54/238/54 41/239/41 57/240/57
f 57/241/57 55/242/55 56/243/56
f 57/244/57 51/245/51 55/246/55
f 55/247/55 51/248/51 56/249/56
f 51/250/51 43/251/43 56/252/56
f 49/253/49 56/254/56 43/255/43
f 49/256/49 53/257/53 56/258/56
f 53/259/53 42/260/42 56/261/56
f 52/262/52 54/263/54 42/264/42
f 39/265/39 57/266/57 41/267/41
f 39/268/39 50/269/50 57/270/57
f 50/271/50 51/272/51 57/273/57
f 53/274/53 46/275/46 42/276/42
f 42/277/42 40/278/40 52/279/52
f 54/280/54 39/281/39 41/282/41
f 54/283/54 47/284/47 39/285/39
f 50/286/50 44/287/44 51/288/51
f 51/289/51 49/290/49 43/291/43
f 51/292/51 45/293/45 49/294/49
f 45/295/45 46/296/46 49/297/49
f 48/298/48 42/299/42 46/300/46
f 48/301/48 40/302/40 42/303/42
f 40/304/40 44/305/44 47/306/47
f 44/307/44 39/308/39 47/309/47
f 45/310/45 44/311/44 46/312/46
f 63/313/63 60/314/60 67/315/67
f 63/316/63 67/317/67 65/318/65
f 63/319/63 64/320/64 70/321/70
f 59/322/59 63/323/63 69/324/69
f 60/325/60 66/326/66 73/327/73
f 60/328/60 73/329/73 71/330/71
f 65/331/65 72/332/72 68/333/68
f 62/334/62 73/335/73 77/336/77
f 75/337/75 62/338/62 77/339/77
f 77/340/77 76/341/76 75/342/75
f 77/343/77 73/344/73 76/345/76
f 73/346/73 61/347/61 76/348/76
f 76/349/76 74/350/74 75/351/75
f 76/352/76 70/353/70 74/354/74
f 74/355/74 70/356/70 75/357/75
f 70/358/70 68/359/68 75/360/75
f 68/361/68 72/362/72 75/363/75
f 72/364/72 62/365/62 75/366/75
f 71/367/71 73/368/73 62/369/62
f 59/370/59 76/371/76 61/372/61
f 59/373/59 69/374/69 76/375/76
f 69/376/69 70/377/70 76/378/76
f 72/379/72 65/380/65 62/381/62
f 62/382/62 60/383/60 71/384/71
f 73/385/73 59/386/59 61/387/61
f 73/388/73 66/389/66 59/390/59
f 69/391/69 63/392/63 70/393/70
f 70/394/70 64/395/64 68/396/68
f 64/397/64 65/398/65 68/399/68
f 67/400/67 62/401/62 65/402/65
f 67/403/67 60/404/60 62/405/62
f 60/406/60 63/407/63 66/408/66
f 63/409/63 59/410/59 66/411/66
f 64/412/64 63/413/63 65/414/65
