# Blender 5.2.0 LTS
# www.blender.org
mtllib unitSphere.mtl
o 球
v 0.000000 1.000000 0.000000
v 0.000000 0.980785 -0.195090
v 0.000000 0.923880 -0.382683
v 0.000000 0.707107 -0.707107
v 0.000000 0.382683 -0.923880
v 0.000000 0.195090 -0.980785
v 0.000000 -0.195090 -0.980785
v 0.000000 -0.555570 -0.831470
v 0.000000 -0.831470 -0.555570
v 0.000000 -0.923880 -0.382683
v 0.000000 -0.980785 -0.195090
v 0.000000 -1.000000 0.000000
v 0.074658 0.980785 -0.180240
v 0.146447 0.923880 -0.353553
v 0.212608 0.831470 -0.513280
v 0.270598 0.707107 -0.653281
v 0.318190 0.555570 -0.768178
v 0.353553 0.382683 -0.853553
v 0.375330 0.195090 -0.906127
v 0.382683 0.000000 -0.923880
v 0.375330 -0.195090 -0.906127
v 0.353553 -0.382683 -0.853553
v 0.318190 -0.555570 -0.768178
v 0.270598 -0.707107 -0.653281
v 0.212608 -0.831470 -0.513280
v 0.146447 -0.923880 -0.353553
v 0.074658 -0.980785 -0.180240
v 0.137950 0.980785 -0.137950
v 0.270598 0.923880 -0.270598
v 0.392848 0.831470 -0.392847
v 0.500000 0.707107 -0.500000
v 0.587938 0.555570 -0.587938
v 0.653282 0.382683 -0.653281
v 0.693520 0.195090 -0.693520
v 0.707107 0.000000 -0.707107
v 0.693520 -0.195090 -0.693520
v 0.653282 -0.382683 -0.653281
v 0.587938 -0.555570 -0.587938
v 0.500000 -0.707107 -0.500000
v 0.392848 -0.831470 -0.392847
v 0.270598 -0.923880 -0.270598
v 0.137950 -0.980785 -0.137950
v 0.180240 0.980785 -0.074658
v 0.353553 0.923880 -0.146447
v 0.513280 0.831470 -0.212608
v 0.653281 0.707107 -0.270598
v 0.768178 0.555570 -0.318190
v 0.853553 0.382683 -0.353553
v 0.906127 0.195090 -0.375330
v 0.923880 0.000000 -0.382683
v 0.906127 -0.195090 -0.375330
v 0.853553 -0.382683 -0.353553
v 0.768178 -0.555570 -0.318190
v 0.653281 -0.707107 -0.270598
v 0.513280 -0.831470 -0.212608
v 0.353553 -0.923880 -0.146447
v 0.180240 -0.980785 -0.074658
v 0.195090 0.980785 0.000000
v 0.382683 0.923880 0.000000
v 0.555570 0.831470 0.000000
v 0.707107 0.707107 0.000000
v 0.831470 0.555570 0.000000
v 0.923880 0.382683 0.000000
v 0.980785 0.195090 0.000000
v 1.000000 0.000000 0.000000
v 0.980785 -0.195090 0.000000
v 0.923880 -0.382683 0.000000
v 0.831470 -0.555570 0.000000
v 0.707107 -0.707107 0.000000
v 0.555570 -0.831470 0.000000
v 0.382683 -0.923880 0.000000
v 0.195090 -0.980785 0.000000
v 0.180240 0.980785 0.074658
v 0.353553 0.923880 0.146447
v 0.513280 0.831470 0.212608
v 0.653281 0.707107 0.270598
v 0.768178 0.555570 0.318190
v 0.853553 0.382683 0.353554
v 0.906127 0.195090 0.375330
v 0.923879 0.000000 0.382684
v 0.906127 -0.195090 0.375330
v 0.853553 -0.382683 0.353554
v 0.768178 -0.555570 0.318190
v 0.653281 -0.707107 0.270598
v 0.513280 -0.831470 0.212608
v 0.353553 -0.923880 0.146447
v 0.180240 -0.980785 0.074658
v 0.137950 0.980785 0.137950
v 0.270598 0.923880 0.270598
v 0.392847 0.831470 0.392848
v 0.500000 0.707107 0.500000
v 0.587938 0.555570 0.587938
v 0.653281 0.382683 0.653282
v 0.693520 0.195090 0.693520
v 0.707107 0.000000 0.707107
v 0.693520 -0.195090 0.693520
v 0.653281 -0.382683 0.653282
v 0.587938 -0.555570 0.587938
v 0.500000 -0.707107 0.500000
v 0.392847 -0.831470 0.392848
v 0.270598 -0.923880 0.270598
v 0.137950 -0.980785 0.137950
v 0.074658 0.980785 0.180240
v 0.146447 0.923880 0.353553
v 0.212607 0.831470 0.513280
v 0.270598 0.707107 0.653281
v 0.318189 0.555570 0.768178
v 0.353553 0.382683 0.853553
v 0.375330 0.195090 0.906127
v 0.382683 0.000000 0.923880
v 0.375330 -0.195090 0.906127
v 0.353553 -0.382683 0.853553
v 0.318189 -0.555570 0.768178
v 0.270598 -0.707107 0.653281
v 0.212607 -0.831470 0.513280
v 0.146447 -0.923880 0.353553
v 0.074658 -0.980785 0.180240
v -0.000000 0.980785 0.195090
v -0.000000 0.923880 0.382683
v -0.000000 0.831470 0.555570
v -0.000000 0.707107 0.707107
v -0.000000 0.555570 0.831469
v -0.000000 0.382683 0.923879
v -0.000000 0.195090 0.980785
v -0.000000 0.000000 1.000000
v -0.000000 -0.195090 0.980785
v -0.000000 -0.382683 0.923879
v -0.000000 -0.555570 0.831469
v -0.000000 -0.707107 0.707107
v -0.000000 -0.831470 0.555570
v -0.000000 -0.923880 0.382683
v -0.000000 -0.980785 0.195090
v -0.074658 0.980785 0.180240
v -0.146447 0.923880 0.353553
v -0.212608 0.831470 0.513280
v -0.270598 0.707107 0.653281
v -0.318190 0.555570 0.768178
v -0.353554 0.382683 0.853553
v -0.375331 0.195090 0.906127
v -0.382684 0.000000 0.923879
v -0.375331 -0.195090 0.906127
v -0.353554 -0.382683 0.853553
v -0.318190 -0.555570 0.768178
v -0.270598 -0.707107 0.653281
v -0.212608 -0.831470 0.513280
v -0.146447 -0.923880 0.353553
v -0.074658 -0.980785 0.180240
v -0.137950 0.980785 0.137950
v -0.270598 0.923880 0.270598
v -0.392848 0.831470 0.392847
v -0.500000 0.707107 0.500000
v -0.587938 0.555570 0.587938
v -0.653282 0.382683 0.653281
v -0.693520 0.195090 0.693520
v -0.707107 0.000000 0.707106
v -0.693520 -0.195090 0.693520
v -0.653282 -0.382683 0.653281
v -0.587938 -0.555570 0.587938
v -0.500000 -0.707107 0.500000
v -0.392848 -0.831470 0.392847
v -0.270598 -0.923880 0.270598
v -0.137950 -0.980785 0.137950
v -0.180240 0.980785 0.074658
v -0.353553 0.923880 0.146446
v -0.513280 0.831470 0.212607
v -0.653281 0.707107 0.270598
v -0.768178 0.555570 0.318189
v -0.853553 0.382683 0.353553
v -0.906127 0.195090 0.375330
v -0.923880 0.000000 0.382683
v -0.906127 -0.195090 0.375330
v -0.853553 -0.382683 0.353553
v -0.768178 -0.555570 0.318189
v -0.653281 -0.707107 0.270598
v -0.513280 -0.831470 0.212607
v -0.353553 -0.923880 0.146446
v -0.180240 -0.980785 0.074658
v -0.195090 0.980785 -0.000000
v -0.382683 0.923880 -0.000000
v -0.555570 0.831470 -0.000000
v -0.707107 0.707107 -0.000000
v -0.831469 0.555570 -0.000000
v -0.923879 0.382683 -0.000000
v -0.980785 0.195090 -0.000000
v -1.000000 0.000000 -0.000001
v -0.980785 -0.195090 -0.000000
v -0.923879 -0.382683 -0.000000
v -0.831469 -0.555570 -0.000000
v -0.707107 -0.707107 -0.000000
v -0.555570 -0.831470 -0.000000
v -0.382683 -0.923880 -0.000000
v -0.195090 -0.980785 -0.000000
v -0.180240 0.980785 -0.074658
v -0.353553 0.923880 -0.146447
v -0.513280 0.831470 -0.212608
v -0.653281 0.707107 -0.270598
v -0.768178 0.555570 -0.318190
v -0.853553 0.382683 -0.353554
v -0.906127 0.195090 -0.375331
v -0.923879 0.000000 -0.382684
v -0.906127 -0.195090 -0.375331
v -0.853553 -0.382683 -0.353554
v -0.768178 -0.555570 -0.318190
v -0.653281 -0.707107 -0.270598
v -0.513280 -0.831470 -0.212608
v -0.353553 -0.923880 -0.146447
v -0.180240 -0.980785 -0.074658
v -0.137950 0.980785 -0.137950
v -0.270598 0.923880 -0.270598
v -0.392847 0.831470 -0.392848
v -0.500000 0.707107 -0.500000
v -0.587937 0.555570 -0.587938
v -0.653281 0.382683 -0.653282
v -0.693519 0.195090 -0.693520
v -0.707106 0.000000 -0.707107
v -0.693519 -0.195090 -0.693520
v -0.653281 -0.382683 -0.653282
v -0.587937 -0.555570 -0.587938
v -0.500000 -0.707107 -0.500000
v -0.392847 -0.831470 -0.392848
v -0.270598 -0.923880 -0.270598
v -0.137950 -0.980785 -0.137950
v -0.074658 0.980785 -0.180240
v -0.146446 0.923880 -0.353554
v -0.212607 0.831470 -0.513280
v -0.270598 0.707107 -0.653281
v -0.318189 0.555570 -0.768178
v -0.353553 0.382683 -0.853553
v -0.375330 0.195090 -0.906127
v -0.382683 0.000000 -0.923880
v -0.375330 -0.195090 -0.906127
v -0.353553 -0.382683 -0.853553
v -0.318189 -0.555570 -0.768178
v -0.270598 -0.707107 -0.653281
v -0.212607 -0.831470 -0.513280
v -0.146446 -0.923880 -0.353554
v -0.074658 -0.980785 -0.180240
v 0.000000 0.831470 -0.555570
v 0.000000 0.555570 -0.831469
v 0.000001 0.000000 -1.000000
v 0.000001 -0.382683 -0.923879
v 0.000000 -0.707107 -0.707107
vn 0.1870 0.2852 -0.9401
vn 0.0576 -0.9553 -0.2898
vn 0.1942 0.0962 -0.9762
vn 0.0195 0.9950 -0.0980
vn 0.0195 -0.9950 -0.0980
vn 0.1942 -0.0962 -0.9762
vn 0.0576 0.9553 -0.2898
vn 0.1870 -0.2852 -0.9401
vn 0.0934 0.8781 -0.4693
vn 0.1728 -0.4643 -0.8687
vn 0.1252 0.7669 -0.6294
vn 0.1520 -0.6270 -0.7640
vn 0.1520 0.6270 -0.7640
vn 0.1252 -0.7669 -0.6294
vn 0.1728 0.4643 -0.8687
vn 0.0934 -0.8781 -0.4693
vn 0.3565 -0.7669 -0.5336
vn 0.4921 0.4643 -0.7364
vn 0.2659 -0.8781 -0.3979
vn 0.5325 0.2852 -0.7969
vn 0.1642 -0.9553 -0.2457
vn 0.5530 0.0962 -0.8276
vn 0.0555 0.9950 -0.0831
vn 0.0555 -0.9950 -0.0831
vn 0.5530 -0.0962 -0.8276
vn 0.1642 0.9553 -0.2457
vn 0.5325 -0.2852 -0.7969
vn 0.2659 0.8781 -0.3979
vn 0.4921 -0.4643 -0.7364
vn 0.3565 0.7669 -0.5336
vn 0.4328 -0.6270 -0.6477
vn 0.4328 0.6270 -0.6477
vn 0.7969 -0.2852 -0.5325
vn 0.3979 0.8781 -0.2659
vn 0.7364 -0.4643 -0.4921
vn 0.5336 0.7669 -0.3565
vn 0.6477 -0.6270 -0.4328
vn 0.6477 0.6270 -0.4328
vn 0.5336 -0.7669 -0.3565
vn 0.7364 0.4643 -0.4921
vn 0.3979 -0.8781 -0.2659
vn 0.7969 0.2852 -0.5325
vn 0.2457 -0.9553 -0.1642
vn 0.8276 0.0962 -0.5530
vn 0.0831 0.9950 -0.0555
vn 0.0831 -0.9950 -0.0555
vn 0.8276 -0.0962 -0.5530
vn 0.2457 0.9553 -0.1642
vn 0.4693 -0.8781 -0.0934
vn 0.9401 0.2852 -0.1870
vn 0.2898 -0.9553 -0.0576
vn 0.9762 0.0962 -0.1942
vn 0.0980 0.9950 -0.0195
vn 0.0980 -0.9950 -0.0195
vn 0.9762 -0.0962 -0.1942
vn 0.2898 0.9553 -0.0576
vn 0.9401 -0.2852 -0.1870
vn 0.4693 0.8781 -0.0934
vn 0.8687 -0.4643 -0.1728
vn 0.6294 0.7669 -0.1252
vn 0.7640 -0.6270 -0.1520
vn 0.7640 0.6270 -0.1520
vn 0.6294 -0.7669 -0.1252
vn 0.8687 0.4643 -0.1728
vn 0.4693 0.8781 0.0934
vn 0.8687 -0.4643 0.1728
vn 0.6294 0.7669 0.1252
vn 0.7640 -0.6270 0.1520
vn 0.7640 0.6270 0.1520
vn 0.6294 -0.7669 0.1252
vn 0.8687 0.4643 0.1728
vn 0.4693 -0.8781 0.0934
vn 0.9401 0.2852 0.1870
vn 0.2898 -0.9553 0.0576
vn 0.9762 0.0962 0.1942
vn 0.0980 0.9950 0.0195
vn 0.0980 -0.9950 0.0195
vn 0.9762 -0.0962 0.1942
vn 0.2898 0.9553 0.0576
vn 0.9401 -0.2852 0.1870
vn 0.7969 0.2852 0.5325
vn 0.2457 -0.9553 0.1642
vn 0.8276 0.0962 0.5530
vn 0.0831 0.9950 0.0555
vn 0.0831 -0.9950 0.0555
vn 0.8276 -0.0962 0.5530
vn 0.2457 0.9553 0.1642
vn 0.7969 -0.2852 0.5325
vn 0.3979 0.8781 0.2659
vn 0.7364 -0.4643 0.4921
vn 0.5336 0.7669 0.3565
vn 0.6477 -0.6270 0.4328
vn 0.6477 0.6270 0.4328
vn 0.5336 -0.7669 0.3565
vn 0.7364 0.4643 0.4921
vn 0.3979 -0.8781 0.2659
vn 0.4921 -0.4643 0.7364
vn 0.3565 0.7669 0.5336
vn 0.4328 -0.6270 0.6477
vn 0.4328 0.6270 0.6477
vn 0.3565 -0.7669 0.5336
vn 0.4921 0.4643 0.7364
vn 0.2659 -0.8781 0.3979
vn 0.5325 0.2852 0.7969
vn 0.1642 -0.9553 0.2457
vn 0.5530 0.0962 0.8276
vn 0.0555 0.9950 0.0831
vn 0.0555 -0.9950 0.0831
vn 0.5530 -0.0962 0.8276
vn 0.1642 0.9553 0.2457
vn 0.5325 -0.2852 0.7969
vn 0.2659 0.8781 0.3979
vn 0.0576 -0.9553 0.2898
vn 0.1942 0.0962 0.9762
vn 0.0195 0.9950 0.0980
vn 0.0195 -0.9950 0.0980
vn 0.1942 -0.0962 0.9762
vn 0.0576 0.9553 0.2898
vn 0.1870 -0.2852 0.9401
vn 0.0934 0.8781 0.4693
vn 0.1728 -0.4643 0.8687
vn 0.1252 0.7669 0.6294
vn 0.1520 -0.6270 0.7640
vn 0.1520 0.6270 0.7640
vn 0.1252 -0.7669 0.6294
vn 0.1728 0.4643 0.8687
vn 0.0934 -0.8781 0.4693
vn 0.1870 0.2852 0.9401
vn -0.1252 0.7669 0.6294
vn -0.1520 -0.6270 0.7640
vn -0.1520 0.6270 0.7640
vn -0.1252 -0.7669 0.6294
vn -0.1728 0.4643 0.8687
vn -0.0934 -0.8781 0.4693
vn -0.1870 0.2852 0.9401
vn -0.0576 -0.9553 0.2898
vn -0.1942 0.0962 0.9762
vn -0.0195 0.9950 0.0980
vn -0.0195 -0.9950 0.0980
vn -0.1942 -0.0962 0.9762
vn -0.0576 0.9553 0.2898
vn -0.1870 -0.2852 0.9401
vn -0.0934 0.8781 0.4693
vn -0.1728 -0.4643 0.8687
vn -0.5530 0.0962 0.8276
vn -0.0555 0.9950 0.0831
vn -0.0555 -0.9950 0.0831
vn -0.5530 -0.0962 0.8276
vn -0.1642 0.9553 0.2457
vn -0.5325 -0.2852 0.7969
vn -0.2659 0.8781 0.3979
vn -0.4921 -0.4643 0.7364
vn -0.3565 0.7669 0.5336
vn -0.4328 -0.6270 0.6477
vn -0.4328 0.6270 0.6477
vn -0.3565 -0.7669 0.5336
vn -0.4921 0.4643 0.7364
vn -0.2659 -0.8781 0.3979
vn -0.5325 0.2852 0.7969
vn -0.1642 -0.9553 0.2457
vn -0.6477 -0.6270 0.4328
vn -0.6477 0.6270 0.4328
vn -0.5336 -0.7669 0.3565
vn -0.7364 0.4643 0.4921
vn -0.3979 -0.8781 0.2659
vn -0.7969 0.2852 0.5325
vn -0.2457 -0.9553 0.1642
vn -0.8276 0.0962 0.5530
vn -0.0831 0.9950 0.0555
vn -0.0831 -0.9950 0.0555
vn -0.8276 -0.0962 0.5530
vn -0.2457 0.9553 0.1642
vn -0.7969 -0.2852 0.5325
vn -0.3979 0.8781 0.2659
vn -0.7364 -0.4643 0.4921
vn -0.5336 0.7669 0.3565
vn -0.0980 -0.9950 0.0195
vn -0.9762 -0.0962 0.1942
vn -0.2898 0.9553 0.0576
vn -0.9401 -0.2852 0.1870
vn -0.4693 0.8781 0.0934
vn -0.8687 -0.4643 0.1728
vn -0.6294 0.7669 0.1252
vn -0.7640 -0.6270 0.1520
vn -0.7640 0.6270 0.1520
vn -0.6294 -0.7669 0.1252
vn -0.8687 0.4643 0.1728
vn -0.4693 -0.8781 0.0934
vn -0.9401 0.2852 0.1870
vn -0.2898 -0.9553 0.0576
vn -0.9762 0.0962 0.1942
vn -0.0980 0.9950 0.0195
vn -0.6294 -0.7669 -0.1252
vn -0.8687 0.4643 -0.1728
vn -0.4693 -0.8781 -0.0934
vn -0.9401 0.2852 -0.1870
vn -0.2898 -0.9553 -0.0576
vn -0.9762 0.0962 -0.1942
vn -0.0980 0.9950 -0.0195
vn -0.0980 -0.9950 -0.0195
vn -0.9762 -0.0962 -0.1942
vn -0.2898 0.9553 -0.0576
vn -0.9401 -0.2852 -0.1870
vn -0.4693 0.8781 -0.0934
vn -0.8687 -0.4643 -0.1728
vn -0.6294 0.7669 -0.1252
vn -0.7640 -0.6270 -0.1520
vn -0.7640 0.6270 -0.1520
vn -0.2457 0.9553 -0.1642
vn -0.7969 -0.2852 -0.5325
vn -0.3979 0.8781 -0.2659
vn -0.7364 -0.4643 -0.4921
vn -0.5336 0.7669 -0.3565
vn -0.6477 -0.6270 -0.4328
vn -0.6477 0.6270 -0.4328
vn -0.5336 -0.7669 -0.3565
vn -0.7364 0.4643 -0.4921
vn -0.3979 -0.8781 -0.2659
vn -0.7969 0.2852 -0.5325
vn -0.2457 -0.9553 -0.1642
vn -0.8276 0.0962 -0.5530
vn -0.0831 0.9950 -0.0555
vn -0.0831 -0.9950 -0.0555
vn -0.8276 -0.0962 -0.5530
vn -0.4921 0.4643 -0.7364
vn -0.2659 -0.8781 -0.3979
vn -0.5325 0.2852 -0.7969
vn -0.1642 -0.9553 -0.2457
vn -0.5530 0.0962 -0.8276
vn -0.0555 0.9950 -0.0831
vn -0.0555 -0.9950 -0.0831
vn -0.5530 -0.0962 -0.8276
vn -0.1642 0.9553 -0.2457
vn -0.5325 -0.2852 -0.7969
vn -0.2659 0.8781 -0.3979
vn -0.4921 -0.4643 -0.7364
vn -0.3565 0.7669 -0.5336
vn -0.4328 -0.6270 -0.6477
vn -0.4328 0.6270 -0.6477
vn -0.3565 -0.7669 -0.5336
vn -0.1870 -0.2852 -0.9401
vn -0.0934 0.8781 -0.4693
vn -0.1728 -0.4643 -0.8687
vn -0.1252 0.7669 -0.6294
vn -0.1520 -0.6270 -0.7640
vn -0.1520 0.6270 -0.7640
vn -0.1252 -0.7669 -0.6294
vn -0.1728 0.4643 -0.8687
vn -0.0934 -0.8781 -0.4693
vn -0.1870 0.2852 -0.9401
vn -0.0576 -0.9553 -0.2898
vn -0.1942 0.0961 -0.9762
vn -0.0195 0.9950 -0.0980
vn -0.0195 -0.9950 -0.0980
vn -0.1942 -0.0962 -0.9762
vn -0.0576 0.9553 -0.2898
vn -0.1942 0.0962 -0.9762
vn -0.1942 -0.0961 -0.9762
vt 0.750000 0.625000
vt 0.687500 0.562500
vt 0.750000 0.562500
vt 0.750000 0.125000
vt 0.687500 0.062500
vt 0.750000 0.062500
vt 0.750000 0.500000
vt 0.687500 0.500000
vt 0.750000 0.937500
vt 0.718750 1.000000
vt 0.687500 0.937500
vt 0.718750 0.000000
vt 0.687500 0.437500
vt 0.750000 0.437500
vt 0.687500 0.875000
vt 0.750000 0.875000
vt 0.750000 0.375000
vt 0.687500 0.375000
vt 0.750000 0.812500
vt 0.687500 0.812500
vt 0.687500 0.312500
vt 0.750000 0.312500
vt 0.687500 0.750000
vt 0.750000 0.750000
vt 0.750000 0.250000
vt 0.687500 0.250000
vt 0.750000 0.687500
vt 0.687500 0.687500
vt 0.687500 0.187500
vt 0.750000 0.187500
vt 0.687500 0.625000
vt 0.687500 0.125000
vt 0.625000 0.250000
vt 0.625000 0.187500
vt 0.625000 0.625000
vt 0.625000 0.125000
vt 0.625000 0.562500
vt 0.625000 0.062500
vt 0.625000 0.500000
vt 0.656250 1.000000
vt 0.625000 0.937500
vt 0.656250 0.000000
vt 0.625000 0.437500
vt 0.625000 0.875000
vt 0.625000 0.375000
vt 0.625000 0.812500
vt 0.625000 0.312500
vt 0.625000 0.750000
vt 0.625000 0.687500
vt 0.562500 0.375000
vt 0.562500 0.812500
vt 0.562500 0.312500
vt 0.562500 0.750000
vt 0.562500 0.250000
vt 0.562500 0.687500
vt 0.562500 0.187500
vt 0.562500 0.625000
vt 0.562500 0.125000
vt 0.562500 0.562500
vt 0.562500 0.062500
vt 0.562500 0.500000
vt 0.593750 1.000000
vt 0.562500 0.937500
vt 0.593750 0.000000
vt 0.562500 0.437500
vt 0.562500 0.875000
vt 0.500000 0.125000
vt 0.500000 0.625000
vt 0.500000 0.562500
vt 0.500000 0.062500
vt 0.500000 0.500000
vt 0.531250 1.000000
vt 0.500000 0.937500
vt 0.531250 0.000000
vt 0.500000 0.437500
vt 0.500000 0.875000
vt 0.500000 0.375000
vt 0.500000 0.812500
vt 0.500000 0.312500
vt 0.500000 0.750000
vt 0.500000 0.250000
vt 0.500000 0.687500
vt 0.500000 0.187500
vt 0.437500 0.875000
vt 0.437500 0.812500
vt 0.437500 0.312500
vt 0.437500 0.750000
vt 0.437500 0.250000
vt 0.437500 0.687500
vt 0.437500 0.187500
vt 0.437500 0.625000
vt 0.437500 0.125000
vt 0.437500 0.562500
vt 0.437500 0.062500
vt 0.437500 0.500000
vt 0.468750 1.000000
vt 0.437500 0.937500
vt 0.468750 0.000000
vt 0.437500 0.437500
vt 0.437500 0.375000
vt 0.375000 0.562500
vt 0.375000 0.062500
vt 0.375000 0.500000
vt 0.406250 1.000000
vt 0.375000 0.937500
vt 0.406250 0.000000
vt 0.375000 0.437500
vt 0.375000 0.875000
vt 0.375000 0.375000
vt 0.375000 0.812500
vt 0.375000 0.312500
vt 0.375000 0.750000
vt 0.375000 0.250000
vt 0.375000 0.687500
vt 0.375000 0.187500
vt 0.375000 0.625000
vt 0.375000 0.125000
vt 0.312500 0.312500
vt 0.312500 0.812500
vt 0.312500 0.750000
vt 0.312500 0.250000
vt 0.312500 0.687500
vt 0.312500 0.187500
vt 0.312500 0.625000
vt 0.312500 0.125000
vt 0.312500 0.562500
vt 0.312500 0.062500
vt 0.312500 0.500000
vt 0.343750 1.000000
vt 0.312500 0.937500
vt 0.343750 0.000000
vt 0.312500 0.437500
vt 0.312500 0.875000
vt 0.312500 0.375000
vt 0.250000 0.062500
vt 0.250000 0.562500
vt 0.250000 0.500000
vt 0.281250 1.000000
vt 0.250000 0.937500
vt 0.281250 0.000000
vt 0.250000 0.437500
vt 0.250000 0.875000
vt 0.250000 0.375000
vt 0.250000 0.812500
vt 0.250000 0.312500
vt 0.250000 0.750000
vt 0.250000 0.250000
vt 0.250000 0.687500
vt 0.250000 0.187500
vt 0.250000 0.625000
vt 0.250000 0.125000
vt 0.187500 0.812500
vt 0.187500 0.750000
vt 0.187500 0.312500
vt 0.187500 0.250000
vt 0.187500 0.687500
vt 0.187500 0.187500
vt 0.187500 0.625000
vt 0.187500 0.125000
vt 0.187500 0.562500
vt 0.187500 0.062500
vt 0.187500 0.500000
vt 0.218750 1.000000
vt 0.187500 0.937500
vt 0.218750 0.000000
vt 0.187500 0.437500
vt 0.187500 0.875000
vt 0.187500 0.375000
vt 0.125000 0.562500
vt 0.125000 0.500000
vt 0.156250 1.000000
vt 0.125000 0.937500
vt 0.156250 0.000000
vt 0.125000 0.062500
vt 0.125000 0.437500
vt 0.125000 0.875000
vt 0.125000 0.375000
vt 0.125000 0.812500
vt 0.125000 0.312500
vt 0.125000 0.750000
vt 0.125000 0.250000
vt 0.125000 0.687500
vt 0.125000 0.187500
vt 0.125000 0.625000
vt 0.125000 0.125000
vt 0.062500 0.312500
vt 0.062500 0.250000
vt 0.062500 0.687500
vt 0.062500 0.187500
vt 0.062500 0.625000
vt 0.062500 0.125000
vt 0.062500 0.562500
vt 0.062500 0.062500
vt 0.062500 0.500000
vt 0.093750 1.000000
vt 0.062500 0.937500
vt 0.093750 0.000000
vt 0.062500 0.437500
vt 0.062500 0.875000
vt 0.062500 0.375000
vt 0.062500 0.812500
vt 0.062500 0.750000
vt 0.031250 0.000000
vt 0.000000 0.062500
vt 0.000000 0.437500
vt 0.000000 0.875000
vt 0.000000 0.375000
vt 0.000000 0.812500
vt 0.000000 0.312500
vt 0.000000 0.750000
vt 0.000000 0.250000
vt 0.000000 0.687500
vt 0.000000 0.187500
vt 0.000000 0.625000
vt 0.000000 0.125000
vt 0.000000 0.562500
vt 0.000000 0.500000
vt 0.031250 1.000000
vt 0.000000 0.937500
vt 1.000000 0.250000
vt 0.937500 0.187500
vt 1.000000 0.187500
vt 1.000000 0.687500
vt 0.937500 0.625000
vt 1.000000 0.625000
vt 1.000000 0.125000
vt 0.937500 0.125000
vt 1.000000 0.562500
vt 0.937500 0.562500
vt 0.937500 0.062500
vt 1.000000 0.062500
vt 1.000000 0.500000
vt 0.937500 0.500000
vt 1.000000 0.937500
vt 0.968750 1.000000
vt 0.937500 0.937500
vt 0.968750 0.000000
vt 0.937500 0.437500
vt 1.000000 0.437500
vt 0.937500 0.875000
vt 1.000000 0.875000
vt 0.937500 0.375000
vt 1.000000 0.375000
vt 0.937500 0.812500
vt 1.000000 0.812500
vt 0.937500 0.312500
vt 1.000000 0.312500
vt 1.000000 0.750000
vt 0.937500 0.750000
vt 0.937500 0.250000
vt 0.937500 0.687500
vt 0.875000 0.937500
vt 0.875000 0.875000
vt 0.875000 0.375000
vt 0.875000 0.812500
vt 0.875000 0.312500
vt 0.875000 0.750000
vt 0.875000 0.250000
vt 0.875000 0.687500
vt 0.875000 0.187500
vt 0.875000 0.625000
vt 0.875000 0.125000
vt 0.875000 0.562500
vt 0.875000 0.062500
vt 0.875000 0.500000
vt 0.906250 1.000000
vt 0.906250 0.000000
vt 0.875000 0.437500
vt 0.812500 0.625000
vt 0.812500 0.187500
vt 0.812500 0.125000
vt 0.812500 0.562500
vt 0.812500 0.062500
vt 0.812500 0.500000
vt 0.843750 1.000000
vt 0.812500 0.937500
vt 0.843750 0.000000
vt 0.812500 0.437500
vt 0.812500 0.875000
vt 0.812500 0.375000
vt 0.812500 0.812500
vt 0.812500 0.312500
vt 0.812500 0.750000
vt 0.812500 0.250000
vt 0.812500 0.687500
vt 0.781250 1.000000
vt 0.781250 0.000000
s 0
f 5/1/1 19/2/1 6/3/1
f 10/4/2 27/5/2 11/6/2
f 240/7/3 19/2/3 20/8/3
f 2/9/4 1/10/4 13/11/4
f 12/12/5 11/6/5 27/5/5
f 240/7/6 21/13/6 7/14/6
f 2/9/7 14/15/7 3/16/7
f 241/17/8 21/13/8 22/18/8
f 238/19/9 14/15/9 15/20/9
f 241/17/10 23/21/10 8/22/10
f 238/19/11 16/23/11 4/24/11
f 242/25/12 23/21/12 24/26/12
f 239/27/13 16/23/13 17/28/13
f 242/25/14 25/29/14 9/30/14
f 239/27/15 18/31/15 5/1/15
f 10/4/16 25/29/16 26/32/16
f 25/29/17 39/33/17 40/34/17
f 17/28/18 33/35/18 18/31/18
f 26/32/19 40/34/19 41/36/19
f 18/31/20 34/37/20 19/2/20
f 26/32/21 42/38/21 27/5/21
f 19/2/22 35/39/22 20/8/22
f 13/11/23 1/40/23 28/41/23
f 12/42/24 27/5/24 42/38/24
f 20/8/25 36/43/25 21/13/25
f 13/11/26 29/44/26 14/15/26
f 21/13/27 37/45/27 22/18/27
f 14/15/28 30/46/28 15/20/28
f 22/18/29 38/47/29 23/21/29
f 15/20/30 31/48/30 16/23/30
f 23/21/31 39/33/31 24/26/31
f 16/23/32 32/49/32 17/28/32
f 36/43/33 52/50/33 37/45/33
f 29/44/34 45/51/34 30/46/34
f 37/45/35 53/52/35 38/47/35
f 30/46/36 46/53/36 31/48/36
f 39/33/37 53/52/37 54/54/37
f 31/48/38 47/55/38 32/49/38
f 39/33/39 55/56/39 40/34/39
f 32/49/40 48/57/40 33/35/40
f 41/36/41 55/56/41 56/58/41
f 33/35/42 49/59/42 34/37/42
f 42/38/43 56/58/43 57/60/43
f 34/37/44 50/61/44 35/39/44
f 28/41/45 1/62/45 43/63/45
f 12/64/46 42/38/46 57/60/46
f 35/39/47 51/65/47 36/43/47
f 28/41/48 44/66/48 29/44/48
f 55/56/49 71/67/49 56/58/49
f 49/59/50 63/68/50 64/69/50
f 57/60/51 71/67/51 72/70/51
f 49/59/52 65/71/52 50/61/52
f 43/63/53 1/72/53 58/73/53
f 12/74/54 57/60/54 72/70/54
f 50/61/55 66/75/55 51/65/55
f 43/63/56 59/76/56 44/66/56
f 51/65/57 67/77/57 52/50/57
f 45/51/58 59/76/58 60/78/58
f 52/50/59 68/79/59 53/52/59
f 45/51/60 61/80/60 46/53/60
f 53/52/61 69/81/61 54/54/61
f 46/53/62 62/82/62 47/55/62
f 55/56/63 69/81/63 70/83/63
f 47/55/64 63/68/64 48/57/64
f 60/78/65 74/84/65 75/85/65
f 67/77/66 83/86/66 68/79/66
f 60/78/67 76/87/67 61/80/67
f 68/79/68 84/88/68 69/81/68
f 61/80/69 77/89/69 62/82/69
f 69/81/70 85/90/70 70/83/70
f 63/68/71 77/89/71 78/91/71
f 71/67/72 85/90/72 86/92/72
f 63/68/73 79/93/73 64/69/73
f 72/70/74 86/92/74 87/94/74
f 64/69/75 80/95/75 65/71/75
f 58/73/76 1/96/76 73/97/76
f 12/98/77 72/70/77 87/94/77
f 66/75/78 80/95/78 81/99/78
f 58/73/79 74/84/79 59/76/79
f 66/75/80 82/100/80 67/77/80
f 78/91/81 94/101/81 79/93/81
f 86/92/82 102/102/82 87/94/82
f 79/93/83 95/103/83 80/95/83
f 73/97/84 1/104/84 88/105/84
f 12/106/85 87/94/85 102/102/85
f 81/99/86 95/103/86 96/107/86
f 74/84/87 88/105/87 89/108/87
f 81/99/88 97/109/88 82/100/88
f 74/84/89 90/110/89 75/85/89
f 82/100/90 98/111/90 83/86/90
f 76/87/91 90/110/91 91/112/91
f 84/88/92 98/111/92 99/113/92
f 76/87/93 92/114/93 77/89/93
f 84/88/94 100/115/94 85/90/94
f 77/89/95 93/116/95 78/91/95
f 86/92/96 100/115/96 101/117/96
f 97/109/97 113/118/97 98/111/97
f 91/112/98 105/119/98 106/120/98
f 99/113/99 113/118/99 114/121/99
f 91/112/100 107/122/100 92/114/100
f 99/113/101 115/123/101 100/115/101
f 92/114/102 108/124/102 93/116/102
f 100/115/103 116/125/103 101/117/103
f 93/116/104 109/126/104 94/101/104
f 101/117/105 117/127/105 102/102/105
f 94/101/106 110/128/106 95/103/106
f 88/105/107 1/129/107 103/130/107
f 12/131/108 102/102/108 117/127/108
f 95/103/109 111/132/109 96/107/109
f 89/108/110 103/130/110 104/133/110
f 96/107/111 112/134/111 97/109/111
f 89/108/112 105/119/112 90/110/112
f 116/125/113 132/135/113 117/127/113
f 110/128/114 124/136/114 125/137/114
f 103/130/115 1/138/115 118/139/115
f 12/140/116 117/127/116 132/135/116
f 110/128/117 126/141/117 111/132/117
f 103/130/118 119/142/118 104/133/118
f 111/132/119 127/143/119 112/134/119
f 104/133/120 120/144/120 105/119/120
f 112/134/121 128/145/121 113/118/121
f 106/120/122 120/144/122 121/146/122
f 114/121/123 128/145/123 129/147/123
f 106/120/124 122/148/124 107/122/124
f 114/121/125 130/149/125 115/123/125
f 107/122/126 123/150/126 108/124/126
f 115/123/127 131/151/127 116/125/127
f 109/126/128 123/150/128 124/136/128
f 121/146/129 135/152/129 136/153/129
f 129/147/130 143/154/130 144/155/130
f 121/146/131 137/156/131 122/148/131
f 129/147/132 145/157/132 130/149/132
f 123/150/133 137/156/133 138/158/133
f 131/151/134 145/157/134 146/159/134
f 123/150/135 139/160/135 124/136/135
f 131/151/136 147/161/136 132/135/136
f 125/137/137 139/160/137 140/162/137
f 118/139/138 1/163/138 133/164/138
f 12/165/139 132/135/139 147/161/139
f 125/137/140 141/166/140 126/141/140
f 118/139/141 134/167/141 119/142/141
f 126/141/142 142/168/142 127/143/142
f 119/142/143 135/152/143 120/144/143
f 127/143/144 143/154/144 128/145/144
f 140/162/145 154/169/145 155/170/145
f 133/164/146 1/171/146 148/172/146
f 12/173/147 147/161/147 162/174/147
f 140/162/148 156/175/148 141/166/148
f 134/167/149 148/172/149 149/176/149
f 141/166/150 157/177/150 142/168/150
f 134/167/151 150/178/151 135/152/151
f 142/168/152 158/179/152 143/154/152
f 136/153/153 150/178/153 151/180/153
f 143/154/154 159/181/154 144/155/154
f 136/153/155 152/182/155 137/156/155
f 144/155/156 160/183/156 145/157/156
f 138/158/157 152/182/157 153/184/157
f 145/157/158 161/185/158 146/159/158
f 138/158/159 154/169/159 139/160/159
f 146/159/160 162/174/160 147/161/160
f 159/181/161 173/186/161 174/187/161
f 151/180/162 167/188/162 152/182/162
f 159/181/163 175/189/163 160/183/163
f 152/182/164 168/190/164 153/184/164
f 161/185/165 175/189/165 176/191/165
f 153/184/166 169/192/166 154/169/166
f 161/185/167 177/193/167 162/174/167
f 155/170/168 169/192/168 170/194/168
f 148/172/169 1/195/169 163/196/169
f 12/197/170 162/174/170 177/193/170
f 155/170/171 171/198/171 156/175/171
f 148/172/172 164/199/172 149/176/172
f 156/175/173 172/200/173 157/177/173
f 149/176/174 165/201/174 150/178/174
f 157/177/175 173/186/175 158/179/175
f 151/180/176 165/201/176 166/202/176
f 12/203/177 177/193/177 192/204/177
f 170/194/178 186/205/178 171/198/178
f 163/196/179 179/206/179 164/199/179
f 171/198/180 187/207/180 172/200/180
f 164/199/181 180/208/181 165/201/181
f 172/200/182 188/209/182 173/186/182
f 166/202/183 180/208/183 181/210/183
f 174/187/184 188/209/184 189/211/184
f 166/202/185 182/212/185 167/188/185
f 174/187/186 190/213/186 175/189/186
f 167/188/187 183/214/187 168/190/187
f 176/191/188 190/213/188 191/215/188
f 168/190/189 184/216/189 169/192/189
f 176/191/190 192/204/190 177/193/190
f 170/194/191 184/216/191 185/217/191
f 163/196/192 1/218/192 178/219/192
f 189/220/193 205/221/193 190/222/193
f 182/223/194 198/224/194 183/225/194
f 191/226/195 205/221/195 206/227/195
f 184/228/196 198/224/196 199/229/196
f 191/226/197 207/230/197 192/231/197
f 185/232/198 199/229/198 200/233/198
f 178/234/199 1/235/199 193/236/199
f 12/237/200 192/231/200 207/230/200
f 185/232/201 201/238/201 186/239/201
f 178/234/202 194/240/202 179/241/202
f 186/239/203 202/242/203 187/243/203
f 179/241/204 195/244/204 180/245/204
f 187/243/205 203/246/205 188/247/205
f 181/248/206 195/244/206 196/249/206
f 189/220/207 203/246/207 204/250/207
f 181/248/208 197/251/208 182/223/208
f 194/240/209 208/252/209 209/253/209
f 201/238/210 217/254/210 202/242/210
f 194/240/211 210/255/211 195/244/211
f 202/242/212 218/256/212 203/246/212
f 196/249/213 210/255/213 211/257/213
f 203/246/214 219/258/214 204/250/214
f 196/249/215 212/259/215 197/251/215
f 204/250/216 220/260/216 205/221/216
f 197/251/217 213/261/217 198/224/217
f 206/227/218 220/260/218 221/262/218
f 199/229/219 213/261/219 214/263/219
f 206/227/220 222/264/220 207/230/220
f 200/233/221 214/263/221 215/265/221
f 193/236/222 1/266/222 208/252/222
f 12/267/223 207/230/223 222/264/223
f 200/233/224 216/268/224 201/238/224
f 212/259/225 228/269/225 213/261/225
f 221/262/226 235/270/226 236/271/226
f 213/261/227 229/272/227 214/263/227
f 221/262/228 237/273/228 222/264/228
f 215/265/229 229/272/229 230/274/229
f 208/252/230 1/275/230 223/276/230
f 12/277/231 222/264/231 237/273/231
f 215/265/232 231/278/232 216/268/232
f 208/252/233 224/279/233 209/253/233
f 216/268/234 232/280/234 217/254/234
f 209/253/235 225/281/235 210/255/235
f 217/254/236 233/282/236 218/256/236
f 211/257/237 225/281/237 226/283/237
f 219/258/238 233/282/238 234/284/238
f 211/257/239 227/285/239 212/259/239
f 219/258/240 235/270/240 220/260/240
f 232/280/241 7/14/241 241/17/241
f 225/281/242 3/16/242 238/19/242
f 232/280/243 8/22/243 233/282/243
f 225/281/244 4/24/244 226/283/244
f 234/284/245 8/22/245 242/25/245
f 227/285/246 4/24/246 239/27/246
f 234/284/247 9/30/247 235/270/247
f 227/285/248 5/1/248 228/269/248
f 236/271/249 9/30/249 10/4/249
f 229/272/250 5/1/250 6/3/250
f 236/271/251 11/6/251 237/273/251
f 230/274/252 6/3/252 240/7/252
f 223/276/253 1/286/253 2/9/253
f 12/287/254 237/273/254 11/6/254
f 230/274/255 7/14/255 231/278/255
f 224/279/256 2/9/256 3/16/256
f 5/1/1 18/31/1 19/2/1
f 10/4/2 26/32/2 27/5/2
f 240/7/3 6/3/3 19/2/3
f 240/7/6 20/8/6 21/13/6
f 2/9/7 13/11/7 14/15/7
f 241/17/8 7/14/8 21/13/8
f 238/19/9 3/16/9 14/15/9
f 241/17/10 22/18/10 23/21/10
f 238/19/11 15/20/11 16/23/11
f 242/25/12 8/22/12 23/21/12
f 239/27/13 4/24/13 16/23/13
f 242/25/14 24/26/14 25/29/14
f 239/27/15 17/28/15 18/31/15
f 10/4/16 9/30/16 25/29/16
f 25/29/17 24/26/17 39/33/17
f 17/28/18 32/49/18 33/35/18
f 26/32/19 25/29/19 40/34/19
f 18/31/20 33/35/20 34/37/20
f 26/32/21 41/36/21 42/38/21
f 19/2/22 34/37/22 35/39/22
f 20/8/25 35/39/25 36/43/25
f 13/11/26 28/41/26 29/44/26
f 21/13/27 36/43/27 37/45/27
f 14/15/28 29/44/28 30/46/28
f 22/18/29 37/45/29 38/47/29
f 15/20/30 30/46/30 31/48/30
f 23/21/31 38/47/31 39/33/31
f 16/23/32 31/48/32 32/49/32
f 36/43/33 51/65/33 52/50/33
f 29/44/34 44/66/34 45/51/34
f 37/45/35 52/50/35 53/52/35
f 30/46/36 45/51/36 46/53/36
f 39/33/37 38/47/37 53/52/37
f 31/48/38 46/53/38 47/55/38
f 39/33/39 54/54/39 55/56/39
f 32/49/40 47/55/40 48/57/40
f 41/36/41 40/34/41 55/56/41
f 33/35/42 48/57/42 49/59/42
f 42/38/43 41/36/43 56/58/43
f 34/37/44 49/59/44 50/61/44
f 35/39/47 50/61/47 51/65/47
f 28/41/48 43/63/48 44/66/48
f 55/56/49 70/83/49 71/67/49
f 49/59/50 48/57/50 63/68/50
f 57/60/51 56/58/51 71/67/51
f 49/59/52 64/69/52 65/71/52
f 50/61/55 65/71/55 66/75/55
f 43/63/56 58/73/56 59/76/56
f 51/65/57 66/75/57 67/77/57
f 45/51/58 44/66/58 59/76/58
f 52/50/59 67/77/59 68/79/59
f 45/51/60 60/78/60 61/80/60
f 53/52/61 68/79/61 69/81/61
f 46/53/62 61/80/62 62/82/62
f 55/56/63 54/54/63 69/81/63
f 47/55/64 62/82/64 63/68/64
f 60/78/65 59/76/65 74/84/65
f 67/77/66 82/100/66 83/86/66
f 60/78/67 75/85/67 76/87/67
f 68/79/68 83/86/68 84/88/68
f 61/80/69 76/87/69 77/89/69
f 69/81/70 84/88/70 85/90/70
f 63/68/71 62/82/71 77/89/71
f 71/67/72 70/83/72 85/90/72
f 63/68/73 78/91/73 79/93/73
f 72/70/74 71/67/74 86/92/74
f 64/69/75 79/93/75 80/95/75
f 66/75/78 65/71/78 80/95/78
f 58/73/79 73/97/79 74/84/79
f 66/75/80 81/99/80 82/100/80
f 78/91/81 93/116/81 94/101/81
f 86/92/82 101/117/82 102/102/82
f 79/93/83 94/101/83 95/103/83
f 81/99/86 80/95/86 95/103/86
f 74/84/87 73/97/87 88/105/87
f 81/99/88 96/107/88 97/109/88
f 74/84/89 89/108/89 90/110/89
f 82/100/90 97/109/90 98/111/90
f 76/87/91 75/85/91 90/110/91
f 84/88/92 83/86/92 98/111/92
f 76/87/93 91/112/93 92/114/93
f 84/88/94 99/113/94 100/115/94
f 77/89/95 92/114/95 93/116/95
f 86/92/96 85/90/96 100/115/96
f 97/109/97 112/134/97 113/118/97
f 91/112/98 90/110/98 105/119/98
f 99/113/99 98/111/99 113/118/99
f 91/112/100 106/120/100 107/122/100
f 99/113/101 114/121/101 115/123/101
f 92/114/102 107/122/102 108/124/102
f 100/115/103 115/123/103 116/125/103
f 93/116/104 108/124/104 109/126/104
f 101/117/105 116/125/105 117/127/105
f 94/101/106 109/126/106 110/128/106
f 95/103/109 110/128/109 111/132/109
f 89/108/110 88/105/110 103/130/110
f 96/107/111 111/132/111 112/134/111
f 89/108/112 104/133/112 105/119/112
f 116/125/113 131/151/113 132/135/113
f 110/128/114 109/126/114 124/136/114
f 110/128/117 125/137/117 126/141/117
f 103/130/118 118/139/118 119/142/118
f 111/132/119 126/141/119 127/143/119
f 104/133/120 119/142/120 120/144/120
f 112/134/121 127/143/121 128/145/121
f 106/120/122 105/119/122 120/144/122
f 114/121/123 113/118/123 128/145/123
f 106/120/124 121/146/124 122/148/124
f 114/121/125 129/147/125 130/149/125
f 107/122/126 122/148/126 123/150/126
f 115/123/127 130/149/127 131/151/127
f 109/126/128 108/124/128 123/150/128
f 121/146/129 120/144/129 135/152/129
f 129/147/130 128/145/130 143/154/130
f 121/146/131 136/153/131 137/156/131
f 129/147/132 144/155/132 145/157/132
f 123/150/133 122/148/133 137/156/133
f 131/151/134 130/149/134 145/157/134
f 123/150/135 138/158/135 139/160/135
f 131/151/136 146/159/136 147/161/136
f 125/137/137 124/136/137 139/160/137
f 125/137/140 140/162/140 141/166/140
f 118/139/141 133/164/141 134/167/141
f 126/141/142 141/166/142 142/168/142
f 119/142/143 134/167/143 135/152/143
f 127/143/144 142/168/144 143/154/144
f 140/162/145 139/160/145 154/169/145
f 140/162/148 155/170/148 156/175/148
f 134/167/149 133/164/149 148/172/149
f 141/166/150 156/175/150 157/177/150
f 134/167/151 149/176/151 150/178/151
f 142/168/152 157/177/152 158/179/152
f 136/153/153 135/152/153 150/178/153
f 143/154/154 158/179/154 159/181/154
f 136/153/155 151/180/155 152/182/155
f 144/155/156 159/181/156 160/183/156
f 138/158/157 137/156/157 152/182/157
f 145/157/158 160/183/158 161/185/158
f 138/158/159 153/184/159 154/169/159
f 146/159/160 161/185/160 162/174/160
f 159/181/161 158/179/161 173/186/161
f 151/180/162 166/202/162 167/188/162
f 159/181/163 174/187/163 175/189/163
f 152/182/164 167/188/164 168/190/164
f 161/185/165 160/183/165 175/189/165
f 153/184/166 168/190/166 169/192/166
f 161/185/167 176/191/167 177/193/167
f 155/170/168 154/169/168 169/192/168
f 155/170/171 170/194/171 171/198/171
f 148/172/172 163/196/172 164/199/172
f 156/175/173 171/198/173 172/200/173
f 149/176/174 164/199/174 165/201/174
f 157/177/175 172/200/175 173/186/175
f 151/180/176 150/178/176 165/201/176
f 170/194/178 185/217/178 186/205/178
f 163/196/179 178/219/179 179/206/179
f 171/198/180 186/205/180 187/207/180
f 164/199/181 179/206/181 180/208/181
f 172/200/182 187/207/182 188/209/182
f 166/202/183 165/201/183 180/208/183
f 174/187/184 173/186/184 188/209/184
f 166/202/185 181/210/185 182/212/185
f 174/187/186 189/211/186 190/213/186
f 167/188/187 182/212/187 183/214/187
f 176/191/188 175/189/188 190/213/188
f 168/190/189 183/214/189 184/216/189
f 176/191/190 191/215/190 192/204/190
f 170/194/191 169/192/191 184/216/191
f 189/220/193 204/250/193 205/221/193
f 182/223/194 197/251/194 198/224/194
f 191/226/195 190/222/195 205/221/195
f 184/228/196 183/225/196 198/224/196
f 191/226/197 206/227/197 207/230/197
f 185/232/198 184/228/198 199/229/198
f 185/232/201 200/233/201 201/238/201
f 178/234/202 193/236/202 194/240/202
f 186/239/203 201/238/203 202/242/203
f 179/241/204 194/240/204 195/244/204
f 187/243/205 202/242/205 203/246/205
f 181/248/206 180/245/206 195/244/206
f 189/220/207 188/247/207 203/246/207
f 181/248/208 196/249/208 197/251/208
f 194/240/209 193/236/209 208/252/209
f 201/238/210 216/268/210 217/254/210
f 194/240/211 209/253/211 210/255/211
f 202/242/212 217/254/212 218/256/212
f 196/249/213 195/244/213 210/255/213
f 203/246/214 218/256/214 219/258/214
f 196/249/215 211/257/215 212/259/215
f 204/250/216 219/258/216 220/260/216
f 197/251/217 212/259/217 213/261/217
f 206/227/218 205/221/218 220/260/218
f 199/229/219 198/224/219 213/261/219
f 206/227/220 221/262/220 222/264/220
f 200/233/221 199/229/221 214/263/221
f 200/233/224 215/265/224 216/268/224
f 212/259/225 227/285/225 228/269/225
f 221/262/226 220/260/226 235/270/226
f 213/261/227 228/269/227 229/272/227
f 221/262/228 236/271/228 237/273/228
f 215/265/229 214/263/229 229/272/229
f 215/265/232 230/274/232 231/278/232
f 208/252/233 223/276/233 224/279/233
f 216/268/234 231/278/234 232/280/234
f 209/253/235 224/279/235 225/281/235
f 217/254/236 232/280/236 233/282/236
f 211/257/237 210/255/237 225/281/237
f 219/258/238 218/256/238 233/282/238
f 211/257/239 226/283/239 227/285/239
f 219/258/240 234/284/240 235/270/240
f 232/280/241 231/278/241 7/14/241
f 225/281/242 224/279/242 3/16/242
f 232/280/243 241/17/243 8/22/243
f 225/281/244 238/19/244 4/24/244
f 234/284/245 233/282/245 8/22/245
f 227/285/246 226/283/246 4/24/246
f 234/284/247 242/25/247 9/30/247
f 227/285/248 239/27/248 5/1/248
f 236/271/249 235/270/249 9/30/249
f 229/272/250 228/269/250 5/1/250
f 236/271/251 10/4/251 11/6/251
f 230/274/257 229/272/257 6/3/257
f 230/274/258 240/7/258 7/14/258
f 224/279/256 223/276/256 2/9/256
