# Blender 5.2.0 LTS
# www.blender.org
mtllib playerHako.mtl
o Cube.001
v 0.375000 0.375000 -0.500000
v 0.437418 0.375000 -0.483301
v 0.375000 0.437418 -0.483301
v 0.375000 -0.375000 -0.500000
v -0.375000 0.375000 -0.500000
v -0.375000 0.437418 -0.483301
v -0.437418 0.375000 -0.483301
v -0.375000 -0.375000 -0.500000
v -0.437418 -0.375000 -0.483301
v -0.375000 -0.437418 -0.483301
v -0.434776 -0.434776 -0.467079
v -0.375000 -0.483301 -0.437418
v 0.375000 -0.437418 -0.483301
v 0.375000 -0.483301 -0.437418
v 0.434776 -0.434776 -0.467079
v 0.434776 -0.467079 -0.434776
v 0.437418 -0.375000 -0.483301
v 0.467079 -0.434776 -0.434776
v 0.483301 -0.375000 -0.437418
v 0.483301 -0.437418 -0.375000
v 0.500000 -0.375000 -0.375000
v 0.437418 -0.483301 -0.375000
v 0.483301 -0.437418 0.375000
v 0.500000 -0.375000 0.375000
v 0.467079 -0.434776 0.434776
v 0.437418 -0.483301 0.375000
v 0.375000 -0.500000 0.375000
v 0.434776 -0.467079 0.434776
v 0.375000 -0.483301 0.437418
v 0.434776 -0.434776 0.467079
v 0.437418 -0.375000 0.483301
v 0.375000 -0.437418 0.483301
v 0.375000 -0.375000 0.500000
v -0.375000 -0.437418 0.483301
v -0.375000 -0.483301 0.437418
v -0.434776 -0.434776 0.467079
v -0.375000 -0.375000 0.500000
v -0.437418 -0.375000 0.483301
v -0.375000 0.375000 0.500000
v -0.437418 0.375000 0.483301
v -0.375000 0.437418 0.483301
v 0.375000 0.375000 0.500000
v 0.375000 0.437418 0.483301
v 0.437418 0.375000 0.483301
v 0.434776 0.434776 0.467079
v 0.483301 0.375000 0.437418
v 0.500000 0.375000 0.375000
v 0.467079 0.434776 0.434776
v 0.483301 -0.375000 0.437418
v 0.483301 0.437418 0.375000
v 0.434776 0.467079 0.434776
v 0.437418 0.483301 0.375000
v 0.375000 0.483301 0.437418
v 0.375000 0.500000 0.375000
v -0.375000 0.483301 0.437418
v -0.434776 0.467079 0.434776
v -0.375000 0.500000 0.375000
v -0.437418 0.483301 0.375000
v -0.375000 0.500000 -0.375000
v -0.437418 0.483301 -0.375000
v -0.375000 0.483301 -0.437418
v 0.375000 0.500000 -0.375000
v 0.375000 0.483301 -0.437418
v 0.437418 0.483301 -0.375000
v 0.434776 0.467079 -0.434776
v 0.483301 0.437418 -0.375000
v 0.467079 0.434776 -0.434776
v 0.500000 0.375000 -0.375000
v 0.483301 0.375000 -0.437418
v 0.434776 0.434776 -0.467079
v -0.434776 0.467079 -0.434776
v -0.467079 0.434776 -0.434776
v -0.434776 0.434776 -0.467079
v -0.483301 0.375000 -0.437418
v -0.483301 0.437418 -0.375000
v -0.500000 0.375000 -0.375000
v -0.483301 0.437418 0.375000
v -0.500000 0.375000 0.375000
v -0.467079 0.434776 0.434776
v -0.483301 0.375000 0.437418
v -0.434776 0.434776 0.467079
v -0.483301 -0.375000 0.437418
v -0.467079 -0.434776 0.434776
v -0.500000 -0.375000 0.375000
v -0.483301 -0.437418 0.375000
v -0.500000 -0.375000 -0.375000
v -0.483301 -0.437418 -0.375000
v -0.483301 -0.375000 -0.437418
v -0.467079 -0.434776 -0.434776
v -0.434776 -0.467079 -0.434776
v -0.437418 -0.483301 -0.375000
v -0.375000 -0.500000 -0.375000
v -0.437418 -0.483301 0.375000
v -0.375000 -0.500000 0.375000
v -0.434776 -0.467079 0.434776
v 0.375000 -0.500000 -0.375000
v 0.093750 0.393230 0.432114
v 0.093750 0.424480 0.494614
v 0.125000 0.393230 0.494614
v 0.093750 0.408834 0.440464
v 0.109355 0.393230 0.440464
v 0.108694 0.408174 0.448575
v 0.109355 0.420305 0.494614
v 0.093750 0.420305 0.463405
v 0.108694 0.416250 0.464726
v 0.120825 0.393230 0.463405
v 0.120825 0.408834 0.494614
v 0.116770 0.408174 0.464726
v 0.093750 0.174480 0.494614
v 0.093750 0.205730 0.432114
v 0.125000 0.205730 0.494614
v 0.093750 0.178655 0.463405
v 0.109355 0.178655 0.494614
v 0.108694 0.182710 0.464726
v 0.109355 0.205730 0.440464
v 0.093750 0.190125 0.440464
v 0.108694 0.190786 0.448575
v 0.120825 0.190125 0.494614
v 0.120825 0.205730 0.463405
v 0.116770 0.190786 0.464726
v 0.125000 0.393230 0.869614
v 0.093750 0.424480 0.869614
v 0.093750 0.393230 0.932114
v 0.120825 0.408834 0.869614
v 0.120825 0.393230 0.900823
v 0.116770 0.408174 0.899503
v 0.093750 0.420305 0.900823
v 0.109355 0.420305 0.869614
v 0.108694 0.416250 0.899503
v 0.109355 0.393230 0.923765
v 0.093750 0.408834 0.923765
v 0.108694 0.408174 0.915654
v 0.125000 0.205730 0.869614
v 0.093750 0.205730 0.932114
v 0.093750 0.174480 0.869614
v 0.120825 0.205730 0.900823
v 0.120825 0.190125 0.869614
v 0.116770 0.190786 0.899503
v 0.093750 0.190125 0.923765
v 0.109355 0.205730 0.923765
v 0.108694 0.190786 0.915654
v 0.109355 0.178655 0.869614
v 0.093750 0.178655 0.900823
v 0.108694 0.182710 0.899503
v -0.093750 0.393230 0.432114
v -0.125000 0.393230 0.494614
v -0.093750 0.424480 0.494614
v -0.109355 0.393230 0.440464
v -0.093750 0.408834 0.440464
v -0.108694 0.408174 0.448575
v -0.120825 0.408834 0.494614
v -0.120825 0.393230 0.463405
v -0.116770 0.408174 0.464726
v -0.093750 0.420305 0.463405
v -0.109355 0.420305 0.494614
v -0.108694 0.416250 0.464726
v -0.125000 0.205730 0.494614
v -0.093750 0.205730 0.432114
v -0.093750 0.174480 0.494614
v -0.120825 0.205730 0.463405
v -0.120825 0.190125 0.494614
v -0.116770 0.190786 0.464726
v -0.093750 0.190125 0.440464
v -0.109355 0.205730 0.440464
v -0.108694 0.190786 0.448575
v -0.109355 0.178655 0.494614
v -0.093750 0.178655 0.463405
v -0.108694 0.182710 0.464726
v -0.125000 0.393230 0.869614
v -0.093750 0.393230 0.932114
v -0.093750 0.424480 0.869614
v -0.120825 0.393230 0.900823
v -0.120825 0.408834 0.869614
v -0.116770 0.408174 0.899503
v -0.093750 0.408834 0.923765
v -0.109355 0.393230 0.923765
v -0.108694 0.408174 0.915654
v -0.109355 0.420305 0.869614
v -0.093750 0.420305 0.900823
v -0.108694 0.416250 0.899503
v -0.093750 0.174480 0.869614
v -0.093750 0.205730 0.932114
v -0.125000 0.205730 0.869614
v -0.093750 0.178655 0.900823
v -0.109355 0.178655 0.869614
v -0.108694 0.182710 0.899503
v -0.109355 0.205730 0.923765
v -0.093750 0.190125 0.923765
v -0.108694 0.190786 0.915654
v -0.120825 0.190125 0.869614
v -0.120825 0.205730 0.900823
v -0.116770 0.190786 0.899503
vn 0.4916 -0.1216 -0.8623
vn 0.1280 0.1280 -0.9835
vn 0.4916 0.1216 -0.8623
vn 0.1216 0.4916 -0.8623
vn -0.1280 0.1280 -0.9835
vn -0.1216 0.4916 -0.8623
vn 0.1280 -0.1280 -0.9835
vn -0.1280 -0.1280 -0.9835
vn -0.4916 0.1216 -0.8623
vn -0.4916 -0.1216 -0.8623
vn -0.1216 -0.4916 -0.8623
vn 0.1216 -0.4916 -0.8623
vn -0.1216 -0.8623 -0.4916
vn -0.4488 -0.4488 -0.7727
vn 0.1216 -0.8623 -0.4916
vn 0.4488 -0.7727 -0.4488
vn 0.4488 -0.4488 -0.7727
vn 0.7727 -0.4488 -0.4488
vn 0.8623 -0.1216 -0.4916
vn 0.8623 -0.4916 -0.1216
vn 0.9835 -0.1280 -0.1280
vn 0.9835 -0.1280 0.1280
vn 0.8623 -0.4916 0.1216
vn 0.4916 -0.8623 -0.1216
vn 0.4916 -0.8623 0.1216
vn 0.8623 -0.1216 0.4916
vn 0.7727 -0.4488 0.4488
vn 0.4488 -0.7727 0.4488
vn 0.1280 -0.9835 -0.1280
vn 0.1280 -0.9835 0.1280
vn 0.1216 -0.8623 0.4916
vn 0.4488 -0.4488 0.7727
vn 0.1216 -0.4916 0.8623
vn 0.4916 -0.1216 0.8623
vn 0.1280 -0.1280 0.9835
vn -0.1280 -0.1280 0.9835
vn -0.1216 -0.4916 0.8623
vn -0.1216 -0.8623 0.4916
vn -0.4488 -0.4488 0.7727
vn -0.4488 -0.7727 0.4488
vn -0.4916 -0.1216 0.8623
vn -0.1280 0.1280 0.9835
vn 0.1280 0.1280 0.9835
vn -0.1216 0.4916 0.8623
vn -0.4916 0.1216 0.8623
vn 0.1216 0.4916 0.8623
vn 0.4916 0.1216 0.8623
vn 0.8623 0.1216 0.4916
vn 0.4488 0.4488 0.7727
vn 0.9835 0.1280 0.1280
vn 0.8623 0.4916 0.1216
vn 0.4916 0.8623 0.1216
vn 0.7727 0.4488 0.4488
vn 0.4488 0.7727 0.4488
vn 0.1216 0.8623 0.4916
vn 0.1280 0.9835 0.1280
vn -0.1280 0.9835 0.1280
vn -0.1216 0.8623 0.4916
vn -0.4488 0.4488 0.7727
vn -0.4916 0.8623 0.1216
vn -0.1280 0.9835 -0.1280
vn 0.1280 0.9835 -0.1280
vn -0.1216 0.8623 -0.4916
vn -0.4916 0.8623 -0.1216
vn 0.4916 0.8623 -0.1216
vn 0.1216 0.8623 -0.4916
vn 0.7727 0.4488 -0.4488
vn 0.4488 0.7727 -0.4488
vn 0.8623 0.4916 -0.1216
vn 0.8623 0.1216 -0.4916
vn 0.9835 0.1280 -0.1280
vn 0.4488 0.4488 -0.7727
vn -0.4488 0.7727 -0.4488
vn -0.7727 0.4488 -0.4488
vn -0.8623 0.4916 -0.1216
vn -0.4488 0.4488 -0.7727
vn -0.8623 0.1216 -0.4916
vn -0.9835 0.1280 -0.1280
vn -0.8623 0.4916 0.1216
vn -0.9835 0.1280 0.1280
vn -0.8623 0.1216 0.4916
vn -0.4488 0.7727 0.4488
vn -0.7727 0.4488 0.4488
vn -0.9835 -0.1280 0.1280
vn -0.8623 -0.1216 0.4916
vn -0.8623 -0.4916 0.1216
vn -0.9835 -0.1280 -0.1280
vn -0.8623 -0.4916 -0.1216
vn -0.8623 -0.1216 -0.4916
vn -0.7727 -0.4488 -0.4488
vn -0.4488 -0.7727 -0.4488
vn -0.4916 -0.8623 -0.1216
vn -0.1280 -0.9835 -0.1280
vn -0.4916 -0.8623 0.1216
vn -0.1280 -0.9835 0.1280
vn -0.7727 -0.4488 0.4488
vn 0.1901 0.6879 -0.7004
vn 0.6879 0.1901 -0.7004
vn 0.2298 0.2298 -0.9457
vn 0.1366 0.9468 -0.2914
vn 0.5936 0.5936 -0.5434
vn 0.1304 0.9892 -0.0668
vn 0.4848 0.8367 -0.2547
vn 0.4955 0.8663 -0.0634
vn 0.8367 0.4848 -0.2547
vn 0.9892 0.1304 -0.0668
vn 0.8663 0.4955 -0.0634
vn 0.9468 0.1366 -0.2914
vn 0.1304 -0.9892 -0.0668
vn 0.4848 -0.8367 -0.2547
vn 0.4955 -0.8663 -0.0634
vn 0.1366 -0.9468 -0.2914
vn 0.5936 -0.5936 -0.5434
vn 0.6879 -0.1901 -0.7004
vn 0.1901 -0.6879 -0.7004
vn 0.2298 -0.2298 -0.9457
vn 0.9468 -0.1366 -0.2914
vn 0.9892 -0.1304 -0.0668
vn 0.8367 -0.4848 -0.2547
vn 0.8663 -0.4955 -0.0634
vn 0.9892 0.1304 0.0668
vn 0.8367 0.4848 0.2547
vn 0.9468 0.1366 0.2914
vn 0.8663 0.4955 0.0634
vn 0.4848 0.8367 0.2547
vn 0.1304 0.9892 0.0668
vn 0.4955 0.8663 0.0634
vn 0.1366 0.9468 0.2914
vn 0.5936 0.5936 0.5434
vn 0.6879 0.1901 0.7004
vn 0.1901 0.6879 0.7004
vn 0.2298 0.2298 0.9457
vn 0.9892 -0.1304 0.0668
vn 0.8367 -0.4848 0.2547
vn 0.8663 -0.4955 0.0634
vn 0.9468 -0.1366 0.2914
vn 0.5936 -0.5936 0.5434
vn 0.1901 -0.6879 0.7004
vn 0.6879 -0.1901 0.7004
vn 0.2298 -0.2298 0.9457
vn 0.1366 -0.9468 0.2914
vn 0.1304 -0.9892 0.0668
vn 0.4848 -0.8367 0.2547
vn 0.4955 -0.8663 0.0634
vn -0.6879 0.1901 -0.7004
vn -0.1901 0.6879 -0.7004
vn -0.2298 0.2298 -0.9457
vn -0.9468 0.1366 -0.2914
vn -0.5936 0.5936 -0.5434
vn -0.9892 0.1304 -0.0668
vn -0.8367 0.4848 -0.2547
vn -0.4955 0.8663 -0.0634
vn -0.8663 0.4955 -0.0634
vn -0.1304 0.9892 -0.0668
vn -0.4848 0.8367 -0.2547
vn -0.1366 0.9468 -0.2914
vn -0.9892 -0.1304 -0.0668
vn -0.8367 -0.4848 -0.2547
vn -0.8663 -0.4955 -0.0634
vn -0.9468 -0.1366 -0.2914
vn -0.5936 -0.5936 -0.5434
vn -0.1901 -0.6879 -0.7004
vn -0.6879 -0.1901 -0.7004
vn -0.2298 -0.2298 -0.9457
vn -0.1366 -0.9468 -0.2914
vn -0.1304 -0.9892 -0.0668
vn -0.4848 -0.8367 -0.2547
vn -0.4955 -0.8663 -0.0634
vn -0.9892 0.1304 0.0668
vn -0.8367 0.4848 0.2547
vn -0.8663 0.4955 0.0634
vn -0.9468 0.1366 0.2914
vn -0.5936 0.5936 0.5434
vn -0.1901 0.6879 0.7004
vn -0.6879 0.1901 0.7004
vn -0.2298 0.2298 0.9457
vn -0.1366 0.9468 0.2914
vn -0.1304 0.9892 0.0668
vn -0.4848 0.8367 0.2547
vn -0.4955 0.8663 0.0634
vn -0.1304 -0.9892 0.0668
vn -0.4848 -0.8367 0.2547
vn -0.4955 -0.8663 0.0634
vn -0.1366 -0.9468 0.2914
vn -0.5936 -0.5936 0.5434
vn -0.6879 -0.1901 0.7004
vn -0.1901 -0.6879 0.7004
vn -0.2298 -0.2298 0.9457
vn -0.9468 -0.1366 0.2914
vn -0.9892 -0.1304 0.0668
vn -0.8367 -0.4848 0.2547
vn -0.8663 -0.4955 0.0634
vt 0.303738 0.023900
vt 0.045400 0.045400
vt 0.045400 0.023900
vt 0.023900 0.045400
vt 0.045400 0.303738
vt 0.023900 0.303738
vt 0.303738 0.045400
vt 0.303738 0.303738
vt 0.045400 0.325237
vt 0.303738 0.325237
vt 0.325237 0.303738
vt 0.325237 0.045400
vt 0.341042 0.303738
vt 0.324328 0.324328
vt 0.341042 0.045400
vt 0.335454 0.024810
vt 0.324328 0.024810
vt 0.324328 0.013683
vt 0.303738 0.008096
vt 0.309433 0.652875
vt 0.287933 0.674375
vt 0.287933 0.652875
vt 0.319650 0.673465
vt 0.308523 0.673465
vt 0.287933 0.394538
vt 0.309433 0.394538
vt 0.325237 0.652875
vt 0.325237 0.394538
vt 0.287933 0.373038
vt 0.308523 0.373948
vt 0.319650 0.373948
vt 0.287933 0.970404
vt 0.029596 0.991904
vt 0.029596 0.970404
vt 0.008096 0.970404
vt 0.674375 0.298150
vt 0.657661 0.318740
vt 0.658571 0.298150
vt 0.657661 0.329867
vt 0.668787 0.318740
vt 0.637071 0.319650
vt 0.637071 0.298150
vt 0.287933 0.357233
vt 0.637071 0.039813
vt 0.658571 0.039813
vt 0.674375 0.039813
vt 0.657661 0.019223
vt 0.668788 0.019223
vt 0.637071 0.018313
vt 0.378733 0.039813
vt 0.378733 0.298150
vt 0.357233 0.039813
vt 0.378733 0.018313
vt 0.357233 0.298150
vt 0.378733 0.319650
vt 0.029596 0.373038
vt 0.009006 0.362821
vt 0.029596 0.357233
vt 0.029596 0.394538
vt 0.008096 0.394538
vt 0.642767 0.394538
vt 0.652983 0.373948
vt 0.658571 0.394538
vt 0.641857 0.373948
vt 0.641857 0.362821
vt 0.621267 0.373038
vt 0.621267 0.394538
vt 0.621267 0.357233
vt 0.362929 0.394538
vt 0.362929 0.373038
vt 0.342339 0.362821
vt 0.362929 0.357233
vt 0.341429 0.394538
vt 0.362929 0.652875
vt 0.621267 0.652875
vt 0.362929 0.674375
vt 0.341429 0.652875
vt 0.642767 0.652875
vt 0.621267 0.674375
vt 0.652983 0.673465
vt 0.641857 0.673465
vt 0.658571 0.652875
vt 0.029596 0.674375
vt 0.008096 0.652875
vt 0.029596 0.652875
vt 0.045400 0.008096
vt 0.024810 0.024810
vt 0.024810 0.013683
vt 0.013683 0.024810
vt 0.008096 0.045400
vt 0.008096 0.303738
vt 0.013683 0.324328
vt 0.805799 0.298150
vt 0.795582 0.318740
vt 0.789995 0.298150
vt 0.024810 0.324328
vt 0.024810 0.335454
vt 0.045400 0.341042
vt 0.674762 0.378733
vt 0.696262 0.357233
vt 0.696262 0.378733
vt 0.674762 0.637071
vt 0.696262 0.637071
vt 0.789995 0.039813
vt 0.805799 0.039813
vt 0.696262 0.658571
vt 0.806709 0.019223
vt 0.696262 0.674375
vt 0.675672 0.657661
vt 0.795582 0.019223
vt 0.806709 0.008096
vt 0.954600 0.637071
vt 0.954600 0.658571
vt 0.954600 0.674375
vt 0.975190 0.668788
vt 0.976100 0.637071
vt 0.954600 0.378733
vt 0.976100 0.378733
vt 0.954600 0.357233
vt 0.324328 0.335454
vt 0.303738 0.341042
vt 0.823811 0.028686
vt 0.834028 0.008096
vt 0.839615 0.028686
vt 0.335454 0.324328
vt 0.287933 0.690567
vt 0.309433 0.712067
vt 0.287933 0.712067
vt 0.029596 0.690567
vt 0.839615 0.287023
vt 0.008096 0.712067
vt 0.029596 0.712067
vt 0.822901 0.307613
vt 0.823811 0.287023
vt 0.657661 0.008096
vt 0.309433 0.970404
vt 0.287933 0.991904
vt 0.009006 0.990994
vt 0.308523 0.362821
vt 0.358143 0.019223
vt 0.358143 0.318740
vt 0.009006 0.373948
vt 0.342339 0.373948
vt 0.342339 0.673465
vt 0.009006 0.673465
vt 0.806709 0.318740
vt 0.675672 0.358143
vt 0.675672 0.668788
vt 0.975190 0.657661
vt 0.975190 0.358143
vt 0.822901 0.008096
vt 0.308523 0.691477
vt 0.009006 0.691477
vt 0.834028 0.307613
vt 0.308523 0.990994
vt 0.690567 0.196136
vt 0.695942 0.190761
vt 0.695942 0.196136
vt 0.491062 0.849138
vt 0.496209 0.854246
vt 0.491062 0.857040
vt 0.491062 0.838388
vt 0.496209 0.848683
vt 0.690567 0.155917
vt 0.694745 0.166212
vt 0.691964 0.166212
vt 0.699893 0.155917
vt 0.694518 0.155917
vt 0.699893 0.166667
vt 0.694745 0.171775
vt 0.521954 0.838388
vt 0.516807 0.848683
vt 0.516579 0.838388
vt 0.521954 0.849138
vt 0.516807 0.854246
vt 0.760526 0.190761
vt 0.765901 0.196136
vt 0.760526 0.196136
vt 0.764477 0.166667
vt 0.769625 0.171775
vt 0.764477 0.174569
vt 0.764477 0.155917
vt 0.769625 0.166212
vt 0.769852 0.155917
vt 0.772406 0.166212
vt 0.699893 0.026748
vt 0.694745 0.016453
vt 0.699893 0.015998
vt 0.694518 0.026748
vt 0.691964 0.016453
vt 0.491062 0.709219
vt 0.496209 0.698924
vt 0.496437 0.709219
vt 0.491062 0.698469
vt 0.496209 0.693361
vt 0.613480 0.765901
vt 0.608105 0.760526
vt 0.613480 0.760526
vt 0.694745 0.010890
vt 0.699893 0.008096
vt 0.764477 0.026748
vt 0.769625 0.016453
vt 0.769852 0.026748
vt 0.764477 0.015998
vt 0.769625 0.010890
vt 0.683440 0.760526
vt 0.678065 0.765901
vt 0.678065 0.760526
vt 0.521954 0.698469
vt 0.516807 0.693361
vt 0.521954 0.690567
vt 0.521954 0.709219
vt 0.516807 0.698924
vt 0.772406 0.016453
vt 0.773803 0.026748
vt 0.695942 0.266095
vt 0.690567 0.260720
vt 0.695942 0.260720
vt 0.334951 0.698469
vt 0.329804 0.693361
vt 0.334951 0.690567
vt 0.334951 0.709219
vt 0.329804 0.698924
vt 0.325625 0.709219
vt 0.329576 0.709219
vt 0.426477 0.838388
vt 0.421330 0.848683
vt 0.421102 0.838388
vt 0.426477 0.849138
vt 0.421330 0.854246
vt 0.327022 0.698924
vt 0.399535 0.709219
vt 0.404683 0.698924
vt 0.404910 0.709219
vt 0.399535 0.698469
vt 0.404683 0.693361
vt 0.765901 0.260720
vt 0.760526 0.266095
vt 0.760526 0.260720
vt 0.586539 0.849138
vt 0.591686 0.854246
vt 0.586539 0.857040
vt 0.586539 0.838388
vt 0.591686 0.848683
vt 0.699859 0.706425
vt 0.702413 0.696130
vt 0.703810 0.706425
vt 0.699631 0.696130
vt 0.699631 0.690567
vt 0.334951 0.838388
vt 0.329804 0.848683
vt 0.329576 0.838388
vt 0.334951 0.849138
vt 0.329804 0.854246
vt 0.608105 0.695942
vt 0.613480 0.690567
vt 0.613480 0.695942
vt 0.426477 0.698469
vt 0.421330 0.693361
vt 0.426477 0.690567
vt 0.426477 0.709219
vt 0.421330 0.698924
vt 0.325625 0.838388
vt 0.327022 0.848683
vt 0.586539 0.709219
vt 0.591686 0.698924
vt 0.591914 0.709219
vt 0.586539 0.698469
vt 0.591686 0.693361
vt 0.678065 0.690567
vt 0.683440 0.695942
vt 0.678065 0.695942
vt 0.399535 0.849138
vt 0.404683 0.854246
vt 0.399535 0.857040
vt 0.399535 0.838388
vt 0.404683 0.848683
vt 0.699859 0.835594
vt 0.702413 0.845889
vt 0.699631 0.845889
vt 0.699631 0.851452
vt 0.591914 0.838388
vt 0.703810 0.835594
vt 0.404910 0.838388
vt 0.521954 0.857040
vt 0.699893 0.174569
vt 0.334951 0.857040
vt 0.764477 0.008096
vt 0.399535 0.690567
vt 0.491062 0.690567
vt 0.496437 0.838388
vt 0.500388 0.838388
vt 0.586539 0.690567
vt 0.421102 0.709219
vt 0.723953 0.819736
vt 0.720002 0.690567
vt 0.723953 0.690567
vt 0.426477 0.857040
vt 0.516579 0.709219
vt 0.773803 0.155917
vt 0.690794 0.190988
vt 0.765674 0.190988
vt 0.690567 0.026748
vt 0.608333 0.765674
vt 0.683212 0.765674
vt 0.690794 0.265867
vt 0.765674 0.265867
vt 0.608333 0.690794
vt 0.683212 0.690794
vt 0.500388 0.709219
vt 0.720002 0.819736
s 1
usemtl Material
f 100/156/97 101/157/98 97/158/99
f 104/159/100 102/160/101 100/161/97
f 98/162/102 105/163/103 104/159/100
f 103/164/104 108/165/105 105/166/103
f 99/167/106 108/165/105 107/168/107
f 106/169/108 102/170/101 108/165/105
f 102/170/101 105/166/103 108/165/105
f 109/171/109 114/172/110 113/173/111
f 112/174/112 117/175/113 114/172/110
f 115/176/114 116/177/115 110/178/116
f 119/179/117 117/180/113 115/181/114
f 111/182/118 120/183/119 119/179/117
f 118/184/120 114/185/110 120/183/119
f 114/185/110 117/180/113 120/183/119
f 121/186/121 126/187/122 125/188/123
f 124/189/124 129/190/125 126/187/122
f 122/191/126 129/192/125 128/193/127
f 127/194/128 132/195/129 129/192/125
f 130/196/130 131/197/131 123/198/132
f 125/188/123 132/199/129 130/200/130
f 126/187/122 129/190/125 132/199/129
f 133/201/133 138/202/134 137/203/135
f 136/204/136 141/205/137 138/202/134
f 139/206/138 140/207/139 134/208/140
f 143/209/141 141/210/137 139/211/138
f 135/212/142 144/213/143 143/209/141
f 137/203/135 144/214/143 142/215/144
f 138/202/134 141/205/137 144/214/143
f 148/216/145 149/217/146 145/218/147
f 152/219/148 150/220/149 148/221/145
f 146/222/150 153/223/151 152/219/148
f 155/224/152 153/223/151 151/225/153
f 147/226/154 156/227/155 155/228/152
f 154/229/156 150/230/149 156/227/155
f 150/220/149 153/223/151 156/231/155
f 157/232/157 162/233/158 161/234/159
f 160/235/160 165/236/161 162/233/158
f 163/237/162 164/238/163 158/239/164
f 167/240/165 165/241/161 163/242/162
f 159/243/166 168/244/167 167/240/165
f 161/245/159 168/246/167 166/247/168
f 162/248/158 165/249/161 168/246/167
f 169/250/169 174/251/170 173/252/171
f 172/253/172 177/254/173 174/251/170
f 175/255/174 176/256/175 170/257/176
f 179/258/177 177/259/173 175/260/174
f 171/261/178 180/262/179 179/258/177
f 178/263/180 174/251/170 180/264/179
f 174/251/170 177/254/173 180/264/179
f 181/265/181 186/266/182 185/267/183
f 184/268/184 189/269/185 186/266/182
f 187/270/186 188/271/187 182/272/188
f 191/273/189 189/274/185 187/275/186
f 183/276/190 192/277/191 191/273/189
f 190/278/192 186/279/182 192/280/191
f 186/279/182 189/281/185 192/280/191
f 181/265/181 166/282/168 159/243/166
f 185/283/183 161/245/159 166/247/168
f 190/284/192 157/232/157 161/234/159
f 109/171/109 167/240/165 112/174/112
f 167/240/165 116/285/115 112/174/112
f 163/237/162 110/178/116 116/177/115
f 111/182/118 106/169/108 99/167/106
f 119/179/117 101/286/98 106/169/108
f 115/176/114 97/158/99 101/157/98
f 170/257/176 187/270/186 182/272/188
f 176/287/175 191/273/189 187/275/186
f 172/253/172 183/276/190 191/273/189
f 134/208/140 130/196/130 123/198/132
f 140/288/139 125/188/123 130/200/130
f 136/204/136 121/186/121 125/188/123
f 158/239/164 148/216/145 145/218/147
f 164/289/163 152/219/148 148/221/145
f 160/235/160 146/222/150 152/219/148
f 171/261/178 127/194/128 122/191/126
f 179/258/177 131/290/131 127/194/128
f 175/255/174 123/198/132 131/197/131
f 122/191/126 103/291/104 98/162/102
f 128/193/127 107/292/107 103/291/104
f 124/189/124 99/167/106 107/168/107
f 181/265/181 143/209/141 184/268/184
f 143/209/141 188/293/187 184/268/184
f 139/206/138 182/272/188 188/271/187
f 147/226/154 178/294/180 171/261/178
f 155/295/152 173/296/171 178/297/180
f 151/225/153 169/250/169 173/252/171
f 98/162/102 154/229/156 147/226/154
f 104/159/100 149/298/146 154/229/156
f 100/156/97 145/218/147 149/217/146
f 109/171/109 142/299/144 135/212/142
f 113/300/111 137/203/135 142/215/144
f 118/184/120 133/201/133 137/203/135
f 145/218/147 110/178/116 158/239/164
f 99/167/106 133/201/133 111/182/118
f 147/226/154 122/191/126 98/162/102
f 109/171/109 181/265/181 159/243/166
f 123/198/132 182/272/188 134/208/140
f 169/250/169 157/232/157 183/276/190
f 100/156/97 102/301/101 101/157/98
f 104/159/100 105/163/103 102/160/101
f 98/162/102 103/291/104 105/163/103
f 103/164/104 107/168/107 108/165/105
f 99/167/106 106/169/108 108/165/105
f 106/169/108 101/286/98 102/170/101
f 109/171/109 112/174/112 114/172/110
f 112/174/112 116/285/115 117/175/113
f 115/176/114 117/302/113 116/177/115
f 119/179/117 120/183/119 117/180/113
f 111/182/118 118/184/120 120/183/119
f 118/184/120 113/300/111 114/185/110
f 121/186/121 124/189/124 126/187/122
f 124/189/124 128/303/127 129/190/125
f 122/191/126 127/194/128 129/192/125
f 127/194/128 131/290/131 132/195/129
f 130/196/130 132/304/129 131/197/131
f 125/188/123 126/187/122 132/199/129
f 133/201/133 136/204/136 138/202/134
f 136/204/136 140/288/139 141/205/137
f 139/206/138 141/305/137 140/207/139
f 143/209/141 144/213/143 141/210/137
f 135/212/142 142/299/144 144/213/143
f 137/203/135 138/202/134 144/214/143
f 148/216/145 150/306/149 149/217/146
f 152/219/148 153/223/151 150/220/149
f 146/222/150 151/225/153 153/223/151
f 155/224/152 156/231/155 153/223/151
f 147/226/154 154/229/156 156/227/155
f 154/229/156 149/298/146 150/230/149
f 157/232/157 160/235/160 162/233/158
f 160/235/160 164/289/163 165/236/161
f 163/237/162 165/307/161 164/238/163
f 167/240/165 168/244/167 165/241/161
f 159/243/166 166/282/168 168/244/167
f 161/245/159 162/248/158 168/246/167
f 169/250/169 172/253/172 174/251/170
f 172/253/172 176/287/175 177/254/173
f 175/255/174 177/308/173 176/256/175
f 179/258/177 180/262/179 177/259/173
f 171/261/178 178/294/180 180/262/179
f 178/263/180 173/252/171 174/251/170
f 181/265/181 184/268/184 186/266/182
f 184/268/184 188/293/187 189/269/185
f 187/270/186 189/309/185 188/271/187
f 191/273/189 192/277/191 189/274/185
f 183/276/190 190/284/192 192/277/191
f 190/278/192 185/283/183 186/279/182
f 181/265/181 185/267/183 166/282/168
f 185/283/183 190/278/192 161/245/159
f 190/284/192 183/276/190 157/232/157
f 109/171/109 159/243/166 167/240/165
f 167/240/165 163/242/162 116/285/115
f 163/237/162 158/239/164 110/178/116
f 111/182/118 119/179/117 106/169/108
f 119/179/117 115/181/114 101/286/98
f 115/176/114 110/178/116 97/158/99
f 170/257/176 176/256/175 187/270/186
f 176/287/175 172/253/172 191/273/189
f 172/253/172 169/250/169 183/276/190
f 134/208/140 140/207/139 130/196/130
f 140/288/139 136/204/136 125/188/123
f 136/204/136 133/201/133 121/186/121
f 158/239/164 164/238/163 148/216/145
f 164/289/163 160/235/160 152/219/148
f 160/235/160 157/232/157 146/222/150
f 171/261/178 179/258/177 127/194/128
f 179/258/177 175/260/174 131/290/131
f 175/255/174 170/257/176 123/198/132
f 122/191/126 128/193/127 103/291/104
f 128/193/127 124/310/124 107/292/107
f 124/189/124 121/186/121 99/167/106
f 181/265/181 135/212/142 143/209/141
f 143/209/141 139/211/138 188/293/187
f 139/206/138 134/208/140 182/272/188
f 147/226/154 155/228/152 178/294/180
f 155/295/152 151/311/153 173/296/171
f 151/225/153 146/222/150 169/250/169
f 98/162/102 104/159/100 154/229/156
f 104/159/100 100/161/97 149/298/146
f 100/156/97 97/158/99 145/218/147
f 109/171/109 113/173/111 142/299/144
f 113/300/111 118/184/120 137/203/135
f 118/184/120 111/182/118 133/201/133
f 145/218/147 97/158/99 110/178/116
f 99/167/106 121/186/121 133/201/133
f 147/226/154 171/261/178 122/191/126
f 109/171/109 135/212/142 181/265/181
f 123/198/132 170/257/176 182/272/188
f 169/250/169 146/222/150 157/232/157
usemtl Material.001
f 17/1/1 1/2/2 2/3/3
f 3/4/4 2/3/3 1/2/2
f 3/4/4 5/5/5 6/6/6
f 5/5/5 4/7/7 8/8/8
f 7/9/9 6/6/6 5/5/5
f 5/5/5 9/10/10 7/9/9
f 10/11/11 9/10/10 8/8/8
f 10/11/11 4/7/7 13/12/12
f 12/13/13 11/14/14 10/11/11
f 12/13/13 13/12/12 14/15/15
f 13/12/12 16/16/16 14/15/15
f 17/1/1 13/12/12 4/7/7
f 16/16/16 15/17/17 18/18/18
f 19/19/19 15/17/17 17/1/1
f 20/20/20 19/21/19 21/22/21
f 20/20/20 16/23/16 18/24/18
f 20/20/20 24/25/22 23/26/23
f 22/27/24 23/26/23 26/28/25
f 49/29/26 23/26/23 24/25/22
f 26/28/25 25/30/27 28/31/28
f 96/32/29 26/33/25 27/34/30
f 26/33/25 29/35/31 27/34/30
f 29/36/31 30/37/32 32/38/33
f 25/39/27 30/37/32 28/40/28
f 32/38/33 31/41/34 33/42/35
f 31/43/34 25/30/27 49/29/26
f 32/38/33 37/44/36 34/45/37
f 29/36/31 34/45/37 35/46/38
f 35/46/38 36/47/39 95/48/40
f 38/49/41 34/45/37 37/44/36
f 39/50/42 38/49/41 37/44/36
f 42/51/43 37/44/36 33/42/35
f 41/52/44 40/53/45 39/50/42
f 41/52/44 42/51/43 43/54/46
f 44/55/47 43/54/46 42/51/43
f 33/42/35 44/55/47 42/51/43
f 46/56/48 45/57/49 44/58/47
f 31/43/34 46/56/48 44/58/47
f 49/29/26 47/59/50 46/56/48
f 50/60/51 46/56/48 47/59/50
f 52/61/52 48/62/53 50/63/51
f 48/62/53 51/64/54 45/65/49
f 53/66/55 52/61/52 54/67/56
f 43/68/46 51/64/54 53/66/55
f 57/69/57 53/66/55 54/67/56
f 55/70/58 43/68/46 53/66/55
f 55/70/58 81/71/59 41/72/44
f 58/73/60 55/70/58 57/69/57
f 59/74/61 58/73/60 57/69/57
f 59/74/61 54/67/56 62/75/62
f 61/76/63 60/77/64 59/74/61
f 62/75/62 61/76/63 59/74/61
f 64/78/65 63/79/66 62/75/62
f 62/75/62 52/61/52 64/78/65
f 64/78/65 67/80/67 65/81/68
f 52/61/52 66/82/69 64/78/65
f 69/83/70 66/84/69 68/85/71
f 50/60/51 68/85/71 66/84/69
f 68/85/71 19/21/19 69/83/70
f 68/85/71 24/25/22 21/22/21
f 69/86/70 70/87/72 67/88/67
f 19/19/19 2/3/3 69/86/70
f 70/87/72 65/89/68 67/88/67
f 3/4/4 65/89/68 70/87/72
f 63/90/66 6/6/6 61/91/63
f 6/6/6 71/92/73 61/91/63
f 60/93/64 72/94/74 75/95/75
f 73/96/76 72/97/74 71/92/73
f 74/98/77 73/96/76 7/9/9
f 75/99/75 74/100/77 76/101/78
f 77/102/79 76/101/78 78/103/80
f 60/93/64 77/104/79 58/105/60
f 80/106/81 77/102/79 78/103/80
f 77/104/79 56/107/82 58/105/60
f 40/108/45 79/109/83 80/106/81
f 79/110/83 81/111/59 56/107/82
f 80/106/81 84/112/84 82/113/85
f 40/108/45 82/113/85 38/114/41
f 82/113/85 36/115/39 38/114/41
f 85/116/86 82/113/85 84/112/84
f 85/116/86 86/117/87 87/118/88
f 78/103/80 86/117/87 84/112/84
f 88/119/89 87/118/88 86/117/87
f 88/119/89 76/101/78 74/100/77
f 9/10/10 89/120/90 88/121/89
f 9/10/10 74/98/77 7/9/9
f 87/122/88 90/123/91 91/124/92
f 89/120/90 11/14/14 90/125/91
f 91/126/92 12/127/13 92/128/93
f 92/128/93 93/129/94 91/126/92
f 93/130/94 87/122/88 91/124/92
f 35/131/38 93/129/94 94/132/95
f 93/130/94 83/133/96 85/134/86
f 95/48/40 36/47/39 83/135/96
f 27/34/30 35/131/38 94/132/95
f 96/32/29 94/132/95 92/128/93
f 92/128/93 14/136/15 96/32/29
f 14/136/15 22/137/24 96/32/29
f 17/1/1 4/7/7 1/2/2
f 3/4/4 70/87/72 2/3/3
f 3/4/4 1/2/2 5/5/5
f 5/5/5 1/2/2 4/7/7
f 7/9/9 73/96/76 6/6/6
f 5/5/5 8/8/8 9/10/10
f 10/11/11 11/14/14 9/10/10
f 10/11/11 8/8/8 4/7/7
f 12/13/13 90/125/91 11/14/14
f 12/13/13 10/11/11 13/12/12
f 13/12/12 15/17/17 16/16/16
f 17/1/1 15/17/17 13/12/12
f 19/19/19 18/18/18 15/17/17
f 20/20/20 18/24/18 19/21/19
f 20/20/20 22/27/24 16/23/16
f 20/20/20 21/22/21 24/25/22
f 22/27/24 20/20/20 23/26/23
f 49/29/26 25/30/27 23/26/23
f 26/28/25 23/26/23 25/30/27
f 96/32/29 22/137/24 26/33/25
f 26/33/25 28/138/28 29/35/31
f 29/36/31 28/40/28 30/37/32
f 32/38/33 30/37/32 31/41/34
f 31/43/34 30/139/32 25/30/27
f 32/38/33 33/42/35 37/44/36
f 29/36/31 32/38/33 34/45/37
f 35/46/38 34/45/37 36/47/39
f 38/49/41 36/47/39 34/45/37
f 39/50/42 40/53/45 38/49/41
f 42/51/43 39/50/42 37/44/36
f 41/52/44 81/140/59 40/53/45
f 41/52/44 39/50/42 42/51/43
f 44/55/47 45/141/49 43/54/46
f 33/42/35 31/41/34 44/55/47
f 46/56/48 48/142/53 45/57/49
f 31/43/34 49/29/26 46/56/48
f 49/29/26 24/25/22 47/59/50
f 50/60/51 48/142/53 46/56/48
f 52/61/52 51/64/54 48/62/53
f 53/66/55 51/64/54 52/61/52
f 43/68/46 45/65/49 51/64/54
f 57/69/57 55/70/58 53/66/55
f 55/70/58 41/72/44 43/68/46
f 55/70/58 56/143/82 81/71/59
f 58/73/60 56/143/82 55/70/58
f 59/74/61 60/77/64 58/73/60
f 59/74/61 57/69/57 54/67/56
f 61/76/63 71/144/73 60/77/64
f 62/75/62 63/79/66 61/76/63
f 64/78/65 65/81/68 63/79/66
f 62/75/62 54/67/56 52/61/52
f 64/78/65 66/82/69 67/80/67
f 52/61/52 50/63/51 66/82/69
f 69/83/70 67/145/67 66/84/69
f 50/60/51 47/59/50 68/85/71
f 68/85/71 21/22/21 19/21/19
f 68/85/71 47/59/50 24/25/22
f 69/86/70 2/3/3 70/87/72
f 19/19/19 17/1/1 2/3/3
f 3/4/4 63/90/66 65/89/68
f 63/90/66 3/4/4 6/6/6
f 6/6/6 73/96/76 71/92/73
f 60/93/64 71/146/73 72/94/74
f 74/98/77 72/97/74 73/96/76
f 75/99/75 72/147/74 74/100/77
f 77/102/79 75/99/75 76/101/78
f 60/93/64 75/95/75 77/104/79
f 80/106/81 79/109/83 77/102/79
f 77/104/79 79/110/83 56/107/82
f 40/108/45 81/148/59 79/109/83
f 80/106/81 78/103/80 84/112/84
f 40/108/45 80/106/81 82/113/85
f 82/113/85 83/149/96 36/115/39
f 85/116/86 83/149/96 82/113/85
f 85/116/86 84/112/84 86/117/87
f 78/103/80 76/101/78 86/117/87
f 88/119/89 89/150/90 87/118/88
f 88/119/89 86/117/87 76/101/78
f 9/10/10 11/14/14 89/120/90
f 9/10/10 88/121/89 74/98/77
f 87/122/88 89/151/90 90/123/91
f 91/126/92 90/152/91 12/127/13
f 92/128/93 94/132/95 93/129/94
f 93/130/94 85/134/86 87/122/88
f 35/131/38 95/153/40 93/129/94
f 93/130/94 95/154/40 83/133/96
f 27/34/30 29/35/31 35/131/38
f 96/32/29 27/34/30 94/132/95
f 92/128/93 12/127/13 14/136/15
f 14/136/15 16/155/16 22/137/24
